M48
; DRILL file {KiCad (6.0.0)} date Sat Jan 15 15:09:50 2022
; FORMAT={-:-/ absolute / inch / decimal}
; #@! TF.CreationDate,2022-01-15T15:09:50-08:00
; #@! TF.GenerationSoftware,Kicad,Pcbnew,(6.0.0)
; #@! TF.FileFunction,Plated,1,2,PTH
FMAT,2
INCH
; #@! TA.AperFunction,Plated,PTH,ComponentDrill
T1C0.0315
; #@! TA.AperFunction,Plated,PTH,ComponentDrill
T2C0.0354
; #@! TA.AperFunction,Plated,PTH,ComponentDrill
T3C0.0394
%
G90
G05
T1
X4.9172Y-3.6515
X4.9172Y-3.9515
X5.05Y-2.5
X5.1619Y-4.1769
X5.2304Y-3.8336
X5.2304Y-3.9321
X5.35Y-2.5
X5.3588Y-4.1769
X5.4885Y-4.1916
X5.7885Y-4.1916
X6.5584Y-3.8055
X6.5584Y-3.9394
T2
X5.6Y-2.4
X5.7Y-2.4
X6.0Y-2.4
X6.1Y-2.4
X6.1356Y-3.8241
X6.1356Y-3.9241
T3
X5.2524Y-3.4937
X5.4Y-3.4937
X5.5476Y-3.4937
X6.2016Y-3.3953
X6.3Y-3.3953
X6.3984Y-3.3953
T3
G00X4.5149Y-2.1497
M15
G01X4.5149Y-2.0907
M16
G05
G00X4.7176Y-2.1596
M15
G01X4.6665Y-2.1596
M16
G05
G00X4.7314Y-2.3958
M15
G01X4.6527Y-2.3958
M16
G05
G00X4.8692Y-2.1497
M15
G01X4.8692Y-2.0907
M16
G05
G00X4.9764Y-4.7
M15
G01X5.0236Y-4.7
M16
G05
G00X5.2795Y-4.7984
M15
G01X5.3268Y-4.7984
M16
G05
G00X5.563Y-4.7984
M15
G01X5.6102Y-4.7984
M16
G05
G00X5.937Y-4.6016
M15
G01X5.8898Y-4.6016
M16
G05
G00X6.2205Y-4.6016
M15
G01X6.1732Y-4.6016
M16
G05
G00X6.5236Y-4.7
M15
G01X6.4764Y-4.7
M16
G05
T0
M30
