%TF.GenerationSoftware,KiCad,Pcbnew,(6.0.0)*%
%TF.CreationDate,2022-01-15T15:10:36-08:00*%
%TF.ProjectId,Tremolo_V2,5472656d-6f6c-46f5-9f56-322e6b696361,rev?*%
%TF.SameCoordinates,Original*%
%TF.FileFunction,Legend,Top*%
%TF.FilePolarity,Positive*%
%FSLAX46Y46*%
G04 Gerber Fmt 4.6, Leading zero omitted, Abs format (unit mm)*
G04 Created by KiCad (PCBNEW (6.0.0)) date 2022-01-15 15:10:36*
%MOMM*%
%LPD*%
G01*
G04 APERTURE LIST*
%ADD10C,0.150000*%
%ADD11C,0.120000*%
%ADD12C,0.127000*%
%ADD13C,0.200000*%
G04 APERTURE END LIST*
D10*
X158139047Y-72842380D02*
X158139047Y-71842380D01*
X158377142Y-71842380D01*
X158520000Y-71890000D01*
X158615238Y-71985238D01*
X158662857Y-72080476D01*
X158710476Y-72270952D01*
X158710476Y-72413809D01*
X158662857Y-72604285D01*
X158615238Y-72699523D01*
X158520000Y-72794761D01*
X158377142Y-72842380D01*
X158139047Y-72842380D01*
X159520000Y-72794761D02*
X159424761Y-72842380D01*
X159234285Y-72842380D01*
X159139047Y-72794761D01*
X159091428Y-72699523D01*
X159091428Y-72318571D01*
X159139047Y-72223333D01*
X159234285Y-72175714D01*
X159424761Y-72175714D01*
X159520000Y-72223333D01*
X159567619Y-72318571D01*
X159567619Y-72413809D01*
X159091428Y-72509047D01*
X159996190Y-72175714D02*
X159996190Y-73175714D01*
X159996190Y-72223333D02*
X160091428Y-72175714D01*
X160281904Y-72175714D01*
X160377142Y-72223333D01*
X160424761Y-72270952D01*
X160472380Y-72366190D01*
X160472380Y-72651904D01*
X160424761Y-72747142D01*
X160377142Y-72794761D01*
X160281904Y-72842380D01*
X160091428Y-72842380D01*
X159996190Y-72794761D01*
X160758095Y-72175714D02*
X161139047Y-72175714D01*
X160900952Y-71842380D02*
X160900952Y-72699523D01*
X160948571Y-72794761D01*
X161043809Y-72842380D01*
X161139047Y-72842380D01*
X161472380Y-72842380D02*
X161472380Y-71842380D01*
X161900952Y-72842380D02*
X161900952Y-72318571D01*
X161853333Y-72223333D01*
X161758095Y-72175714D01*
X161615238Y-72175714D01*
X161520000Y-72223333D01*
X161472380Y-72270952D01*
X134874285Y-70572380D02*
X135445714Y-70572380D01*
X135160000Y-71572380D02*
X135160000Y-70572380D01*
X136160000Y-71524761D02*
X136064761Y-71572380D01*
X135874285Y-71572380D01*
X135779047Y-71524761D01*
X135731428Y-71429523D01*
X135731428Y-71048571D01*
X135779047Y-70953333D01*
X135874285Y-70905714D01*
X136064761Y-70905714D01*
X136160000Y-70953333D01*
X136207619Y-71048571D01*
X136207619Y-71143809D01*
X135731428Y-71239047D01*
X136636190Y-71572380D02*
X136636190Y-70905714D01*
X136636190Y-71000952D02*
X136683809Y-70953333D01*
X136779047Y-70905714D01*
X136921904Y-70905714D01*
X137017142Y-70953333D01*
X137064761Y-71048571D01*
X137064761Y-71572380D01*
X137064761Y-71048571D02*
X137112380Y-70953333D01*
X137207619Y-70905714D01*
X137350476Y-70905714D01*
X137445714Y-70953333D01*
X137493333Y-71048571D01*
X137493333Y-71572380D01*
X137969523Y-70905714D02*
X137969523Y-71905714D01*
X137969523Y-70953333D02*
X138064761Y-70905714D01*
X138255238Y-70905714D01*
X138350476Y-70953333D01*
X138398095Y-71000952D01*
X138445714Y-71096190D01*
X138445714Y-71381904D01*
X138398095Y-71477142D01*
X138350476Y-71524761D01*
X138255238Y-71572380D01*
X138064761Y-71572380D01*
X137969523Y-71524761D01*
X139017142Y-71572380D02*
X138921904Y-71524761D01*
X138874285Y-71477142D01*
X138826666Y-71381904D01*
X138826666Y-71096190D01*
X138874285Y-71000952D01*
X138921904Y-70953333D01*
X139017142Y-70905714D01*
X139160000Y-70905714D01*
X139255238Y-70953333D01*
X139302857Y-71000952D01*
X139350476Y-71096190D01*
X139350476Y-71381904D01*
X139302857Y-71477142D01*
X139255238Y-71524761D01*
X139160000Y-71572380D01*
X139017142Y-71572380D01*
X127357142Y-58475238D02*
X127404761Y-58522857D01*
X127452380Y-58665714D01*
X127452380Y-58760952D01*
X127404761Y-58903809D01*
X127309523Y-58999047D01*
X127214285Y-59046666D01*
X127023809Y-59094285D01*
X126880952Y-59094285D01*
X126690476Y-59046666D01*
X126595238Y-58999047D01*
X126500000Y-58903809D01*
X126452380Y-58760952D01*
X126452380Y-58665714D01*
X126500000Y-58522857D01*
X126547619Y-58475238D01*
X127404761Y-57665714D02*
X127452380Y-57760952D01*
X127452380Y-57951428D01*
X127404761Y-58046666D01*
X127309523Y-58094285D01*
X126928571Y-58094285D01*
X126833333Y-58046666D01*
X126785714Y-57951428D01*
X126785714Y-57760952D01*
X126833333Y-57665714D01*
X126928571Y-57618095D01*
X127023809Y-57618095D01*
X127119047Y-58094285D01*
X126785714Y-57189523D02*
X127452380Y-57189523D01*
X126880952Y-57189523D02*
X126833333Y-57141904D01*
X126785714Y-57046666D01*
X126785714Y-56903809D01*
X126833333Y-56808571D01*
X126928571Y-56760952D01*
X127452380Y-56760952D01*
X126785714Y-56427619D02*
X126785714Y-56046666D01*
X126452380Y-56284761D02*
X127309523Y-56284761D01*
X127404761Y-56237142D01*
X127452380Y-56141904D01*
X127452380Y-56046666D01*
X127404761Y-55332380D02*
X127452380Y-55427619D01*
X127452380Y-55618095D01*
X127404761Y-55713333D01*
X127309523Y-55760952D01*
X126928571Y-55760952D01*
X126833333Y-55713333D01*
X126785714Y-55618095D01*
X126785714Y-55427619D01*
X126833333Y-55332380D01*
X126928571Y-55284761D01*
X127023809Y-55284761D01*
X127119047Y-55760952D01*
X127452380Y-54856190D02*
X126785714Y-54856190D01*
X126976190Y-54856190D02*
X126880952Y-54808571D01*
X126833333Y-54760952D01*
X126785714Y-54665714D01*
X126785714Y-54570476D01*
X127071428Y-53475238D02*
X127071428Y-52713333D01*
X127452380Y-53094285D02*
X126690476Y-53094285D01*
X160100000Y-58927380D02*
X160100000Y-59641666D01*
X160052380Y-59784523D01*
X159957142Y-59879761D01*
X159814285Y-59927380D01*
X159719047Y-59927380D01*
X161004761Y-59927380D02*
X161004761Y-59403571D01*
X160957142Y-59308333D01*
X160861904Y-59260714D01*
X160671428Y-59260714D01*
X160576190Y-59308333D01*
X161004761Y-59879761D02*
X160909523Y-59927380D01*
X160671428Y-59927380D01*
X160576190Y-59879761D01*
X160528571Y-59784523D01*
X160528571Y-59689285D01*
X160576190Y-59594047D01*
X160671428Y-59546428D01*
X160909523Y-59546428D01*
X161004761Y-59498809D01*
X161480952Y-59927380D02*
X161480952Y-59260714D01*
X161480952Y-58927380D02*
X161433333Y-58975000D01*
X161480952Y-59022619D01*
X161528571Y-58975000D01*
X161480952Y-58927380D01*
X161480952Y-59022619D01*
X162385714Y-59927380D02*
X162385714Y-58927380D01*
X162385714Y-59879761D02*
X162290476Y-59927380D01*
X162100000Y-59927380D01*
X162004761Y-59879761D01*
X161957142Y-59832142D01*
X161909523Y-59736904D01*
X161909523Y-59451190D01*
X161957142Y-59355952D01*
X162004761Y-59308333D01*
X162100000Y-59260714D01*
X162290476Y-59260714D01*
X162385714Y-59308333D01*
X163004761Y-59927380D02*
X162909523Y-59879761D01*
X162861904Y-59832142D01*
X162814285Y-59736904D01*
X162814285Y-59451190D01*
X162861904Y-59355952D01*
X162909523Y-59308333D01*
X163004761Y-59260714D01*
X163147619Y-59260714D01*
X163242857Y-59308333D01*
X163290476Y-59355952D01*
X163338095Y-59451190D01*
X163338095Y-59736904D01*
X163290476Y-59832142D01*
X163242857Y-59879761D01*
X163147619Y-59927380D01*
X163004761Y-59927380D01*
X163766666Y-59260714D02*
X163766666Y-59927380D01*
X163766666Y-59355952D02*
X163814285Y-59308333D01*
X163909523Y-59260714D01*
X164052380Y-59260714D01*
X164147619Y-59308333D01*
X164195238Y-59403571D01*
X164195238Y-59927380D01*
X165909523Y-59927380D02*
X165433333Y-59927380D01*
X165433333Y-58927380D01*
X166147619Y-59260714D02*
X166385714Y-59927380D01*
X166623809Y-59260714D02*
X166385714Y-59927380D01*
X166290476Y-60165476D01*
X166242857Y-60213095D01*
X166147619Y-60260714D01*
X167004761Y-59927380D02*
X167004761Y-58927380D01*
X167004761Y-59308333D02*
X167100000Y-59260714D01*
X167290476Y-59260714D01*
X167385714Y-59308333D01*
X167433333Y-59355952D01*
X167480952Y-59451190D01*
X167480952Y-59736904D01*
X167433333Y-59832142D01*
X167385714Y-59879761D01*
X167290476Y-59927380D01*
X167100000Y-59927380D01*
X167004761Y-59879761D01*
X167909523Y-59927380D02*
X167909523Y-58927380D01*
X167909523Y-59308333D02*
X168004761Y-59260714D01*
X168195238Y-59260714D01*
X168290476Y-59308333D01*
X168338095Y-59355952D01*
X168385714Y-59451190D01*
X168385714Y-59736904D01*
X168338095Y-59832142D01*
X168290476Y-59879761D01*
X168195238Y-59927380D01*
X168004761Y-59927380D01*
X167909523Y-59879761D01*
X169195238Y-59879761D02*
X169100000Y-59927380D01*
X168909523Y-59927380D01*
X168814285Y-59879761D01*
X168766666Y-59784523D01*
X168766666Y-59403571D01*
X168814285Y-59308333D01*
X168909523Y-59260714D01*
X169100000Y-59260714D01*
X169195238Y-59308333D01*
X169242857Y-59403571D01*
X169242857Y-59498809D01*
X168766666Y-59594047D01*
X169671428Y-59927380D02*
X169671428Y-59260714D01*
X169671428Y-59451190D02*
X169719047Y-59355952D01*
X169766666Y-59308333D01*
X169861904Y-59260714D01*
X169957142Y-59260714D01*
X170147619Y-59260714D02*
X170528571Y-59260714D01*
X170290476Y-58927380D02*
X170290476Y-59784523D01*
X170338095Y-59879761D01*
X170433333Y-59927380D01*
X170528571Y-59927380D01*
X159457142Y-61537380D02*
X159457142Y-60537380D01*
X159790476Y-61251666D01*
X160123809Y-60537380D01*
X160123809Y-61537380D01*
X161028571Y-61537380D02*
X161028571Y-61013571D01*
X160980952Y-60918333D01*
X160885714Y-60870714D01*
X160695238Y-60870714D01*
X160600000Y-60918333D01*
X161028571Y-61489761D02*
X160933333Y-61537380D01*
X160695238Y-61537380D01*
X160600000Y-61489761D01*
X160552380Y-61394523D01*
X160552380Y-61299285D01*
X160600000Y-61204047D01*
X160695238Y-61156428D01*
X160933333Y-61156428D01*
X161028571Y-61108809D01*
X161361904Y-60870714D02*
X161742857Y-60870714D01*
X161504761Y-60537380D02*
X161504761Y-61394523D01*
X161552380Y-61489761D01*
X161647619Y-61537380D01*
X161742857Y-61537380D01*
X161933333Y-60870714D02*
X162314285Y-60870714D01*
X162076190Y-60537380D02*
X162076190Y-61394523D01*
X162123809Y-61489761D01*
X162219047Y-61537380D01*
X162314285Y-61537380D01*
X162647619Y-61537380D02*
X162647619Y-60537380D01*
X163076190Y-61537380D02*
X163076190Y-61013571D01*
X163028571Y-60918333D01*
X162933333Y-60870714D01*
X162790476Y-60870714D01*
X162695238Y-60918333D01*
X162647619Y-60965952D01*
X163933333Y-61489761D02*
X163838095Y-61537380D01*
X163647619Y-61537380D01*
X163552380Y-61489761D01*
X163504761Y-61394523D01*
X163504761Y-61013571D01*
X163552380Y-60918333D01*
X163647619Y-60870714D01*
X163838095Y-60870714D01*
X163933333Y-60918333D01*
X163980952Y-61013571D01*
X163980952Y-61108809D01*
X163504761Y-61204047D01*
X164314285Y-60870714D02*
X164504761Y-61537380D01*
X164695238Y-61061190D01*
X164885714Y-61537380D01*
X165076190Y-60870714D01*
X166552380Y-61013571D02*
X166695238Y-61061190D01*
X166742857Y-61108809D01*
X166790476Y-61204047D01*
X166790476Y-61346904D01*
X166742857Y-61442142D01*
X166695238Y-61489761D01*
X166600000Y-61537380D01*
X166219047Y-61537380D01*
X166219047Y-60537380D01*
X166552380Y-60537380D01*
X166647619Y-60585000D01*
X166695238Y-60632619D01*
X166742857Y-60727857D01*
X166742857Y-60823095D01*
X166695238Y-60918333D01*
X166647619Y-60965952D01*
X166552380Y-61013571D01*
X166219047Y-61013571D01*
X167600000Y-61489761D02*
X167504761Y-61537380D01*
X167314285Y-61537380D01*
X167219047Y-61489761D01*
X167171428Y-61394523D01*
X167171428Y-61013571D01*
X167219047Y-60918333D01*
X167314285Y-60870714D01*
X167504761Y-60870714D01*
X167600000Y-60918333D01*
X167647619Y-61013571D01*
X167647619Y-61108809D01*
X167171428Y-61204047D01*
X168504761Y-61489761D02*
X168409523Y-61537380D01*
X168219047Y-61537380D01*
X168123809Y-61489761D01*
X168076190Y-61442142D01*
X168028571Y-61346904D01*
X168028571Y-61061190D01*
X168076190Y-60965952D01*
X168123809Y-60918333D01*
X168219047Y-60870714D01*
X168409523Y-60870714D01*
X168504761Y-60918333D01*
X168933333Y-61537380D02*
X168933333Y-60537380D01*
X169028571Y-61156428D02*
X169314285Y-61537380D01*
X169314285Y-60870714D02*
X168933333Y-61251666D01*
X170123809Y-61489761D02*
X170028571Y-61537380D01*
X169838095Y-61537380D01*
X169742857Y-61489761D01*
X169695238Y-61394523D01*
X169695238Y-61013571D01*
X169742857Y-60918333D01*
X169838095Y-60870714D01*
X170028571Y-60870714D01*
X170123809Y-60918333D01*
X170171428Y-61013571D01*
X170171428Y-61108809D01*
X169695238Y-61204047D01*
X170600000Y-61537380D02*
X170600000Y-60870714D01*
X170600000Y-61061190D02*
X170647619Y-60965952D01*
X170695238Y-60918333D01*
X170790476Y-60870714D01*
X170885714Y-60870714D01*
X161838095Y-63052142D02*
X161790476Y-63099761D01*
X161647619Y-63147380D01*
X161552380Y-63147380D01*
X161409523Y-63099761D01*
X161314285Y-63004523D01*
X161266666Y-62909285D01*
X161219047Y-62718809D01*
X161219047Y-62575952D01*
X161266666Y-62385476D01*
X161314285Y-62290238D01*
X161409523Y-62195000D01*
X161552380Y-62147380D01*
X161647619Y-62147380D01*
X161790476Y-62195000D01*
X161838095Y-62242619D01*
X162266666Y-63147380D02*
X162266666Y-62147380D01*
X162695238Y-63147380D02*
X162695238Y-62623571D01*
X162647619Y-62528333D01*
X162552380Y-62480714D01*
X162409523Y-62480714D01*
X162314285Y-62528333D01*
X162266666Y-62575952D01*
X163171428Y-63147380D02*
X163171428Y-62480714D01*
X163171428Y-62671190D02*
X163219047Y-62575952D01*
X163266666Y-62528333D01*
X163361904Y-62480714D01*
X163457142Y-62480714D01*
X163790476Y-63147380D02*
X163790476Y-62480714D01*
X163790476Y-62147380D02*
X163742857Y-62195000D01*
X163790476Y-62242619D01*
X163838095Y-62195000D01*
X163790476Y-62147380D01*
X163790476Y-62242619D01*
X164219047Y-63099761D02*
X164314285Y-63147380D01*
X164504761Y-63147380D01*
X164600000Y-63099761D01*
X164647619Y-63004523D01*
X164647619Y-62956904D01*
X164600000Y-62861666D01*
X164504761Y-62814047D01*
X164361904Y-62814047D01*
X164266666Y-62766428D01*
X164219047Y-62671190D01*
X164219047Y-62623571D01*
X164266666Y-62528333D01*
X164361904Y-62480714D01*
X164504761Y-62480714D01*
X164600000Y-62528333D01*
X166171428Y-62623571D02*
X166314285Y-62671190D01*
X166361904Y-62718809D01*
X166409523Y-62814047D01*
X166409523Y-62956904D01*
X166361904Y-63052142D01*
X166314285Y-63099761D01*
X166219047Y-63147380D01*
X165838095Y-63147380D01*
X165838095Y-62147380D01*
X166171428Y-62147380D01*
X166266666Y-62195000D01*
X166314285Y-62242619D01*
X166361904Y-62337857D01*
X166361904Y-62433095D01*
X166314285Y-62528333D01*
X166266666Y-62575952D01*
X166171428Y-62623571D01*
X165838095Y-62623571D01*
X166980952Y-63147380D02*
X166885714Y-63099761D01*
X166838095Y-63052142D01*
X166790476Y-62956904D01*
X166790476Y-62671190D01*
X166838095Y-62575952D01*
X166885714Y-62528333D01*
X166980952Y-62480714D01*
X167123809Y-62480714D01*
X167219047Y-62528333D01*
X167266666Y-62575952D01*
X167314285Y-62671190D01*
X167314285Y-62956904D01*
X167266666Y-63052142D01*
X167219047Y-63099761D01*
X167123809Y-63147380D01*
X166980952Y-63147380D01*
X167647619Y-62480714D02*
X167885714Y-63147380D01*
X168123809Y-62480714D02*
X167885714Y-63147380D01*
X167790476Y-63385476D01*
X167742857Y-63433095D01*
X167647619Y-63480714D01*
X168933333Y-63147380D02*
X168933333Y-62147380D01*
X168933333Y-63099761D02*
X168838095Y-63147380D01*
X168647619Y-63147380D01*
X168552380Y-63099761D01*
X168504761Y-63052142D01*
X168457142Y-62956904D01*
X168457142Y-62671190D01*
X168504761Y-62575952D01*
X168552380Y-62528333D01*
X168647619Y-62480714D01*
X168838095Y-62480714D01*
X168933333Y-62528333D01*
X159004761Y-63757380D02*
X159242857Y-64757380D01*
X159433333Y-64043095D01*
X159623809Y-64757380D01*
X159861904Y-63757380D01*
X160242857Y-64757380D02*
X160242857Y-64090714D01*
X160242857Y-63757380D02*
X160195238Y-63805000D01*
X160242857Y-63852619D01*
X160290476Y-63805000D01*
X160242857Y-63757380D01*
X160242857Y-63852619D01*
X160861904Y-64757380D02*
X160766666Y-64709761D01*
X160719047Y-64614523D01*
X160719047Y-63757380D01*
X161195238Y-64709761D02*
X161290476Y-64757380D01*
X161480952Y-64757380D01*
X161576190Y-64709761D01*
X161623809Y-64614523D01*
X161623809Y-64566904D01*
X161576190Y-64471666D01*
X161480952Y-64424047D01*
X161338095Y-64424047D01*
X161242857Y-64376428D01*
X161195238Y-64281190D01*
X161195238Y-64233571D01*
X161242857Y-64138333D01*
X161338095Y-64090714D01*
X161480952Y-64090714D01*
X161576190Y-64138333D01*
X162195238Y-64757380D02*
X162100000Y-64709761D01*
X162052380Y-64662142D01*
X162004761Y-64566904D01*
X162004761Y-64281190D01*
X162052380Y-64185952D01*
X162100000Y-64138333D01*
X162195238Y-64090714D01*
X162338095Y-64090714D01*
X162433333Y-64138333D01*
X162480952Y-64185952D01*
X162528571Y-64281190D01*
X162528571Y-64566904D01*
X162480952Y-64662142D01*
X162433333Y-64709761D01*
X162338095Y-64757380D01*
X162195238Y-64757380D01*
X162957142Y-64090714D02*
X162957142Y-64757380D01*
X162957142Y-64185952D02*
X163004761Y-64138333D01*
X163100000Y-64090714D01*
X163242857Y-64090714D01*
X163338095Y-64138333D01*
X163385714Y-64233571D01*
X163385714Y-64757380D01*
X164623809Y-64757380D02*
X164623809Y-63757380D01*
X165100000Y-64757380D02*
X165100000Y-63757380D01*
X165100000Y-64138333D02*
X165195238Y-64090714D01*
X165385714Y-64090714D01*
X165480952Y-64138333D01*
X165528571Y-64185952D01*
X165576190Y-64281190D01*
X165576190Y-64566904D01*
X165528571Y-64662142D01*
X165480952Y-64709761D01*
X165385714Y-64757380D01*
X165195238Y-64757380D01*
X165100000Y-64709761D01*
X165909523Y-64090714D02*
X166147619Y-64757380D01*
X166385714Y-64090714D02*
X166147619Y-64757380D01*
X166052380Y-64995476D01*
X166004761Y-65043095D01*
X165909523Y-65090714D01*
X166766666Y-64757380D02*
X166766666Y-64090714D01*
X166766666Y-63757380D02*
X166719047Y-63805000D01*
X166766666Y-63852619D01*
X166814285Y-63805000D01*
X166766666Y-63757380D01*
X166766666Y-63852619D01*
X167195238Y-64709761D02*
X167290476Y-64757380D01*
X167480952Y-64757380D01*
X167576190Y-64709761D01*
X167623809Y-64614523D01*
X167623809Y-64566904D01*
X167576190Y-64471666D01*
X167480952Y-64424047D01*
X167338095Y-64424047D01*
X167242857Y-64376428D01*
X167195238Y-64281190D01*
X167195238Y-64233571D01*
X167242857Y-64138333D01*
X167338095Y-64090714D01*
X167480952Y-64090714D01*
X167576190Y-64138333D01*
X168052380Y-64757380D02*
X168052380Y-63757380D01*
X168480952Y-64757380D02*
X168480952Y-64233571D01*
X168433333Y-64138333D01*
X168338095Y-64090714D01*
X168195238Y-64090714D01*
X168100000Y-64138333D01*
X168052380Y-64185952D01*
X169385714Y-64757380D02*
X169385714Y-64233571D01*
X169338095Y-64138333D01*
X169242857Y-64090714D01*
X169052380Y-64090714D01*
X168957142Y-64138333D01*
X169385714Y-64709761D02*
X169290476Y-64757380D01*
X169052380Y-64757380D01*
X168957142Y-64709761D01*
X168909523Y-64614523D01*
X168909523Y-64519285D01*
X168957142Y-64424047D01*
X169052380Y-64376428D01*
X169290476Y-64376428D01*
X169385714Y-64328809D01*
X169861904Y-64757380D02*
X169861904Y-63757380D01*
X169957142Y-64376428D02*
X170242857Y-64757380D01*
X170242857Y-64090714D02*
X169861904Y-64471666D01*
X171100000Y-64757380D02*
X171100000Y-64233571D01*
X171052380Y-64138333D01*
X170957142Y-64090714D01*
X170766666Y-64090714D01*
X170671428Y-64138333D01*
X171100000Y-64709761D02*
X171004761Y-64757380D01*
X170766666Y-64757380D01*
X170671428Y-64709761D01*
X170623809Y-64614523D01*
X170623809Y-64519285D01*
X170671428Y-64424047D01*
X170766666Y-64376428D01*
X171004761Y-64376428D01*
X171100000Y-64328809D01*
X160552380Y-66367380D02*
X160552380Y-65367380D01*
X161123809Y-66367380D01*
X161123809Y-65367380D01*
X161600000Y-66367380D02*
X161600000Y-65367380D01*
X162028571Y-66367380D02*
X162028571Y-65843571D01*
X161980952Y-65748333D01*
X161885714Y-65700714D01*
X161742857Y-65700714D01*
X161647619Y-65748333D01*
X161600000Y-65795952D01*
X162933333Y-66367380D02*
X162933333Y-65843571D01*
X162885714Y-65748333D01*
X162790476Y-65700714D01*
X162600000Y-65700714D01*
X162504761Y-65748333D01*
X162933333Y-66319761D02*
X162838095Y-66367380D01*
X162600000Y-66367380D01*
X162504761Y-66319761D01*
X162457142Y-66224523D01*
X162457142Y-66129285D01*
X162504761Y-66034047D01*
X162600000Y-65986428D01*
X162838095Y-65986428D01*
X162933333Y-65938809D01*
X163266666Y-65700714D02*
X163647619Y-65700714D01*
X163409523Y-65367380D02*
X163409523Y-66224523D01*
X163457142Y-66319761D01*
X163552380Y-66367380D01*
X163647619Y-66367380D01*
X164742857Y-66367380D02*
X164742857Y-65367380D01*
X165314285Y-66367380D01*
X165314285Y-65367380D01*
X166219047Y-65700714D02*
X166219047Y-66510238D01*
X166171428Y-66605476D01*
X166123809Y-66653095D01*
X166028571Y-66700714D01*
X165885714Y-66700714D01*
X165790476Y-66653095D01*
X166219047Y-66319761D02*
X166123809Y-66367380D01*
X165933333Y-66367380D01*
X165838095Y-66319761D01*
X165790476Y-66272142D01*
X165742857Y-66176904D01*
X165742857Y-65891190D01*
X165790476Y-65795952D01*
X165838095Y-65748333D01*
X165933333Y-65700714D01*
X166123809Y-65700714D01*
X166219047Y-65748333D01*
X167123809Y-65700714D02*
X167123809Y-66367380D01*
X166695238Y-65700714D02*
X166695238Y-66224523D01*
X166742857Y-66319761D01*
X166838095Y-66367380D01*
X166980952Y-66367380D01*
X167076190Y-66319761D01*
X167123809Y-66272142D01*
X167504761Y-65700714D02*
X167742857Y-66367380D01*
X167980952Y-65700714D02*
X167742857Y-66367380D01*
X167647619Y-66605476D01*
X167600000Y-66653095D01*
X167504761Y-66700714D01*
X168742857Y-66319761D02*
X168647619Y-66367380D01*
X168457142Y-66367380D01*
X168361904Y-66319761D01*
X168314285Y-66224523D01*
X168314285Y-65843571D01*
X168361904Y-65748333D01*
X168457142Y-65700714D01*
X168647619Y-65700714D01*
X168742857Y-65748333D01*
X168790476Y-65843571D01*
X168790476Y-65938809D01*
X168314285Y-66034047D01*
X169219047Y-65700714D02*
X169219047Y-66367380D01*
X169219047Y-65795952D02*
X169266666Y-65748333D01*
X169361904Y-65700714D01*
X169504761Y-65700714D01*
X169600000Y-65748333D01*
X169647619Y-65843571D01*
X169647619Y-66367380D01*
X160671428Y-67977380D02*
X160671428Y-66977380D01*
X161004761Y-67691666D01*
X161338095Y-66977380D01*
X161338095Y-67977380D01*
X162195238Y-67929761D02*
X162100000Y-67977380D01*
X161909523Y-67977380D01*
X161814285Y-67929761D01*
X161766666Y-67834523D01*
X161766666Y-67453571D01*
X161814285Y-67358333D01*
X161909523Y-67310714D01*
X162100000Y-67310714D01*
X162195238Y-67358333D01*
X162242857Y-67453571D01*
X162242857Y-67548809D01*
X161766666Y-67644047D01*
X163100000Y-67310714D02*
X163100000Y-68120238D01*
X163052380Y-68215476D01*
X163004761Y-68263095D01*
X162909523Y-68310714D01*
X162766666Y-68310714D01*
X162671428Y-68263095D01*
X163100000Y-67929761D02*
X163004761Y-67977380D01*
X162814285Y-67977380D01*
X162719047Y-67929761D01*
X162671428Y-67882142D01*
X162623809Y-67786904D01*
X162623809Y-67501190D01*
X162671428Y-67405952D01*
X162719047Y-67358333D01*
X162814285Y-67310714D01*
X163004761Y-67310714D01*
X163100000Y-67358333D01*
X164004761Y-67977380D02*
X164004761Y-67453571D01*
X163957142Y-67358333D01*
X163861904Y-67310714D01*
X163671428Y-67310714D01*
X163576190Y-67358333D01*
X164004761Y-67929761D02*
X163909523Y-67977380D01*
X163671428Y-67977380D01*
X163576190Y-67929761D01*
X163528571Y-67834523D01*
X163528571Y-67739285D01*
X163576190Y-67644047D01*
X163671428Y-67596428D01*
X163909523Y-67596428D01*
X164004761Y-67548809D01*
X164480952Y-67310714D02*
X164480952Y-67977380D01*
X164480952Y-67405952D02*
X164528571Y-67358333D01*
X164623809Y-67310714D01*
X164766666Y-67310714D01*
X164861904Y-67358333D01*
X164909523Y-67453571D01*
X164909523Y-67977380D01*
X166147619Y-67977380D02*
X166147619Y-66977380D01*
X166480952Y-67691666D01*
X166814285Y-66977380D01*
X166814285Y-67977380D01*
X167433333Y-67977380D02*
X167338095Y-67929761D01*
X167290476Y-67882142D01*
X167242857Y-67786904D01*
X167242857Y-67501190D01*
X167290476Y-67405952D01*
X167338095Y-67358333D01*
X167433333Y-67310714D01*
X167576190Y-67310714D01*
X167671428Y-67358333D01*
X167719047Y-67405952D01*
X167766666Y-67501190D01*
X167766666Y-67786904D01*
X167719047Y-67882142D01*
X167671428Y-67929761D01*
X167576190Y-67977380D01*
X167433333Y-67977380D01*
X168623809Y-67310714D02*
X168623809Y-67977380D01*
X168195238Y-67310714D02*
X168195238Y-67834523D01*
X168242857Y-67929761D01*
X168338095Y-67977380D01*
X168480952Y-67977380D01*
X168576190Y-67929761D01*
X168623809Y-67882142D01*
X169528571Y-67977380D02*
X169528571Y-67453571D01*
X169480952Y-67358333D01*
X169385714Y-67310714D01*
X169195238Y-67310714D01*
X169100000Y-67358333D01*
X169528571Y-67929761D02*
X169433333Y-67977380D01*
X169195238Y-67977380D01*
X169100000Y-67929761D01*
X169052380Y-67834523D01*
X169052380Y-67739285D01*
X169100000Y-67644047D01*
X169195238Y-67596428D01*
X169433333Y-67596428D01*
X169528571Y-67548809D01*
X157147619Y-54527380D02*
X157719047Y-54527380D01*
X157433333Y-55527380D02*
X157433333Y-54527380D01*
X158052380Y-55527380D02*
X158052380Y-54860714D01*
X158052380Y-55051190D02*
X158100000Y-54955952D01*
X158147619Y-54908333D01*
X158242857Y-54860714D01*
X158338095Y-54860714D01*
X159052380Y-55479761D02*
X158957142Y-55527380D01*
X158766666Y-55527380D01*
X158671428Y-55479761D01*
X158623809Y-55384523D01*
X158623809Y-55003571D01*
X158671428Y-54908333D01*
X158766666Y-54860714D01*
X158957142Y-54860714D01*
X159052380Y-54908333D01*
X159100000Y-55003571D01*
X159100000Y-55098809D01*
X158623809Y-55194047D01*
X159528571Y-55527380D02*
X159528571Y-54860714D01*
X159528571Y-54955952D02*
X159576190Y-54908333D01*
X159671428Y-54860714D01*
X159814285Y-54860714D01*
X159909523Y-54908333D01*
X159957142Y-55003571D01*
X159957142Y-55527380D01*
X159957142Y-55003571D02*
X160004761Y-54908333D01*
X160100000Y-54860714D01*
X160242857Y-54860714D01*
X160338095Y-54908333D01*
X160385714Y-55003571D01*
X160385714Y-55527380D01*
X161004761Y-55527380D02*
X160909523Y-55479761D01*
X160861904Y-55432142D01*
X160814285Y-55336904D01*
X160814285Y-55051190D01*
X160861904Y-54955952D01*
X160909523Y-54908333D01*
X161004761Y-54860714D01*
X161147619Y-54860714D01*
X161242857Y-54908333D01*
X161290476Y-54955952D01*
X161338095Y-55051190D01*
X161338095Y-55336904D01*
X161290476Y-55432142D01*
X161242857Y-55479761D01*
X161147619Y-55527380D01*
X161004761Y-55527380D01*
X161909523Y-55527380D02*
X161814285Y-55479761D01*
X161766666Y-55384523D01*
X161766666Y-54527380D01*
X162433333Y-55527380D02*
X162338095Y-55479761D01*
X162290476Y-55432142D01*
X162242857Y-55336904D01*
X162242857Y-55051190D01*
X162290476Y-54955952D01*
X162338095Y-54908333D01*
X162433333Y-54860714D01*
X162576190Y-54860714D01*
X162671428Y-54908333D01*
X162719047Y-54955952D01*
X162766666Y-55051190D01*
X162766666Y-55336904D01*
X162719047Y-55432142D01*
X162671428Y-55479761D01*
X162576190Y-55527380D01*
X162433333Y-55527380D01*
X164480952Y-54575000D02*
X164385714Y-54527380D01*
X164242857Y-54527380D01*
X164100000Y-54575000D01*
X164004761Y-54670238D01*
X163957142Y-54765476D01*
X163909523Y-54955952D01*
X163909523Y-55098809D01*
X163957142Y-55289285D01*
X164004761Y-55384523D01*
X164100000Y-55479761D01*
X164242857Y-55527380D01*
X164338095Y-55527380D01*
X164480952Y-55479761D01*
X164528571Y-55432142D01*
X164528571Y-55098809D01*
X164338095Y-55098809D01*
X165385714Y-54860714D02*
X165385714Y-55527380D01*
X164957142Y-54860714D02*
X164957142Y-55384523D01*
X165004761Y-55479761D01*
X165100000Y-55527380D01*
X165242857Y-55527380D01*
X165338095Y-55479761D01*
X165385714Y-55432142D01*
X165861904Y-55527380D02*
X165861904Y-54860714D01*
X165861904Y-54527380D02*
X165814285Y-54575000D01*
X165861904Y-54622619D01*
X165909523Y-54575000D01*
X165861904Y-54527380D01*
X165861904Y-54622619D01*
X166195238Y-54860714D02*
X166576190Y-54860714D01*
X166338095Y-54527380D02*
X166338095Y-55384523D01*
X166385714Y-55479761D01*
X166480952Y-55527380D01*
X166576190Y-55527380D01*
X167338095Y-55527380D02*
X167338095Y-55003571D01*
X167290476Y-54908333D01*
X167195238Y-54860714D01*
X167004761Y-54860714D01*
X166909523Y-54908333D01*
X167338095Y-55479761D02*
X167242857Y-55527380D01*
X167004761Y-55527380D01*
X166909523Y-55479761D01*
X166861904Y-55384523D01*
X166861904Y-55289285D01*
X166909523Y-55194047D01*
X167004761Y-55146428D01*
X167242857Y-55146428D01*
X167338095Y-55098809D01*
X167814285Y-55527380D02*
X167814285Y-54860714D01*
X167814285Y-55051190D02*
X167861904Y-54955952D01*
X167909523Y-54908333D01*
X168004761Y-54860714D01*
X168100000Y-54860714D01*
X169195238Y-55527380D02*
X169195238Y-54527380D01*
X169576190Y-54527380D01*
X169671428Y-54575000D01*
X169719047Y-54622619D01*
X169766666Y-54717857D01*
X169766666Y-54860714D01*
X169719047Y-54955952D01*
X169671428Y-55003571D01*
X169576190Y-55051190D01*
X169195238Y-55051190D01*
X170576190Y-55479761D02*
X170480952Y-55527380D01*
X170290476Y-55527380D01*
X170195238Y-55479761D01*
X170147619Y-55384523D01*
X170147619Y-55003571D01*
X170195238Y-54908333D01*
X170290476Y-54860714D01*
X170480952Y-54860714D01*
X170576190Y-54908333D01*
X170623809Y-55003571D01*
X170623809Y-55098809D01*
X170147619Y-55194047D01*
X171480952Y-55527380D02*
X171480952Y-54527380D01*
X171480952Y-55479761D02*
X171385714Y-55527380D01*
X171195238Y-55527380D01*
X171100000Y-55479761D01*
X171052380Y-55432142D01*
X171004761Y-55336904D01*
X171004761Y-55051190D01*
X171052380Y-54955952D01*
X171100000Y-54908333D01*
X171195238Y-54860714D01*
X171385714Y-54860714D01*
X171480952Y-54908333D01*
X172385714Y-55527380D02*
X172385714Y-55003571D01*
X172338095Y-54908333D01*
X172242857Y-54860714D01*
X172052380Y-54860714D01*
X171957142Y-54908333D01*
X172385714Y-55479761D02*
X172290476Y-55527380D01*
X172052380Y-55527380D01*
X171957142Y-55479761D01*
X171909523Y-55384523D01*
X171909523Y-55289285D01*
X171957142Y-55194047D01*
X172052380Y-55146428D01*
X172290476Y-55146428D01*
X172385714Y-55098809D01*
X173004761Y-55527380D02*
X172909523Y-55479761D01*
X172861904Y-55384523D01*
X172861904Y-54527380D01*
X159528571Y-56613571D02*
X159861904Y-56613571D01*
X160004761Y-57137380D02*
X159528571Y-57137380D01*
X159528571Y-56137380D01*
X160004761Y-56137380D01*
X160338095Y-56137380D02*
X160576190Y-57137380D01*
X160766666Y-56423095D01*
X160957142Y-57137380D01*
X161195238Y-56137380D01*
X161576190Y-56137380D02*
X161576190Y-56946904D01*
X161623809Y-57042142D01*
X161671428Y-57089761D01*
X161766666Y-57137380D01*
X161957142Y-57137380D01*
X162052380Y-57089761D01*
X162100000Y-57042142D01*
X162147619Y-56946904D01*
X162147619Y-56137380D01*
X163385714Y-57137380D02*
X163385714Y-56137380D01*
X163861904Y-56613571D02*
X164195238Y-56613571D01*
X164338095Y-57137380D02*
X163861904Y-57137380D01*
X163861904Y-56137380D01*
X164338095Y-56137380D01*
X164766666Y-56613571D02*
X165100000Y-56613571D01*
X165242857Y-57137380D02*
X164766666Y-57137380D01*
X164766666Y-56137380D01*
X165242857Y-56137380D01*
X165671428Y-56613571D02*
X166004761Y-56613571D01*
X166147619Y-57137380D02*
X165671428Y-57137380D01*
X165671428Y-56137380D01*
X166147619Y-56137380D01*
X167290476Y-56232619D02*
X167338095Y-56185000D01*
X167433333Y-56137380D01*
X167671428Y-56137380D01*
X167766666Y-56185000D01*
X167814285Y-56232619D01*
X167861904Y-56327857D01*
X167861904Y-56423095D01*
X167814285Y-56565952D01*
X167242857Y-57137380D01*
X167861904Y-57137380D01*
X168480952Y-56137380D02*
X168576190Y-56137380D01*
X168671428Y-56185000D01*
X168719047Y-56232619D01*
X168766666Y-56327857D01*
X168814285Y-56518333D01*
X168814285Y-56756428D01*
X168766666Y-56946904D01*
X168719047Y-57042142D01*
X168671428Y-57089761D01*
X168576190Y-57137380D01*
X168480952Y-57137380D01*
X168385714Y-57089761D01*
X168338095Y-57042142D01*
X168290476Y-56946904D01*
X168242857Y-56756428D01*
X168242857Y-56518333D01*
X168290476Y-56327857D01*
X168338095Y-56232619D01*
X168385714Y-56185000D01*
X168480952Y-56137380D01*
X169195238Y-56232619D02*
X169242857Y-56185000D01*
X169338095Y-56137380D01*
X169576190Y-56137380D01*
X169671428Y-56185000D01*
X169719047Y-56232619D01*
X169766666Y-56327857D01*
X169766666Y-56423095D01*
X169719047Y-56565952D01*
X169147619Y-57137380D01*
X169766666Y-57137380D01*
X170147619Y-56232619D02*
X170195238Y-56185000D01*
X170290476Y-56137380D01*
X170528571Y-56137380D01*
X170623809Y-56185000D01*
X170671428Y-56232619D01*
X170719047Y-56327857D01*
X170719047Y-56423095D01*
X170671428Y-56565952D01*
X170100000Y-57137380D01*
X170719047Y-57137380D01*
X170315238Y-109942380D02*
X170505714Y-109942380D01*
X170600952Y-109990000D01*
X170696190Y-110085238D01*
X170743809Y-110275714D01*
X170743809Y-110609047D01*
X170696190Y-110799523D01*
X170600952Y-110894761D01*
X170505714Y-110942380D01*
X170315238Y-110942380D01*
X170220000Y-110894761D01*
X170124761Y-110799523D01*
X170077142Y-110609047D01*
X170077142Y-110275714D01*
X170124761Y-110085238D01*
X170220000Y-109990000D01*
X170315238Y-109942380D01*
X171172380Y-109942380D02*
X171172380Y-110751904D01*
X171220000Y-110847142D01*
X171267619Y-110894761D01*
X171362857Y-110942380D01*
X171553333Y-110942380D01*
X171648571Y-110894761D01*
X171696190Y-110847142D01*
X171743809Y-110751904D01*
X171743809Y-109942380D01*
X172077142Y-109942380D02*
X172648571Y-109942380D01*
X172362857Y-110942380D02*
X172362857Y-109942380D01*
X172981904Y-110942380D02*
X172981904Y-109942380D01*
X173362857Y-109942380D01*
X173458095Y-109990000D01*
X173505714Y-110037619D01*
X173553333Y-110132857D01*
X173553333Y-110275714D01*
X173505714Y-110370952D01*
X173458095Y-110418571D01*
X173362857Y-110466190D01*
X172981904Y-110466190D01*
X173981904Y-109942380D02*
X173981904Y-110751904D01*
X174029523Y-110847142D01*
X174077142Y-110894761D01*
X174172380Y-110942380D01*
X174362857Y-110942380D01*
X174458095Y-110894761D01*
X174505714Y-110847142D01*
X174553333Y-110751904D01*
X174553333Y-109942380D01*
X174886666Y-109942380D02*
X175458095Y-109942380D01*
X175172380Y-110942380D02*
X175172380Y-109942380D01*
X113641428Y-110942380D02*
X113641428Y-109942380D01*
X114117619Y-110942380D02*
X114117619Y-109942380D01*
X114689047Y-110942380D01*
X114689047Y-109942380D01*
X115165238Y-110942380D02*
X115165238Y-109942380D01*
X115546190Y-109942380D01*
X115641428Y-109990000D01*
X115689047Y-110037619D01*
X115736666Y-110132857D01*
X115736666Y-110275714D01*
X115689047Y-110370952D01*
X115641428Y-110418571D01*
X115546190Y-110466190D01*
X115165238Y-110466190D01*
X116165238Y-109942380D02*
X116165238Y-110751904D01*
X116212857Y-110847142D01*
X116260476Y-110894761D01*
X116355714Y-110942380D01*
X116546190Y-110942380D01*
X116641428Y-110894761D01*
X116689047Y-110847142D01*
X116736666Y-110751904D01*
X116736666Y-109942380D01*
X117070000Y-109942380D02*
X117641428Y-109942380D01*
X117355714Y-110942380D02*
X117355714Y-109942380D01*
%TO.C,RV1*%
X152822380Y-80785238D02*
X152346190Y-81118571D01*
X152822380Y-81356666D02*
X151822380Y-81356666D01*
X151822380Y-80975714D01*
X151870000Y-80880476D01*
X151917619Y-80832857D01*
X152012857Y-80785238D01*
X152155714Y-80785238D01*
X152250952Y-80832857D01*
X152298571Y-80880476D01*
X152346190Y-80975714D01*
X152346190Y-81356666D01*
X151822380Y-80499523D02*
X152822380Y-80166190D01*
X151822380Y-79832857D01*
X152822380Y-78975714D02*
X152822380Y-79547142D01*
X152822380Y-79261428D02*
X151822380Y-79261428D01*
X151965238Y-79356666D01*
X152060476Y-79451904D01*
X152108095Y-79547142D01*
%TO.C,RV2*%
X130374128Y-69911371D02*
X130040795Y-69435181D01*
X129802700Y-69911371D02*
X129802700Y-68911371D01*
X130183652Y-68911371D01*
X130278890Y-68958991D01*
X130326509Y-69006610D01*
X130374128Y-69101848D01*
X130374128Y-69244705D01*
X130326509Y-69339943D01*
X130278890Y-69387562D01*
X130183652Y-69435181D01*
X129802700Y-69435181D01*
X130659843Y-68911371D02*
X130993176Y-69911371D01*
X131326509Y-68911371D01*
X131612224Y-69006610D02*
X131659843Y-68958991D01*
X131755081Y-68911371D01*
X131993176Y-68911371D01*
X132088414Y-68958991D01*
X132136033Y-69006610D01*
X132183652Y-69101848D01*
X132183652Y-69197086D01*
X132136033Y-69339943D01*
X131564605Y-69911371D01*
X132183652Y-69911371D01*
%TO.C,R3*%
X131913333Y-61582380D02*
X131580000Y-61106190D01*
X131341904Y-61582380D02*
X131341904Y-60582380D01*
X131722857Y-60582380D01*
X131818095Y-60630000D01*
X131865714Y-60677619D01*
X131913333Y-60772857D01*
X131913333Y-60915714D01*
X131865714Y-61010952D01*
X131818095Y-61058571D01*
X131722857Y-61106190D01*
X131341904Y-61106190D01*
X132246666Y-60582380D02*
X132865714Y-60582380D01*
X132532380Y-60963333D01*
X132675238Y-60963333D01*
X132770476Y-61010952D01*
X132818095Y-61058571D01*
X132865714Y-61153809D01*
X132865714Y-61391904D01*
X132818095Y-61487142D01*
X132770476Y-61534761D01*
X132675238Y-61582380D01*
X132389523Y-61582380D01*
X132294285Y-61534761D01*
X132246666Y-61487142D01*
%TO.C,R2*%
X143050347Y-104548720D02*
X142717014Y-104072530D01*
X142478918Y-104548720D02*
X142478918Y-103548720D01*
X142859871Y-103548720D01*
X142955109Y-103596340D01*
X143002728Y-103643959D01*
X143050347Y-103739197D01*
X143050347Y-103882054D01*
X143002728Y-103977292D01*
X142955109Y-104024911D01*
X142859871Y-104072530D01*
X142478918Y-104072530D01*
X143431299Y-103643959D02*
X143478918Y-103596340D01*
X143574156Y-103548720D01*
X143812252Y-103548720D01*
X143907490Y-103596340D01*
X143955109Y-103643959D01*
X144002728Y-103739197D01*
X144002728Y-103834435D01*
X143955109Y-103977292D01*
X143383680Y-104548720D01*
X144002728Y-104548720D01*
%TO.C,R1*%
X122978071Y-96724535D02*
X122501881Y-97057869D01*
X122978071Y-97295964D02*
X121978071Y-97295964D01*
X121978071Y-96915011D01*
X122025691Y-96819773D01*
X122073310Y-96772154D01*
X122168548Y-96724535D01*
X122311405Y-96724535D01*
X122406643Y-96772154D01*
X122454262Y-96819773D01*
X122501881Y-96915011D01*
X122501881Y-97295964D01*
X122978071Y-95772154D02*
X122978071Y-96343583D01*
X122978071Y-96057869D02*
X121978071Y-96057869D01*
X122120929Y-96153107D01*
X122216167Y-96248345D01*
X122263786Y-96343583D01*
%TO.C,U2*%
X133122781Y-102943710D02*
X133932305Y-102943710D01*
X134027543Y-102896091D01*
X134075162Y-102848472D01*
X134122781Y-102753234D01*
X134122781Y-102562758D01*
X134075162Y-102467520D01*
X134027543Y-102419901D01*
X133932305Y-102372282D01*
X133122781Y-102372282D01*
X133218020Y-101943710D02*
X133170401Y-101896091D01*
X133122781Y-101800853D01*
X133122781Y-101562758D01*
X133170401Y-101467520D01*
X133218020Y-101419901D01*
X133313258Y-101372282D01*
X133408496Y-101372282D01*
X133551353Y-101419901D01*
X134122781Y-101991329D01*
X134122781Y-101372282D01*
%TO.C,R4*%
X163036288Y-98527597D02*
X162560098Y-98860931D01*
X163036288Y-99099026D02*
X162036288Y-99099026D01*
X162036288Y-98718073D01*
X162083908Y-98622835D01*
X162131527Y-98575216D01*
X162226765Y-98527597D01*
X162369622Y-98527597D01*
X162464860Y-98575216D01*
X162512479Y-98622835D01*
X162560098Y-98718073D01*
X162560098Y-99099026D01*
X162369622Y-97670454D02*
X163036288Y-97670454D01*
X161988669Y-97908550D02*
X162702955Y-98146645D01*
X162702955Y-97527597D01*
%TO.C,J3*%
X168841666Y-126967380D02*
X168841666Y-127681666D01*
X168794047Y-127824523D01*
X168698809Y-127919761D01*
X168555952Y-127967380D01*
X168460714Y-127967380D01*
X169222619Y-126967380D02*
X169841666Y-126967380D01*
X169508333Y-127348333D01*
X169651190Y-127348333D01*
X169746428Y-127395952D01*
X169794047Y-127443571D01*
X169841666Y-127538809D01*
X169841666Y-127776904D01*
X169794047Y-127872142D01*
X169746428Y-127919761D01*
X169651190Y-127967380D01*
X169365476Y-127967380D01*
X169270238Y-127919761D01*
X169222619Y-127872142D01*
%TO.C,J2*%
X122591666Y-110697380D02*
X122591666Y-111411666D01*
X122544047Y-111554523D01*
X122448809Y-111649761D01*
X122305952Y-111697380D01*
X122210714Y-111697380D01*
X123020238Y-110792619D02*
X123067857Y-110745000D01*
X123163095Y-110697380D01*
X123401190Y-110697380D01*
X123496428Y-110745000D01*
X123544047Y-110792619D01*
X123591666Y-110887857D01*
X123591666Y-110983095D01*
X123544047Y-111125952D01*
X122972619Y-111697380D01*
X123591666Y-111697380D01*
%TO.C,J1*%
X118844869Y-62605009D02*
X118844869Y-63319295D01*
X118797250Y-63462152D01*
X118702012Y-63557390D01*
X118559155Y-63605009D01*
X118463917Y-63605009D01*
X119844869Y-63605009D02*
X119273441Y-63605009D01*
X119559155Y-63605009D02*
X119559155Y-62605009D01*
X119463917Y-62747867D01*
X119368679Y-62843105D01*
X119273441Y-62890724D01*
%TO.C,D3*%
X152931904Y-58452380D02*
X152931904Y-57452380D01*
X153170000Y-57452380D01*
X153312857Y-57500000D01*
X153408095Y-57595238D01*
X153455714Y-57690476D01*
X153503333Y-57880952D01*
X153503333Y-58023809D01*
X153455714Y-58214285D01*
X153408095Y-58309523D01*
X153312857Y-58404761D01*
X153170000Y-58452380D01*
X152931904Y-58452380D01*
X153836666Y-57452380D02*
X154455714Y-57452380D01*
X154122380Y-57833333D01*
X154265238Y-57833333D01*
X154360476Y-57880952D01*
X154408095Y-57928571D01*
X154455714Y-58023809D01*
X154455714Y-58261904D01*
X154408095Y-58357142D01*
X154360476Y-58404761D01*
X154265238Y-58452380D01*
X153979523Y-58452380D01*
X153884285Y-58404761D01*
X153836666Y-58357142D01*
%TO.C,D2*%
X142771904Y-64372380D02*
X142771904Y-63372380D01*
X143010000Y-63372380D01*
X143152857Y-63420000D01*
X143248095Y-63515238D01*
X143295714Y-63610476D01*
X143343333Y-63800952D01*
X143343333Y-63943809D01*
X143295714Y-64134285D01*
X143248095Y-64229523D01*
X143152857Y-64324761D01*
X143010000Y-64372380D01*
X142771904Y-64372380D01*
X143724285Y-63467619D02*
X143771904Y-63420000D01*
X143867142Y-63372380D01*
X144105238Y-63372380D01*
X144200476Y-63420000D01*
X144248095Y-63467619D01*
X144295714Y-63562857D01*
X144295714Y-63658095D01*
X144248095Y-63800952D01*
X143676666Y-64372380D01*
X144295714Y-64372380D01*
%TO.C,D1*%
X159255383Y-99139045D02*
X158255383Y-99139045D01*
X158255383Y-98900950D01*
X158303003Y-98758092D01*
X158398241Y-98662854D01*
X158493479Y-98615235D01*
X158683955Y-98567616D01*
X158826812Y-98567616D01*
X159017288Y-98615235D01*
X159112526Y-98662854D01*
X159207764Y-98758092D01*
X159255383Y-98900950D01*
X159255383Y-99139045D01*
X159255383Y-97615235D02*
X159255383Y-98186664D01*
X159255383Y-97900950D02*
X158255383Y-97900950D01*
X158398241Y-97996188D01*
X158493479Y-98091426D01*
X158541098Y-98186664D01*
%TO.C,C2*%
X131155006Y-98977396D02*
X131202625Y-99025015D01*
X131250244Y-99167872D01*
X131250244Y-99263110D01*
X131202625Y-99405968D01*
X131107387Y-99501206D01*
X131012149Y-99548825D01*
X130821673Y-99596444D01*
X130678816Y-99596444D01*
X130488340Y-99548825D01*
X130393102Y-99501206D01*
X130297864Y-99405968D01*
X130250244Y-99263110D01*
X130250244Y-99167872D01*
X130297864Y-99025015D01*
X130345483Y-98977396D01*
X130345483Y-98596444D02*
X130297864Y-98548825D01*
X130250244Y-98453587D01*
X130250244Y-98215491D01*
X130297864Y-98120253D01*
X130345483Y-98072634D01*
X130440721Y-98025015D01*
X130535959Y-98025015D01*
X130678816Y-98072634D01*
X131250244Y-98644063D01*
X131250244Y-98025015D01*
%TO.C,C1*%
X133446160Y-108649577D02*
X133398541Y-108697196D01*
X133255684Y-108744815D01*
X133160446Y-108744815D01*
X133017588Y-108697196D01*
X132922350Y-108601958D01*
X132874731Y-108506720D01*
X132827112Y-108316244D01*
X132827112Y-108173387D01*
X132874731Y-107982911D01*
X132922350Y-107887673D01*
X133017588Y-107792435D01*
X133160446Y-107744815D01*
X133255684Y-107744815D01*
X133398541Y-107792435D01*
X133446160Y-107840054D01*
X134398541Y-108744815D02*
X133827112Y-108744815D01*
X134112827Y-108744815D02*
X134112827Y-107744815D01*
X134017588Y-107887673D01*
X133922350Y-107982911D01*
X133827112Y-108030530D01*
D11*
%TO.C,RV1*%
X155050000Y-85360000D02*
X155050000Y-81495000D01*
X155050000Y-76985000D02*
X155050000Y-73120000D01*
X164990000Y-85360000D02*
X164990000Y-81495000D01*
X164990000Y-76985000D02*
X164990000Y-73120000D01*
X155050000Y-85360000D02*
X156649000Y-85360000D01*
X158391000Y-85360000D02*
X159150000Y-85360000D01*
X160891000Y-85360000D02*
X161650000Y-85360000D01*
X163390000Y-85360000D02*
X164990000Y-85360000D01*
X155050000Y-73120000D02*
X164990000Y-73120000D01*
%TO.C,RV2*%
X129120000Y-72344307D02*
X145363163Y-72344307D01*
X145363163Y-72344307D02*
X145363163Y-91440000D01*
X145363163Y-91440000D02*
X129120000Y-91440000D01*
X129120000Y-91440000D02*
X129120000Y-72344307D01*
X143160000Y-78740000D02*
G75*
G03*
X143160000Y-78740000I-6000000J0D01*
G01*
%TO.C,R3*%
X128810000Y-62460000D02*
X128810000Y-62130000D01*
X128810000Y-62130000D02*
X135350000Y-62130000D01*
X135350000Y-62130000D02*
X135350000Y-62460000D01*
X128810000Y-64540000D02*
X128810000Y-64870000D01*
X128810000Y-64870000D02*
X135350000Y-64870000D01*
X135350000Y-64870000D02*
X135350000Y-64540000D01*
%TO.C,R2*%
X139947014Y-105426340D02*
X139947014Y-105096340D01*
X139947014Y-105096340D02*
X146487014Y-105096340D01*
X146487014Y-105096340D02*
X146487014Y-105426340D01*
X139947014Y-107506340D02*
X139947014Y-107836340D01*
X139947014Y-107836340D02*
X146487014Y-107836340D01*
X146487014Y-107836340D02*
X146487014Y-107506340D01*
%TO.C,R1*%
X123855691Y-99827869D02*
X123525691Y-99827869D01*
X123525691Y-99827869D02*
X123525691Y-93287869D01*
X123525691Y-93287869D02*
X123855691Y-93287869D01*
X125935691Y-99827869D02*
X126265691Y-99827869D01*
X126265691Y-99827869D02*
X126265691Y-93287869D01*
X126265691Y-93287869D02*
X125935691Y-93287869D01*
%TO.C,U2*%
X139720000Y-99060000D02*
X139720000Y-97110000D01*
X139720000Y-99060000D02*
X139720000Y-101010000D01*
X134600000Y-99060000D02*
X134600000Y-97110000D01*
X134600000Y-99060000D02*
X134600000Y-102510000D01*
%TO.C,R4*%
X169885423Y-98360931D02*
G75*
G03*
X169885423Y-98360931I-3301515J0D01*
G01*
D12*
%TO.C,J3*%
X147600000Y-112380000D02*
X172600000Y-112380000D01*
X172600000Y-112380000D02*
X172600000Y-114180000D01*
X147600000Y-126380000D02*
X147600000Y-112380000D01*
X181600000Y-124580000D02*
X181600000Y-114180000D01*
X172600000Y-126380000D02*
X147600000Y-126380000D01*
X172600000Y-124580000D02*
X172600000Y-126380000D01*
X172600000Y-124580000D02*
X181600000Y-124580000D01*
X181600000Y-114180000D02*
X172600000Y-114180000D01*
D13*
X165200000Y-126880000D02*
G75*
G03*
X165200000Y-126880000I-100000J0D01*
G01*
%TO.C,J2*%
X127100000Y-111880000D02*
G75*
G03*
X127100000Y-111880000I-100000J0D01*
G01*
D12*
X110500000Y-124580000D02*
X119500000Y-124580000D01*
X119500000Y-114180000D02*
X110500000Y-114180000D01*
X119500000Y-114180000D02*
X119500000Y-112380000D01*
X119500000Y-112380000D02*
X144500000Y-112380000D01*
X110500000Y-114180000D02*
X110500000Y-124580000D01*
X144500000Y-112380000D02*
X144500000Y-126380000D01*
X119500000Y-126380000D02*
X119500000Y-124580000D01*
X144500000Y-126380000D02*
X119500000Y-126380000D01*
D11*
%TO.C,J1*%
X124288203Y-55902629D02*
X124288203Y-61962629D01*
X124288203Y-61962629D02*
X121478203Y-61962629D01*
X116878203Y-61962629D02*
X114068203Y-61962629D01*
X114068203Y-61962629D02*
X114068203Y-55902629D01*
X114068203Y-51802629D02*
X114068203Y-48742629D01*
X114068203Y-48742629D02*
X124288203Y-48742629D01*
X124288203Y-48742629D02*
X124288203Y-51802629D01*
X120178203Y-62152629D02*
X118178203Y-62152629D01*
%TO.C,D3*%
X155342335Y-59881392D02*
G75*
G03*
X152110000Y-59724484I-1672335J-1078608D01*
G01*
X152110000Y-62195516D02*
G75*
G03*
X155342335Y-62038608I1560000J1235516D01*
G01*
X154711130Y-59880163D02*
G75*
G03*
X152629039Y-59880000I-1041130J-1079837D01*
G01*
X152629039Y-62040000D02*
G75*
G03*
X154711130Y-62039837I1040961J1080000D01*
G01*
X152110000Y-59724000D02*
X152110000Y-59880000D01*
X152110000Y-62040000D02*
X152110000Y-62196000D01*
%TO.C,D2*%
X141837665Y-62038608D02*
G75*
G03*
X145070000Y-62195516I1672335J1078608D01*
G01*
X145070000Y-59724484D02*
G75*
G03*
X141837665Y-59881392I-1560000J-1235516D01*
G01*
X142468870Y-62039837D02*
G75*
G03*
X144550961Y-62040000I1041130J1079837D01*
G01*
X144550961Y-59880000D02*
G75*
G03*
X142468870Y-59880163I-1040961J-1080000D01*
G01*
X145070000Y-62196000D02*
X145070000Y-62040000D01*
X145070000Y-59880000D02*
X145070000Y-59724000D01*
%TO.C,D1*%
X156921611Y-100073285D02*
G75*
G03*
X157078519Y-96840950I-1078608J1672335D01*
G01*
X154607487Y-96840950D02*
G75*
G03*
X154764395Y-100073285I1235516J-1560000D01*
G01*
X156922840Y-99442080D02*
G75*
G03*
X156923003Y-97359989I-1079837J1041130D01*
G01*
X154763003Y-97359989D02*
G75*
G03*
X154763166Y-99442080I1080000J-1040961D01*
G01*
X157079003Y-96840950D02*
X156923003Y-96840950D01*
X154763003Y-96840950D02*
X154607003Y-96840950D01*
%TO.C,C2*%
X131731372Y-100244462D02*
X131731372Y-97004462D01*
X133971372Y-100244462D02*
X133971372Y-97004462D01*
X131731372Y-100244462D02*
X131796372Y-100244462D01*
X133906372Y-100244462D02*
X133971372Y-100244462D01*
X131731372Y-97004462D02*
X131796372Y-97004462D01*
X133906372Y-97004462D02*
X133971372Y-97004462D01*
%TO.C,C1*%
X135882827Y-107162435D02*
X131342827Y-107162435D01*
X135882827Y-105022435D02*
X131342827Y-105022435D01*
X135882827Y-107162435D02*
X135882827Y-107147435D01*
X135882827Y-105037435D02*
X135882827Y-105022435D01*
X131342827Y-107162435D02*
X131342827Y-107147435D01*
X131342827Y-105037435D02*
X131342827Y-105022435D01*
%TD*%
M02*
