%TF.GenerationSoftware,KiCad,Pcbnew,(6.0.0)*%
%TF.CreationDate,2022-01-15T15:10:37-08:00*%
%TF.ProjectId,Tremolo_V2,5472656d-6f6c-46f5-9f56-322e6b696361,rev?*%
%TF.SameCoordinates,Original*%
%TF.FileFunction,Soldermask,Bot*%
%TF.FilePolarity,Negative*%
%FSLAX46Y46*%
G04 Gerber Fmt 4.6, Leading zero omitted, Abs format (unit mm)*
G04 Created by KiCad (PCBNEW (6.0.0)) date 2022-01-15 15:10:37*
%MOMM*%
%LPD*%
G01*
G04 APERTURE LIST*
%ADD10C,1.800000*%
%ADD11C,4.000000*%
%ADD12R,3.500000X4.000000*%
%ADD13C,1.600000*%
%ADD14O,1.600000X1.600000*%
%ADD15O,3.016000X1.508000*%
%ADD16R,4.000000X2.000000*%
%ADD17O,3.300000X2.000000*%
%ADD18O,2.000000X3.500000*%
%ADD19R,1.800000X1.800000*%
G04 APERTURE END LIST*
D10*
%TO.C,RV1*%
X157520000Y-86240000D03*
X160020000Y-86240000D03*
X162520000Y-86240000D03*
D11*
X155620000Y-79240000D03*
X164420000Y-79240000D03*
%TD*%
D12*
%TO.C,RV2*%
X131660000Y-78740000D03*
X142660000Y-78740000D03*
D10*
X133410000Y-88740000D03*
X137160000Y-88740000D03*
X140910000Y-88740000D03*
%TD*%
D13*
%TO.C,R3*%
X128270000Y-63500000D03*
D14*
X135890000Y-63500000D03*
%TD*%
D13*
%TO.C,R2*%
X139407014Y-106466340D03*
D14*
X147027014Y-106466340D03*
%TD*%
D13*
%TO.C,R1*%
X124895691Y-100367869D03*
D14*
X124895691Y-92747869D03*
%TD*%
D13*
%TO.C,R4*%
X166583908Y-100060931D03*
X166583908Y-96660931D03*
%TD*%
D15*
%TO.C,J3*%
X157400000Y-116880000D03*
X165100000Y-119380000D03*
X150200000Y-116880000D03*
%TD*%
%TO.C,J2*%
X141900000Y-121880000D03*
X127000000Y-119380000D03*
X134700000Y-121880000D03*
%TD*%
D16*
%TO.C,J1*%
X119178203Y-60852629D03*
D17*
X119178203Y-54852629D03*
D18*
X123678203Y-53852629D03*
X114678203Y-53852629D03*
D13*
X119178203Y-51852629D03*
%TD*%
D19*
%TO.C,D3*%
X152400000Y-60960000D03*
D10*
X154940000Y-60960000D03*
%TD*%
D19*
%TO.C,D2*%
X144780000Y-60960000D03*
D10*
X142240000Y-60960000D03*
%TD*%
D19*
%TO.C,D1*%
X155843003Y-97130950D03*
D10*
X155843003Y-99670950D03*
%TD*%
D13*
%TO.C,C2*%
X132851372Y-99874462D03*
X132851372Y-97374462D03*
%TD*%
%TO.C,C1*%
X136112827Y-106092435D03*
X131112827Y-106092435D03*
%TD*%
M02*
