%TF.GenerationSoftware,KiCad,Pcbnew,(6.0.0)*%
%TF.CreationDate,2022-01-15T15:10:36-08:00*%
%TF.ProjectId,Tremolo_V2,5472656d-6f6c-46f5-9f56-322e6b696361,rev?*%
%TF.SameCoordinates,Original*%
%TF.FileFunction,Copper,L1,Top*%
%TF.FilePolarity,Positive*%
%FSLAX46Y46*%
G04 Gerber Fmt 4.6, Leading zero omitted, Abs format (unit mm)*
G04 Created by KiCad (PCBNEW (6.0.0)) date 2022-01-15 15:10:36*
%MOMM*%
%LPD*%
G01*
G04 APERTURE LIST*
G04 Aperture macros list*
%AMRoundRect*
0 Rectangle with rounded corners*
0 $1 Rounding radius*
0 $2 $3 $4 $5 $6 $7 $8 $9 X,Y pos of 4 corners*
0 Add a 4 corners polygon primitive as box body*
4,1,4,$2,$3,$4,$5,$6,$7,$8,$9,$2,$3,0*
0 Add four circle primitives for the rounded corners*
1,1,$1+$1,$2,$3*
1,1,$1+$1,$4,$5*
1,1,$1+$1,$6,$7*
1,1,$1+$1,$8,$9*
0 Add four rect primitives between the rounded corners*
20,1,$1+$1,$2,$3,$4,$5,0*
20,1,$1+$1,$4,$5,$6,$7,0*
20,1,$1+$1,$6,$7,$8,$9,0*
20,1,$1+$1,$8,$9,$2,$3,0*%
G04 Aperture macros list end*
%TA.AperFunction,ComponentPad*%
%ADD10C,1.800000*%
%TD*%
%TA.AperFunction,WasherPad*%
%ADD11C,4.000000*%
%TD*%
%TA.AperFunction,WasherPad*%
%ADD12R,3.500000X4.000000*%
%TD*%
%TA.AperFunction,ComponentPad*%
%ADD13C,1.600000*%
%TD*%
%TA.AperFunction,ComponentPad*%
%ADD14O,1.600000X1.600000*%
%TD*%
%TA.AperFunction,SMDPad,CuDef*%
%ADD15RoundRect,0.150000X0.150000X-0.825000X0.150000X0.825000X-0.150000X0.825000X-0.150000X-0.825000X0*%
%TD*%
%TA.AperFunction,ComponentPad*%
%ADD16O,3.016000X1.508000*%
%TD*%
%TA.AperFunction,ComponentPad*%
%ADD17R,4.000000X2.000000*%
%TD*%
%TA.AperFunction,ComponentPad*%
%ADD18O,3.300000X2.000000*%
%TD*%
%TA.AperFunction,ComponentPad*%
%ADD19O,2.000000X3.500000*%
%TD*%
%TA.AperFunction,ComponentPad*%
%ADD20R,1.800000X1.800000*%
%TD*%
%TA.AperFunction,Conductor*%
%ADD21C,0.760000*%
%TD*%
%TA.AperFunction,Conductor*%
%ADD22C,0.250000*%
%TD*%
G04 APERTURE END LIST*
D10*
%TO.P,RV1,3,3*%
%TO.N,unconnected-(RV1-Pad3)*%
X157520000Y-86240000D03*
%TO.P,RV1,2,2*%
%TO.N,Net-(J2-PadT)*%
X160020000Y-86240000D03*
%TO.P,RV1,1,1*%
%TO.N,Net-(J3-PadT)*%
X162520000Y-86240000D03*
D11*
%TO.P,RV1,*%
%TO.N,*%
X155620000Y-79240000D03*
X164420000Y-79240000D03*
%TD*%
D12*
%TO.P,RV2,*%
%TO.N,*%
X131660000Y-78740000D03*
X142660000Y-78740000D03*
D10*
%TO.P,RV2,1,1*%
%TO.N,Net-(C1-Pad1)*%
X133410000Y-88740000D03*
%TO.P,RV2,2,2*%
%TO.N,Net-(R1-Pad2)*%
X137160000Y-88740000D03*
%TO.P,RV2,3,3*%
%TO.N,unconnected-(RV2-Pad3)*%
X140910000Y-88740000D03*
%TD*%
D13*
%TO.P,R3,1*%
%TO.N,+9V*%
X128270000Y-63500000D03*
D14*
%TO.P,R3,2*%
%TO.N,Net-(D2-Pad2)*%
X135890000Y-63500000D03*
%TD*%
D13*
%TO.P,R2,1*%
%TO.N,Net-(R2-Pad1)*%
X139407014Y-106466340D03*
D14*
%TO.P,R2,2*%
%TO.N,Net-(D1-Pad2)*%
X147027014Y-106466340D03*
%TD*%
D13*
%TO.P,R1,1*%
%TO.N,+9V*%
X124895691Y-100367869D03*
D14*
%TO.P,R1,2*%
%TO.N,Net-(R1-Pad2)*%
X124895691Y-92747869D03*
%TD*%
D15*
%TO.P,U2,1,GND*%
%TO.N,GND*%
X135255000Y-101535000D03*
%TO.P,U2,2,TR*%
%TO.N,Net-(C1-Pad1)*%
X136525000Y-101535000D03*
%TO.P,U2,3,Q*%
%TO.N,Net-(R2-Pad1)*%
X137795000Y-101535000D03*
%TO.P,U2,4,R*%
%TO.N,unconnected-(U2-Pad4)*%
X139065000Y-101535000D03*
%TO.P,U2,5,CV*%
%TO.N,unconnected-(U2-Pad5)*%
X139065000Y-96585000D03*
%TO.P,U2,6,THR*%
%TO.N,Net-(C1-Pad1)*%
X137795000Y-96585000D03*
%TO.P,U2,7,DIS*%
%TO.N,Net-(R1-Pad2)*%
X136525000Y-96585000D03*
%TO.P,U2,8,VCC*%
%TO.N,+9V*%
X135255000Y-96585000D03*
%TD*%
D13*
%TO.P,R4,1*%
%TO.N,Net-(J3-PadT)*%
X166583908Y-100060931D03*
%TO.P,R4,2*%
%TO.N,GND2*%
X166583908Y-96660931D03*
%TD*%
D16*
%TO.P,J3,4*%
%TO.N,N/C*%
X157400000Y-116880000D03*
%TO.P,J3,S*%
%TO.N,GND2*%
X165100000Y-119380000D03*
%TO.P,J3,T*%
%TO.N,Net-(J3-PadT)*%
X150200000Y-116880000D03*
%TD*%
%TO.P,J2,T*%
%TO.N,Net-(J2-PadT)*%
X141900000Y-121880000D03*
%TO.P,J2,S*%
%TO.N,GND2*%
X127000000Y-119380000D03*
%TO.P,J2,4*%
%TO.N,N/C*%
X134700000Y-121880000D03*
%TD*%
D17*
%TO.P,J1,1*%
%TO.N,+9V*%
X119178203Y-60852629D03*
D18*
%TO.P,J1,2*%
%TO.N,GND*%
X119178203Y-54852629D03*
D19*
%TO.P,J1,MP*%
%TO.N,N/C*%
X123678203Y-53852629D03*
X114678203Y-53852629D03*
%TD*%
D20*
%TO.P,D3,1,K*%
%TO.N,GND*%
X152400000Y-60960000D03*
D10*
%TO.P,D3,2,A*%
%TO.N,Net-(D1-Pad2)*%
X154940000Y-60960000D03*
%TD*%
D20*
%TO.P,D2,1,K*%
%TO.N,GND*%
X144780000Y-60960000D03*
D10*
%TO.P,D2,2,A*%
%TO.N,Net-(D2-Pad2)*%
X142240000Y-60960000D03*
%TD*%
D20*
%TO.P,D1,1,K*%
%TO.N,GND*%
X155843003Y-97130950D03*
D10*
%TO.P,D1,2,A*%
%TO.N,Net-(D1-Pad2)*%
X155843003Y-99670950D03*
%TD*%
D13*
%TO.P,C2,1*%
%TO.N,GND*%
X132851372Y-99874462D03*
%TO.P,C2,2*%
%TO.N,+9V*%
X132851372Y-97374462D03*
%TD*%
%TO.P,C1,1*%
%TO.N,Net-(C1-Pad1)*%
X136112827Y-106092435D03*
%TO.P,C1,2*%
%TO.N,GND*%
X131112827Y-106092435D03*
%TD*%
D21*
%TO.N,GND2*%
X168910000Y-115570000D02*
X165100000Y-119380000D01*
X168910000Y-97790000D02*
X168910000Y-115570000D01*
X167780931Y-96660931D02*
X168910000Y-97790000D01*
X166583908Y-96660931D02*
X167780931Y-96660931D01*
X165100000Y-120650000D02*
X165100000Y-119380000D01*
X162536480Y-123213520D02*
X165100000Y-120650000D01*
X130833520Y-123213520D02*
X162536480Y-123213520D01*
X127000000Y-119380000D02*
X130833520Y-123213520D01*
%TO.N,+9V*%
X125622629Y-60852629D02*
X128270000Y-63500000D01*
X119178203Y-60852629D02*
X125622629Y-60852629D01*
X119380000Y-94852178D02*
X124895691Y-100367869D01*
X128270000Y-63500000D02*
X119380000Y-72390000D01*
X119380000Y-72390000D02*
X119380000Y-94852178D01*
%TO.N,Net-(D2-Pad2)*%
X138430000Y-60960000D02*
X135890000Y-63500000D01*
X142240000Y-60960000D02*
X138430000Y-60960000D01*
%TO.N,Net-(D1-Pad2)*%
X154570211Y-99670950D02*
X155843003Y-99670950D01*
X154940000Y-68580000D02*
X151130000Y-72390000D01*
X154940000Y-60960000D02*
X154940000Y-68580000D01*
X151130000Y-72390000D02*
X151130000Y-96230739D01*
X151130000Y-96230739D02*
X154570211Y-99670950D01*
%TO.N,Net-(J3-PadT)*%
X162520000Y-95997023D02*
X162520000Y-86240000D01*
X166583908Y-100060931D02*
X162520000Y-95997023D01*
%TO.N,Net-(J2-PadT)*%
X160020000Y-101600000D02*
X160020000Y-86240000D01*
X141900000Y-119720000D02*
X160020000Y-101600000D01*
X141900000Y-121880000D02*
X141900000Y-119720000D01*
%TO.N,Net-(J3-PadT)*%
X150200000Y-116444839D02*
X166583908Y-100060931D01*
X150200000Y-116880000D02*
X150200000Y-116444839D01*
%TO.N,Net-(D1-Pad2)*%
X149047613Y-106466340D02*
X155843003Y-99670950D01*
X147027014Y-106466340D02*
X149047613Y-106466340D01*
D22*
%TO.N,GND*%
X131112827Y-104934083D02*
X131112827Y-106092435D01*
X134511910Y-101535000D02*
X131112827Y-104934083D01*
X134511910Y-101535000D02*
X132851372Y-99874462D01*
X135255000Y-101535000D02*
X134511910Y-101535000D01*
%TO.N,+9V*%
X126962131Y-100367869D02*
X124895691Y-100367869D01*
X129955538Y-97374462D02*
X126962131Y-100367869D01*
X132851372Y-97374462D02*
X129955538Y-97374462D01*
X135190000Y-96520000D02*
X135255000Y-96585000D01*
X132851372Y-97374462D02*
X133705834Y-96520000D01*
X133705834Y-96520000D02*
X135190000Y-96520000D01*
%TO.N,Net-(R1-Pad2)*%
X133152131Y-92747869D02*
X137160000Y-88740000D01*
X124895691Y-92747869D02*
X133152131Y-92747869D01*
X136525000Y-89375000D02*
X137160000Y-88740000D01*
X136525000Y-96585000D02*
X136525000Y-89375000D01*
%TO.N,Net-(C1-Pad1)*%
X133350000Y-88680000D02*
X133410000Y-88740000D01*
X133350000Y-87630000D02*
X133350000Y-88680000D01*
X139065000Y-86995000D02*
X133985000Y-86995000D01*
X139065000Y-89535000D02*
X139065000Y-86995000D01*
X133985000Y-86995000D02*
X133350000Y-87630000D01*
X137795000Y-96585000D02*
X137795000Y-90805000D01*
X137795000Y-90805000D02*
X139065000Y-89535000D01*
%TO.N,Net-(R2-Pad1)*%
X139407014Y-105117014D02*
X139407014Y-106466340D01*
X137795000Y-103505000D02*
X139407014Y-105117014D01*
X137795000Y-101535000D02*
X137795000Y-103505000D01*
%TO.N,Net-(C1-Pad1)*%
X136525000Y-105680262D02*
X136112827Y-106092435D01*
X136525000Y-101535000D02*
X136525000Y-105680262D01*
X137795000Y-98425000D02*
X137795000Y-96585000D01*
X136525000Y-99695000D02*
X137795000Y-98425000D01*
X136525000Y-101535000D02*
X136525000Y-99695000D01*
%TD*%
%TA.AperFunction,Conductor*%
%TO.N,GND2*%
G36*
X179774121Y-48788002D02*
G01*
X179820614Y-48841658D01*
X179832000Y-48894000D01*
X179832000Y-128906000D01*
X179811998Y-128974121D01*
X179758342Y-129020614D01*
X179706000Y-129032000D01*
X112394000Y-129032000D01*
X112325879Y-129011998D01*
X112279386Y-128958342D01*
X112268000Y-128906000D01*
X112268000Y-121919816D01*
X132679022Y-121919816D01*
X132706097Y-122143549D01*
X132772364Y-122358952D01*
X132875727Y-122559216D01*
X133012921Y-122738010D01*
X133017066Y-122741781D01*
X133017069Y-122741785D01*
X133128133Y-122842845D01*
X133179608Y-122889684D01*
X133184364Y-122892667D01*
X133184366Y-122892669D01*
X133365764Y-123006460D01*
X133365768Y-123006462D01*
X133370520Y-123009443D01*
X133579622Y-123093501D01*
X133800305Y-123139202D01*
X133804918Y-123139468D01*
X133855678Y-123142395D01*
X133855682Y-123142395D01*
X133857501Y-123142500D01*
X135511177Y-123142500D01*
X135513964Y-123142251D01*
X135513970Y-123142251D01*
X135583734Y-123136024D01*
X135678473Y-123127569D01*
X135895851Y-123068101D01*
X135900909Y-123065689D01*
X135900913Y-123065687D01*
X136025084Y-123006460D01*
X136099262Y-122971079D01*
X136282278Y-122839569D01*
X136347363Y-122772407D01*
X136435210Y-122681756D01*
X136435212Y-122681753D01*
X136439113Y-122677728D01*
X136515755Y-122563673D01*
X136561683Y-122495325D01*
X136561686Y-122495319D01*
X136564809Y-122490672D01*
X136655394Y-122284314D01*
X136708005Y-122065175D01*
X136716065Y-121925393D01*
X136716387Y-121919816D01*
X139879022Y-121919816D01*
X139906097Y-122143549D01*
X139972364Y-122358952D01*
X140075727Y-122559216D01*
X140212921Y-122738010D01*
X140217066Y-122741781D01*
X140217069Y-122741785D01*
X140328133Y-122842845D01*
X140379608Y-122889684D01*
X140384364Y-122892667D01*
X140384366Y-122892669D01*
X140565764Y-123006460D01*
X140565768Y-123006462D01*
X140570520Y-123009443D01*
X140779622Y-123093501D01*
X141000305Y-123139202D01*
X141004918Y-123139468D01*
X141055678Y-123142395D01*
X141055682Y-123142395D01*
X141057501Y-123142500D01*
X142711177Y-123142500D01*
X142713964Y-123142251D01*
X142713970Y-123142251D01*
X142783734Y-123136024D01*
X142878473Y-123127569D01*
X143095851Y-123068101D01*
X143100909Y-123065689D01*
X143100913Y-123065687D01*
X143225084Y-123006460D01*
X143299262Y-122971079D01*
X143482278Y-122839569D01*
X143547363Y-122772407D01*
X143635210Y-122681756D01*
X143635212Y-122681753D01*
X143639113Y-122677728D01*
X143715755Y-122563673D01*
X143761683Y-122495325D01*
X143761686Y-122495319D01*
X143764809Y-122490672D01*
X143855394Y-122284314D01*
X143908005Y-122065175D01*
X143916065Y-121925393D01*
X143920655Y-121845791D01*
X143920655Y-121845788D01*
X143920978Y-121840184D01*
X143893903Y-121616451D01*
X143827636Y-121401048D01*
X143724273Y-121200784D01*
X143587079Y-121021990D01*
X143582934Y-121018219D01*
X143582931Y-121018215D01*
X143424545Y-120874095D01*
X143420392Y-120870316D01*
X143415634Y-120867331D01*
X143234236Y-120753540D01*
X143234232Y-120753538D01*
X143229480Y-120750557D01*
X143020378Y-120666499D01*
X142888948Y-120639281D01*
X142826300Y-120605882D01*
X142791653Y-120543913D01*
X142788500Y-120515900D01*
X142788500Y-120140218D01*
X142808502Y-120072097D01*
X142825405Y-120051123D01*
X143228592Y-119647936D01*
X163108053Y-119647936D01*
X163108238Y-119648809D01*
X163171179Y-119853401D01*
X163175400Y-119863746D01*
X163273580Y-120053966D01*
X163279565Y-120063397D01*
X163409875Y-120233219D01*
X163417439Y-120241445D01*
X163575759Y-120385505D01*
X163584670Y-120392268D01*
X163765992Y-120506012D01*
X163775958Y-120511089D01*
X163974562Y-120590927D01*
X163985259Y-120594157D01*
X164195840Y-120637767D01*
X164204975Y-120638970D01*
X164255706Y-120641895D01*
X164259353Y-120642000D01*
X164827885Y-120642000D01*
X164843124Y-120637525D01*
X164844329Y-120636135D01*
X164846000Y-120628452D01*
X164846000Y-120623885D01*
X165354000Y-120623885D01*
X165358475Y-120639124D01*
X165359865Y-120640329D01*
X165367548Y-120642000D01*
X165908353Y-120642000D01*
X165913948Y-120641751D01*
X166072789Y-120627574D01*
X166083803Y-120625592D01*
X166290265Y-120569111D01*
X166300738Y-120565217D01*
X166493940Y-120473064D01*
X166503569Y-120467369D01*
X166677390Y-120342466D01*
X166685855Y-120335159D01*
X166834813Y-120181445D01*
X166841856Y-120172748D01*
X166961238Y-119995091D01*
X166966624Y-119985293D01*
X167052663Y-119789291D01*
X167056228Y-119778699D01*
X167086738Y-119651615D01*
X167086033Y-119637530D01*
X167077154Y-119634000D01*
X165372115Y-119634000D01*
X165356876Y-119638475D01*
X165355671Y-119639865D01*
X165354000Y-119647548D01*
X165354000Y-120623885D01*
X164846000Y-120623885D01*
X164846000Y-119652115D01*
X164841525Y-119636876D01*
X164840135Y-119635671D01*
X164832452Y-119634000D01*
X163123560Y-119634000D01*
X163109578Y-119638105D01*
X163108053Y-119647936D01*
X143228592Y-119647936D01*
X143768143Y-119108385D01*
X163113262Y-119108385D01*
X163113967Y-119122470D01*
X163122846Y-119126000D01*
X164827885Y-119126000D01*
X164843124Y-119121525D01*
X164844329Y-119120135D01*
X164846000Y-119112452D01*
X164846000Y-119107885D01*
X165354000Y-119107885D01*
X165358475Y-119123124D01*
X165359865Y-119124329D01*
X165367548Y-119126000D01*
X167076440Y-119126000D01*
X167090422Y-119121895D01*
X167091947Y-119112064D01*
X167091762Y-119111191D01*
X167028821Y-118906599D01*
X167024600Y-118896254D01*
X166926420Y-118706034D01*
X166920435Y-118696603D01*
X166790125Y-118526781D01*
X166782561Y-118518555D01*
X166624241Y-118374495D01*
X166615330Y-118367732D01*
X166434008Y-118253988D01*
X166424042Y-118248911D01*
X166225438Y-118169073D01*
X166214741Y-118165843D01*
X166004160Y-118122233D01*
X165995025Y-118121030D01*
X165944294Y-118118105D01*
X165940647Y-118118000D01*
X165372115Y-118118000D01*
X165356876Y-118122475D01*
X165355671Y-118123865D01*
X165354000Y-118131548D01*
X165354000Y-119107885D01*
X164846000Y-119107885D01*
X164846000Y-118136115D01*
X164841525Y-118120876D01*
X164840135Y-118119671D01*
X164832452Y-118118000D01*
X164291647Y-118118000D01*
X164286052Y-118118249D01*
X164127211Y-118132426D01*
X164116197Y-118134408D01*
X163909735Y-118190889D01*
X163899262Y-118194783D01*
X163706060Y-118286936D01*
X163696431Y-118292631D01*
X163522610Y-118417534D01*
X163514145Y-118424841D01*
X163365187Y-118578555D01*
X163358144Y-118587252D01*
X163238762Y-118764909D01*
X163233376Y-118774707D01*
X163147337Y-118970709D01*
X163143772Y-118981301D01*
X163113262Y-119108385D01*
X143768143Y-119108385D01*
X160591807Y-102284722D01*
X160606841Y-102271881D01*
X160612458Y-102267800D01*
X160617797Y-102263921D01*
X160662514Y-102214258D01*
X160667055Y-102209474D01*
X160681190Y-102195339D01*
X160683264Y-102192778D01*
X160683272Y-102192769D01*
X160693777Y-102179797D01*
X160698057Y-102174786D01*
X160738349Y-102130036D01*
X160738352Y-102130032D01*
X160742771Y-102125124D01*
X160746075Y-102119402D01*
X160749546Y-102113391D01*
X160760738Y-102097106D01*
X160765110Y-102091707D01*
X160765114Y-102091701D01*
X160769263Y-102086577D01*
X160799600Y-102027038D01*
X160802747Y-102021242D01*
X160804877Y-102017553D01*
X160836156Y-101963376D01*
X160838197Y-101957095D01*
X160838199Y-101957090D01*
X160840342Y-101950494D01*
X160847906Y-101932233D01*
X160851056Y-101926051D01*
X160851058Y-101926047D01*
X160854055Y-101920164D01*
X160855764Y-101913785D01*
X160855767Y-101913778D01*
X160871355Y-101855605D01*
X160873228Y-101849282D01*
X160891830Y-101792029D01*
X160891830Y-101792028D01*
X160893871Y-101785747D01*
X160895286Y-101772284D01*
X160898890Y-101752836D01*
X160900687Y-101746130D01*
X160902395Y-101739757D01*
X160905481Y-101680888D01*
X160905892Y-101673036D01*
X160906409Y-101666462D01*
X160908156Y-101649837D01*
X160908156Y-101649835D01*
X160908500Y-101646563D01*
X160908500Y-101626562D01*
X160908673Y-101619967D01*
X160911825Y-101559834D01*
X160911825Y-101559830D01*
X160912170Y-101553243D01*
X160910051Y-101539863D01*
X160908500Y-101520154D01*
X160908500Y-87395474D01*
X160928502Y-87327353D01*
X160945560Y-87306223D01*
X160946829Y-87304959D01*
X161096303Y-87156005D01*
X161165370Y-87059888D01*
X161221365Y-87016240D01*
X161292068Y-87009794D01*
X161355033Y-87042597D01*
X161375128Y-87067584D01*
X161376799Y-87070311D01*
X161376804Y-87070317D01*
X161379501Y-87074719D01*
X161531147Y-87249784D01*
X161535122Y-87253084D01*
X161535125Y-87253087D01*
X161585985Y-87295312D01*
X161625620Y-87354215D01*
X161631500Y-87392256D01*
X161631500Y-95917183D01*
X161629949Y-95936893D01*
X161627831Y-95950266D01*
X161628176Y-95956854D01*
X161628176Y-95956858D01*
X161631327Y-96016980D01*
X161631500Y-96023574D01*
X161631500Y-96043586D01*
X161631845Y-96046871D01*
X161631846Y-96046884D01*
X161633592Y-96063491D01*
X161634110Y-96070074D01*
X161637171Y-96128490D01*
X161637605Y-96136781D01*
X161641110Y-96149860D01*
X161644714Y-96169306D01*
X161646129Y-96182770D01*
X161666779Y-96246325D01*
X161668646Y-96252626D01*
X161685945Y-96317187D01*
X161688942Y-96323069D01*
X161692094Y-96329256D01*
X161699658Y-96347517D01*
X161701801Y-96354113D01*
X161701803Y-96354118D01*
X161703844Y-96360399D01*
X161728453Y-96403023D01*
X161737253Y-96418265D01*
X161740400Y-96424061D01*
X161747713Y-96438412D01*
X161770737Y-96483600D01*
X161778847Y-96493614D01*
X161779256Y-96494120D01*
X161790457Y-96510418D01*
X161793926Y-96516427D01*
X161793929Y-96516431D01*
X161797229Y-96522147D01*
X161801644Y-96527051D01*
X161801646Y-96527053D01*
X161841954Y-96571819D01*
X161846233Y-96576829D01*
X161858811Y-96592362D01*
X161872936Y-96606487D01*
X161877477Y-96611271D01*
X161917262Y-96655456D01*
X161922203Y-96660944D01*
X161933169Y-96668911D01*
X161948197Y-96681748D01*
X165233984Y-99967536D01*
X165268010Y-100029848D01*
X165270832Y-100056104D01*
X165270410Y-100060931D01*
X165270810Y-100065502D01*
X165250887Y-100133353D01*
X165233984Y-100154327D01*
X149807716Y-115580595D01*
X149745404Y-115614621D01*
X149718621Y-115617500D01*
X149388823Y-115617500D01*
X149386036Y-115617749D01*
X149386030Y-115617749D01*
X149316266Y-115623976D01*
X149221527Y-115632431D01*
X149004149Y-115691899D01*
X148999091Y-115694311D01*
X148999087Y-115694313D01*
X148902443Y-115740410D01*
X148800738Y-115788921D01*
X148617722Y-115920431D01*
X148613815Y-115924463D01*
X148522963Y-116018215D01*
X148460887Y-116082272D01*
X148457760Y-116086926D01*
X148338317Y-116264675D01*
X148338314Y-116264681D01*
X148335191Y-116269328D01*
X148244606Y-116475686D01*
X148191995Y-116694825D01*
X148191672Y-116700430D01*
X148183614Y-116840184D01*
X148179022Y-116919816D01*
X148206097Y-117143549D01*
X148272364Y-117358952D01*
X148375727Y-117559216D01*
X148512921Y-117738010D01*
X148517066Y-117741781D01*
X148517069Y-117741785D01*
X148628133Y-117842845D01*
X148679608Y-117889684D01*
X148684364Y-117892667D01*
X148684366Y-117892669D01*
X148865764Y-118006460D01*
X148865768Y-118006462D01*
X148870520Y-118009443D01*
X149079622Y-118093501D01*
X149300305Y-118139202D01*
X149304918Y-118139468D01*
X149355678Y-118142395D01*
X149355682Y-118142395D01*
X149357501Y-118142500D01*
X151011177Y-118142500D01*
X151013964Y-118142251D01*
X151013970Y-118142251D01*
X151083734Y-118136024D01*
X151178473Y-118127569D01*
X151395851Y-118068101D01*
X151400909Y-118065689D01*
X151400913Y-118065687D01*
X151525084Y-118006460D01*
X151599262Y-117971079D01*
X151782278Y-117839569D01*
X151847363Y-117772407D01*
X151935210Y-117681756D01*
X151935212Y-117681753D01*
X151939113Y-117677728D01*
X152015755Y-117563673D01*
X152061683Y-117495325D01*
X152061686Y-117495319D01*
X152064809Y-117490672D01*
X152155394Y-117284314D01*
X152208005Y-117065175D01*
X152216065Y-116925393D01*
X152216387Y-116919816D01*
X155379022Y-116919816D01*
X155406097Y-117143549D01*
X155472364Y-117358952D01*
X155575727Y-117559216D01*
X155712921Y-117738010D01*
X155717066Y-117741781D01*
X155717069Y-117741785D01*
X155828133Y-117842845D01*
X155879608Y-117889684D01*
X155884364Y-117892667D01*
X155884366Y-117892669D01*
X156065764Y-118006460D01*
X156065768Y-118006462D01*
X156070520Y-118009443D01*
X156279622Y-118093501D01*
X156500305Y-118139202D01*
X156504918Y-118139468D01*
X156555678Y-118142395D01*
X156555682Y-118142395D01*
X156557501Y-118142500D01*
X158211177Y-118142500D01*
X158213964Y-118142251D01*
X158213970Y-118142251D01*
X158283734Y-118136024D01*
X158378473Y-118127569D01*
X158595851Y-118068101D01*
X158600909Y-118065689D01*
X158600913Y-118065687D01*
X158725084Y-118006460D01*
X158799262Y-117971079D01*
X158982278Y-117839569D01*
X159047363Y-117772407D01*
X159135210Y-117681756D01*
X159135212Y-117681753D01*
X159139113Y-117677728D01*
X159215755Y-117563673D01*
X159261683Y-117495325D01*
X159261686Y-117495319D01*
X159264809Y-117490672D01*
X159355394Y-117284314D01*
X159408005Y-117065175D01*
X159416065Y-116925393D01*
X159420655Y-116845791D01*
X159420655Y-116845788D01*
X159420978Y-116840184D01*
X159393903Y-116616451D01*
X159327636Y-116401048D01*
X159224273Y-116200784D01*
X159087079Y-116021990D01*
X159082934Y-116018219D01*
X159082931Y-116018215D01*
X158924545Y-115874095D01*
X158920392Y-115870316D01*
X158915634Y-115867331D01*
X158734236Y-115753540D01*
X158734232Y-115753538D01*
X158729480Y-115750557D01*
X158520378Y-115666499D01*
X158299695Y-115620798D01*
X158295082Y-115620532D01*
X158244322Y-115617605D01*
X158244318Y-115617605D01*
X158242499Y-115617500D01*
X156588823Y-115617500D01*
X156586036Y-115617749D01*
X156586030Y-115617749D01*
X156516266Y-115623976D01*
X156421527Y-115632431D01*
X156204149Y-115691899D01*
X156199091Y-115694311D01*
X156199087Y-115694313D01*
X156102443Y-115740410D01*
X156000738Y-115788921D01*
X155817722Y-115920431D01*
X155813815Y-115924463D01*
X155722963Y-116018215D01*
X155660887Y-116082272D01*
X155657760Y-116086926D01*
X155538317Y-116264675D01*
X155538314Y-116264681D01*
X155535191Y-116269328D01*
X155444606Y-116475686D01*
X155391995Y-116694825D01*
X155391672Y-116700430D01*
X155383614Y-116840184D01*
X155379022Y-116919816D01*
X152216387Y-116919816D01*
X152220655Y-116845791D01*
X152220655Y-116845788D01*
X152220978Y-116840184D01*
X152193903Y-116616451D01*
X152127636Y-116401048D01*
X152024273Y-116200784D01*
X151951002Y-116105295D01*
X151925402Y-116039075D01*
X151939667Y-115969526D01*
X151961870Y-115939497D01*
X166490512Y-101410855D01*
X166552824Y-101376829D01*
X166579080Y-101374007D01*
X166583908Y-101374429D01*
X166811995Y-101354474D01*
X166817308Y-101353050D01*
X166817310Y-101353050D01*
X167027841Y-101296638D01*
X167027843Y-101296637D01*
X167033151Y-101295215D01*
X167134615Y-101247902D01*
X167235670Y-101200780D01*
X167235675Y-101200777D01*
X167240657Y-101198454D01*
X167372091Y-101106423D01*
X167423697Y-101070288D01*
X167423700Y-101070286D01*
X167428208Y-101067129D01*
X167590106Y-100905231D01*
X167604314Y-100884941D01*
X167701041Y-100746800D01*
X167721431Y-100717680D01*
X167723754Y-100712698D01*
X167723757Y-100712693D01*
X167815869Y-100515156D01*
X167815869Y-100515155D01*
X167818192Y-100510174D01*
X167869580Y-100318395D01*
X167876027Y-100294333D01*
X167876027Y-100294331D01*
X167877451Y-100289018D01*
X167897406Y-100060931D01*
X167877451Y-99832844D01*
X167833173Y-99667596D01*
X167819615Y-99616998D01*
X167819614Y-99616996D01*
X167818192Y-99611688D01*
X167815869Y-99606706D01*
X167723757Y-99409169D01*
X167723754Y-99409164D01*
X167721431Y-99404182D01*
X167633371Y-99278419D01*
X167593265Y-99221142D01*
X167593263Y-99221139D01*
X167590106Y-99216631D01*
X167428208Y-99054733D01*
X167423700Y-99051576D01*
X167423697Y-99051574D01*
X167248153Y-98928657D01*
X167240657Y-98923408D01*
X167235675Y-98921085D01*
X167235670Y-98921082D01*
X167038133Y-98828970D01*
X167038132Y-98828970D01*
X167033151Y-98826647D01*
X167027843Y-98825225D01*
X167027841Y-98825224D01*
X166817310Y-98768812D01*
X166817308Y-98768812D01*
X166811995Y-98767388D01*
X166583908Y-98747433D01*
X166579338Y-98747833D01*
X166511487Y-98727910D01*
X166490513Y-98711007D01*
X165775009Y-97995503D01*
X165740983Y-97933191D01*
X165746048Y-97862376D01*
X165788595Y-97805540D01*
X165855115Y-97780729D01*
X165927105Y-97797290D01*
X165932389Y-97800341D01*
X166129855Y-97892421D01*
X166140147Y-97896167D01*
X166350596Y-97952556D01*
X166361389Y-97954459D01*
X166578433Y-97973448D01*
X166589383Y-97973448D01*
X166806427Y-97954459D01*
X166817220Y-97952556D01*
X167027669Y-97896167D01*
X167037961Y-97892421D01*
X167235419Y-97800345D01*
X167244914Y-97794862D01*
X167296956Y-97758422D01*
X167305332Y-97747943D01*
X167298264Y-97734497D01*
X166225830Y-96662063D01*
X166948316Y-96662063D01*
X166948447Y-96663896D01*
X166952698Y-96670511D01*
X167658195Y-97376008D01*
X167669970Y-97382438D01*
X167681985Y-97373142D01*
X167717839Y-97321937D01*
X167723322Y-97312442D01*
X167815398Y-97114984D01*
X167819144Y-97104692D01*
X167875533Y-96894243D01*
X167877436Y-96883450D01*
X167896425Y-96666406D01*
X167896425Y-96655456D01*
X167877436Y-96438412D01*
X167875533Y-96427619D01*
X167819144Y-96217170D01*
X167815398Y-96206878D01*
X167723322Y-96009420D01*
X167717839Y-95999925D01*
X167681399Y-95947883D01*
X167670920Y-95939507D01*
X167657474Y-95946575D01*
X166955930Y-96648119D01*
X166948316Y-96662063D01*
X166225830Y-96662063D01*
X165509621Y-95945854D01*
X165497846Y-95939424D01*
X165485831Y-95948720D01*
X165449977Y-95999925D01*
X165444494Y-96009420D01*
X165352418Y-96206878D01*
X165348672Y-96217170D01*
X165292283Y-96427619D01*
X165290380Y-96438412D01*
X165271391Y-96655456D01*
X165271391Y-96666406D01*
X165290380Y-96883450D01*
X165292283Y-96894243D01*
X165348672Y-97104692D01*
X165352418Y-97114984D01*
X165444497Y-97312447D01*
X165447552Y-97317739D01*
X165464288Y-97386735D01*
X165441065Y-97453826D01*
X165385257Y-97497712D01*
X165314582Y-97504458D01*
X165249337Y-97469832D01*
X163445405Y-95665900D01*
X163411379Y-95603588D01*
X163408500Y-95576805D01*
X163408500Y-95573919D01*
X165862484Y-95573919D01*
X165869552Y-95587365D01*
X166571096Y-96288909D01*
X166585040Y-96296523D01*
X166586873Y-96296392D01*
X166593488Y-96292141D01*
X167298985Y-95586644D01*
X167305415Y-95574869D01*
X167296119Y-95562854D01*
X167244914Y-95527000D01*
X167235419Y-95521517D01*
X167037961Y-95429441D01*
X167027669Y-95425695D01*
X166817220Y-95369306D01*
X166806427Y-95367403D01*
X166589383Y-95348414D01*
X166578433Y-95348414D01*
X166361389Y-95367403D01*
X166350596Y-95369306D01*
X166140147Y-95425695D01*
X166129855Y-95429441D01*
X165932397Y-95521517D01*
X165922902Y-95527000D01*
X165870860Y-95563440D01*
X165862484Y-95573919D01*
X163408500Y-95573919D01*
X163408500Y-87395474D01*
X163428502Y-87327353D01*
X163445560Y-87306223D01*
X163446829Y-87304959D01*
X163596303Y-87156005D01*
X163731458Y-86967917D01*
X163745609Y-86939286D01*
X163831784Y-86764922D01*
X163831785Y-86764920D01*
X163834078Y-86760280D01*
X163901408Y-86538671D01*
X163931640Y-86309041D01*
X163933327Y-86240000D01*
X163927032Y-86163434D01*
X163914773Y-86014318D01*
X163914772Y-86014312D01*
X163914349Y-86009167D01*
X163857925Y-85784533D01*
X163855866Y-85779797D01*
X163767630Y-85576868D01*
X163767628Y-85576865D01*
X163765570Y-85572131D01*
X163639764Y-85377665D01*
X163483887Y-85206358D01*
X163479836Y-85203159D01*
X163479832Y-85203155D01*
X163306177Y-85066011D01*
X163306172Y-85066008D01*
X163302123Y-85062810D01*
X163297607Y-85060317D01*
X163297604Y-85060315D01*
X163103879Y-84953373D01*
X163103875Y-84953371D01*
X163099355Y-84950876D01*
X163094486Y-84949152D01*
X163094482Y-84949150D01*
X162885903Y-84875288D01*
X162885899Y-84875287D01*
X162881028Y-84873562D01*
X162875935Y-84872655D01*
X162875932Y-84872654D01*
X162658095Y-84833851D01*
X162658089Y-84833850D01*
X162653006Y-84832945D01*
X162580096Y-84832054D01*
X162426581Y-84830179D01*
X162426579Y-84830179D01*
X162421411Y-84830116D01*
X162192464Y-84865150D01*
X161972314Y-84937106D01*
X161967726Y-84939494D01*
X161967722Y-84939496D01*
X161941065Y-84953373D01*
X161766872Y-85044052D01*
X161762739Y-85047155D01*
X161762736Y-85047157D01*
X161737625Y-85066011D01*
X161581655Y-85183117D01*
X161421639Y-85350564D01*
X161374836Y-85419174D01*
X161319927Y-85464175D01*
X161249402Y-85472346D01*
X161185655Y-85441092D01*
X161164959Y-85416609D01*
X161142577Y-85382013D01*
X161142574Y-85382009D01*
X161139764Y-85377665D01*
X160983887Y-85206358D01*
X160979836Y-85203159D01*
X160979832Y-85203155D01*
X160806177Y-85066011D01*
X160806172Y-85066008D01*
X160802123Y-85062810D01*
X160797607Y-85060317D01*
X160797604Y-85060315D01*
X160603879Y-84953373D01*
X160603875Y-84953371D01*
X160599355Y-84950876D01*
X160594486Y-84949152D01*
X160594482Y-84949150D01*
X160385903Y-84875288D01*
X160385899Y-84875287D01*
X160381028Y-84873562D01*
X160375935Y-84872655D01*
X160375932Y-84872654D01*
X160158095Y-84833851D01*
X160158089Y-84833850D01*
X160153006Y-84832945D01*
X160080096Y-84832054D01*
X159926581Y-84830179D01*
X159926579Y-84830179D01*
X159921411Y-84830116D01*
X159692464Y-84865150D01*
X159472314Y-84937106D01*
X159467726Y-84939494D01*
X159467722Y-84939496D01*
X159441065Y-84953373D01*
X159266872Y-85044052D01*
X159262739Y-85047155D01*
X159262736Y-85047157D01*
X159237625Y-85066011D01*
X159081655Y-85183117D01*
X158921639Y-85350564D01*
X158874836Y-85419174D01*
X158819927Y-85464175D01*
X158749402Y-85472346D01*
X158685655Y-85441092D01*
X158664959Y-85416609D01*
X158642577Y-85382013D01*
X158642574Y-85382009D01*
X158639764Y-85377665D01*
X158483887Y-85206358D01*
X158479836Y-85203159D01*
X158479832Y-85203155D01*
X158306177Y-85066011D01*
X158306172Y-85066008D01*
X158302123Y-85062810D01*
X158297607Y-85060317D01*
X158297604Y-85060315D01*
X158103879Y-84953373D01*
X158103875Y-84953371D01*
X158099355Y-84950876D01*
X158094486Y-84949152D01*
X158094482Y-84949150D01*
X157885903Y-84875288D01*
X157885899Y-84875287D01*
X157881028Y-84873562D01*
X157875935Y-84872655D01*
X157875932Y-84872654D01*
X157658095Y-84833851D01*
X157658089Y-84833850D01*
X157653006Y-84832945D01*
X157580096Y-84832054D01*
X157426581Y-84830179D01*
X157426579Y-84830179D01*
X157421411Y-84830116D01*
X157192464Y-84865150D01*
X156972314Y-84937106D01*
X156967726Y-84939494D01*
X156967722Y-84939496D01*
X156941065Y-84953373D01*
X156766872Y-85044052D01*
X156762739Y-85047155D01*
X156762736Y-85047157D01*
X156737625Y-85066011D01*
X156581655Y-85183117D01*
X156421639Y-85350564D01*
X156418730Y-85354829D01*
X156418724Y-85354837D01*
X156403152Y-85377665D01*
X156291119Y-85541899D01*
X156193602Y-85751981D01*
X156131707Y-85975169D01*
X156107095Y-86205469D01*
X156107392Y-86210622D01*
X156107392Y-86210625D01*
X156118701Y-86406770D01*
X156120427Y-86436697D01*
X156121564Y-86441743D01*
X156121565Y-86441749D01*
X156147740Y-86557893D01*
X156171346Y-86662642D01*
X156173288Y-86667424D01*
X156173289Y-86667428D01*
X156256540Y-86872450D01*
X156258484Y-86877237D01*
X156379501Y-87074719D01*
X156531147Y-87249784D01*
X156669164Y-87364368D01*
X156702756Y-87392256D01*
X156709349Y-87397730D01*
X156909322Y-87514584D01*
X156914147Y-87516426D01*
X156914148Y-87516427D01*
X156964595Y-87535691D01*
X157125694Y-87597209D01*
X157130760Y-87598240D01*
X157130761Y-87598240D01*
X157183846Y-87609040D01*
X157352656Y-87643385D01*
X157483324Y-87648176D01*
X157578949Y-87651683D01*
X157578953Y-87651683D01*
X157584113Y-87651872D01*
X157589233Y-87651216D01*
X157589235Y-87651216D01*
X157662270Y-87641860D01*
X157813847Y-87622442D01*
X157818795Y-87620957D01*
X157818802Y-87620956D01*
X158030747Y-87557369D01*
X158035690Y-87555886D01*
X158040324Y-87553616D01*
X158239049Y-87456262D01*
X158239052Y-87456260D01*
X158243684Y-87453991D01*
X158432243Y-87319494D01*
X158596303Y-87156005D01*
X158665370Y-87059888D01*
X158721365Y-87016240D01*
X158792068Y-87009794D01*
X158855033Y-87042597D01*
X158875128Y-87067584D01*
X158876799Y-87070311D01*
X158876804Y-87070317D01*
X158879501Y-87074719D01*
X159031147Y-87249784D01*
X159035122Y-87253084D01*
X159035125Y-87253087D01*
X159085985Y-87295312D01*
X159125620Y-87354215D01*
X159131500Y-87392256D01*
X159131500Y-101179781D01*
X159111498Y-101247902D01*
X159094595Y-101268876D01*
X141328197Y-119035275D01*
X141313169Y-119048112D01*
X141302203Y-119056079D01*
X141297790Y-119060981D01*
X141297788Y-119060982D01*
X141257477Y-119105752D01*
X141252936Y-119110536D01*
X141238811Y-119124661D01*
X141226238Y-119140188D01*
X141221954Y-119145204D01*
X141177229Y-119194876D01*
X141173929Y-119200592D01*
X141173926Y-119200596D01*
X141170457Y-119206605D01*
X141159256Y-119222903D01*
X141150737Y-119233423D01*
X141147742Y-119239301D01*
X141147740Y-119239304D01*
X141120400Y-119292962D01*
X141117253Y-119298758D01*
X141083844Y-119356624D01*
X141081803Y-119362905D01*
X141081801Y-119362910D01*
X141079658Y-119369506D01*
X141072094Y-119387767D01*
X141065945Y-119399836D01*
X141064238Y-119406208D01*
X141048648Y-119464390D01*
X141046779Y-119470698D01*
X141026129Y-119534253D01*
X141025439Y-119540818D01*
X141024714Y-119547716D01*
X141021111Y-119567157D01*
X141017605Y-119580242D01*
X141017260Y-119586831D01*
X141017259Y-119586836D01*
X141014110Y-119646949D01*
X141013592Y-119653532D01*
X141011846Y-119670139D01*
X141011845Y-119670152D01*
X141011500Y-119673437D01*
X141011500Y-119693449D01*
X141011327Y-119700043D01*
X141007831Y-119766757D01*
X141008863Y-119773273D01*
X141009949Y-119780129D01*
X141011500Y-119799840D01*
X141011500Y-120511657D01*
X140991498Y-120579778D01*
X140937842Y-120626271D01*
X140918748Y-120633191D01*
X140821009Y-120659930D01*
X140704149Y-120691899D01*
X140699091Y-120694311D01*
X140699087Y-120694313D01*
X140602443Y-120740410D01*
X140500738Y-120788921D01*
X140317722Y-120920431D01*
X140313815Y-120924463D01*
X140222963Y-121018215D01*
X140160887Y-121082272D01*
X140157760Y-121086926D01*
X140038317Y-121264675D01*
X140038314Y-121264681D01*
X140035191Y-121269328D01*
X139944606Y-121475686D01*
X139891995Y-121694825D01*
X139891672Y-121700430D01*
X139883614Y-121840184D01*
X139879022Y-121919816D01*
X136716387Y-121919816D01*
X136720655Y-121845791D01*
X136720655Y-121845788D01*
X136720978Y-121840184D01*
X136693903Y-121616451D01*
X136627636Y-121401048D01*
X136524273Y-121200784D01*
X136387079Y-121021990D01*
X136382934Y-121018219D01*
X136382931Y-121018215D01*
X136224545Y-120874095D01*
X136220392Y-120870316D01*
X136215634Y-120867331D01*
X136034236Y-120753540D01*
X136034232Y-120753538D01*
X136029480Y-120750557D01*
X135820378Y-120666499D01*
X135599695Y-120620798D01*
X135588492Y-120620152D01*
X135544322Y-120617605D01*
X135544318Y-120617605D01*
X135542499Y-120617500D01*
X133888823Y-120617500D01*
X133886036Y-120617749D01*
X133886030Y-120617749D01*
X133817282Y-120623885D01*
X133721527Y-120632431D01*
X133504149Y-120691899D01*
X133499091Y-120694311D01*
X133499087Y-120694313D01*
X133402443Y-120740410D01*
X133300738Y-120788921D01*
X133117722Y-120920431D01*
X133113815Y-120924463D01*
X133022963Y-121018215D01*
X132960887Y-121082272D01*
X132957760Y-121086926D01*
X132838317Y-121264675D01*
X132838314Y-121264681D01*
X132835191Y-121269328D01*
X132744606Y-121475686D01*
X132691995Y-121694825D01*
X132691672Y-121700430D01*
X132683614Y-121840184D01*
X132679022Y-121919816D01*
X112268000Y-121919816D01*
X112268000Y-119647936D01*
X125008053Y-119647936D01*
X125008238Y-119648809D01*
X125071179Y-119853401D01*
X125075400Y-119863746D01*
X125173580Y-120053966D01*
X125179565Y-120063397D01*
X125309875Y-120233219D01*
X125317439Y-120241445D01*
X125475759Y-120385505D01*
X125484670Y-120392268D01*
X125665992Y-120506012D01*
X125675958Y-120511089D01*
X125874562Y-120590927D01*
X125885259Y-120594157D01*
X126095840Y-120637767D01*
X126104975Y-120638970D01*
X126155706Y-120641895D01*
X126159353Y-120642000D01*
X126727885Y-120642000D01*
X126743124Y-120637525D01*
X126744329Y-120636135D01*
X126746000Y-120628452D01*
X126746000Y-120623885D01*
X127254000Y-120623885D01*
X127258475Y-120639124D01*
X127259865Y-120640329D01*
X127267548Y-120642000D01*
X127808353Y-120642000D01*
X127813948Y-120641751D01*
X127972789Y-120627574D01*
X127983803Y-120625592D01*
X128190265Y-120569111D01*
X128200738Y-120565217D01*
X128393940Y-120473064D01*
X128403569Y-120467369D01*
X128577390Y-120342466D01*
X128585855Y-120335159D01*
X128734813Y-120181445D01*
X128741856Y-120172748D01*
X128861238Y-119995091D01*
X128866624Y-119985293D01*
X128952663Y-119789291D01*
X128956228Y-119778699D01*
X128986738Y-119651615D01*
X128986033Y-119637530D01*
X128977154Y-119634000D01*
X127272115Y-119634000D01*
X127256876Y-119638475D01*
X127255671Y-119639865D01*
X127254000Y-119647548D01*
X127254000Y-120623885D01*
X126746000Y-120623885D01*
X126746000Y-119652115D01*
X126741525Y-119636876D01*
X126740135Y-119635671D01*
X126732452Y-119634000D01*
X125023560Y-119634000D01*
X125009578Y-119638105D01*
X125008053Y-119647936D01*
X112268000Y-119647936D01*
X112268000Y-119108385D01*
X125013262Y-119108385D01*
X125013967Y-119122470D01*
X125022846Y-119126000D01*
X126727885Y-119126000D01*
X126743124Y-119121525D01*
X126744329Y-119120135D01*
X126746000Y-119112452D01*
X126746000Y-119107885D01*
X127254000Y-119107885D01*
X127258475Y-119123124D01*
X127259865Y-119124329D01*
X127267548Y-119126000D01*
X128976440Y-119126000D01*
X128990422Y-119121895D01*
X128991947Y-119112064D01*
X128991762Y-119111191D01*
X128928821Y-118906599D01*
X128924600Y-118896254D01*
X128826420Y-118706034D01*
X128820435Y-118696603D01*
X128690125Y-118526781D01*
X128682561Y-118518555D01*
X128524241Y-118374495D01*
X128515330Y-118367732D01*
X128334008Y-118253988D01*
X128324042Y-118248911D01*
X128125438Y-118169073D01*
X128114741Y-118165843D01*
X127904160Y-118122233D01*
X127895025Y-118121030D01*
X127844294Y-118118105D01*
X127840647Y-118118000D01*
X127272115Y-118118000D01*
X127256876Y-118122475D01*
X127255671Y-118123865D01*
X127254000Y-118131548D01*
X127254000Y-119107885D01*
X126746000Y-119107885D01*
X126746000Y-118136115D01*
X126741525Y-118120876D01*
X126740135Y-118119671D01*
X126732452Y-118118000D01*
X126191647Y-118118000D01*
X126186052Y-118118249D01*
X126027211Y-118132426D01*
X126016197Y-118134408D01*
X125809735Y-118190889D01*
X125799262Y-118194783D01*
X125606060Y-118286936D01*
X125596431Y-118292631D01*
X125422610Y-118417534D01*
X125414145Y-118424841D01*
X125265187Y-118578555D01*
X125258144Y-118587252D01*
X125138762Y-118764909D01*
X125133376Y-118774707D01*
X125047337Y-118970709D01*
X125043772Y-118981301D01*
X125013262Y-119108385D01*
X112268000Y-119108385D01*
X112268000Y-61900763D01*
X116669703Y-61900763D01*
X116676458Y-61962945D01*
X116727588Y-62099334D01*
X116814942Y-62215890D01*
X116931498Y-62303244D01*
X117067887Y-62354374D01*
X117130069Y-62361129D01*
X121226337Y-62361129D01*
X121288519Y-62354374D01*
X121424908Y-62303244D01*
X121541464Y-62215890D01*
X121628818Y-62099334D01*
X121679948Y-61962945D01*
X121686703Y-61900763D01*
X121686703Y-61867129D01*
X121706705Y-61799008D01*
X121760361Y-61752515D01*
X121812703Y-61741129D01*
X125202411Y-61741129D01*
X125270532Y-61761131D01*
X125291506Y-61778034D01*
X126920076Y-63406604D01*
X126954102Y-63468916D01*
X126956924Y-63495172D01*
X126956502Y-63500000D01*
X126956902Y-63504570D01*
X126936979Y-63572421D01*
X126920076Y-63593395D01*
X118808197Y-71705275D01*
X118793169Y-71718112D01*
X118782203Y-71726079D01*
X118777790Y-71730981D01*
X118777788Y-71730982D01*
X118737477Y-71775752D01*
X118732936Y-71780536D01*
X118718811Y-71794661D01*
X118706238Y-71810188D01*
X118701954Y-71815204D01*
X118657229Y-71864876D01*
X118653929Y-71870592D01*
X118653926Y-71870596D01*
X118650457Y-71876605D01*
X118639256Y-71892903D01*
X118630737Y-71903423D01*
X118627742Y-71909301D01*
X118627740Y-71909304D01*
X118600400Y-71962962D01*
X118597253Y-71968758D01*
X118563844Y-72026624D01*
X118561803Y-72032905D01*
X118561801Y-72032910D01*
X118559658Y-72039506D01*
X118552094Y-72057767D01*
X118545945Y-72069836D01*
X118544238Y-72076208D01*
X118528648Y-72134390D01*
X118526779Y-72140698D01*
X118506129Y-72204253D01*
X118505439Y-72210818D01*
X118504714Y-72217716D01*
X118501111Y-72237157D01*
X118497605Y-72250242D01*
X118497260Y-72256831D01*
X118497259Y-72256836D01*
X118494110Y-72316949D01*
X118493592Y-72323532D01*
X118491846Y-72340139D01*
X118491845Y-72340152D01*
X118491500Y-72343437D01*
X118491500Y-72363449D01*
X118491327Y-72370043D01*
X118487831Y-72436757D01*
X118488863Y-72443273D01*
X118489949Y-72450129D01*
X118491500Y-72469840D01*
X118491500Y-94772338D01*
X118489949Y-94792048D01*
X118487831Y-94805421D01*
X118488176Y-94812009D01*
X118488176Y-94812013D01*
X118491327Y-94872135D01*
X118491500Y-94878729D01*
X118491500Y-94898741D01*
X118491845Y-94902026D01*
X118491846Y-94902039D01*
X118493592Y-94918646D01*
X118494109Y-94925218D01*
X118497605Y-94991936D01*
X118501110Y-95005015D01*
X118504714Y-95024461D01*
X118506129Y-95037925D01*
X118526779Y-95101480D01*
X118528646Y-95107781D01*
X118545945Y-95172342D01*
X118548942Y-95178224D01*
X118552094Y-95184411D01*
X118559658Y-95202672D01*
X118561801Y-95209268D01*
X118561803Y-95209273D01*
X118563844Y-95215554D01*
X118595123Y-95269731D01*
X118597253Y-95273420D01*
X118600400Y-95279216D01*
X118617227Y-95312240D01*
X118630737Y-95338755D01*
X118637887Y-95347584D01*
X118639256Y-95349275D01*
X118650457Y-95365573D01*
X118653926Y-95371582D01*
X118653929Y-95371586D01*
X118657229Y-95377302D01*
X118661644Y-95382206D01*
X118661646Y-95382208D01*
X118701954Y-95426974D01*
X118706233Y-95431984D01*
X118718811Y-95447517D01*
X118732936Y-95461642D01*
X118737477Y-95466426D01*
X118782203Y-95516099D01*
X118793169Y-95524066D01*
X118808197Y-95536903D01*
X123545767Y-100274473D01*
X123579793Y-100336785D01*
X123582615Y-100363041D01*
X123582193Y-100367869D01*
X123602148Y-100595956D01*
X123603572Y-100601269D01*
X123603572Y-100601271D01*
X123656625Y-100799264D01*
X123661407Y-100817112D01*
X123663730Y-100822093D01*
X123663730Y-100822094D01*
X123755842Y-101019631D01*
X123755845Y-101019636D01*
X123758168Y-101024618D01*
X123785206Y-101063232D01*
X123879890Y-101198454D01*
X123889493Y-101212169D01*
X124051391Y-101374067D01*
X124055899Y-101377224D01*
X124055902Y-101377226D01*
X124134080Y-101431967D01*
X124238942Y-101505392D01*
X124243924Y-101507715D01*
X124243929Y-101507718D01*
X124441466Y-101599830D01*
X124446448Y-101602153D01*
X124451756Y-101603575D01*
X124451758Y-101603576D01*
X124662289Y-101659988D01*
X124662291Y-101659988D01*
X124667604Y-101661412D01*
X124895691Y-101681367D01*
X125123778Y-101661412D01*
X125129091Y-101659988D01*
X125129093Y-101659988D01*
X125339624Y-101603576D01*
X125339626Y-101603575D01*
X125344934Y-101602153D01*
X125349916Y-101599830D01*
X125547453Y-101507718D01*
X125547458Y-101507715D01*
X125552440Y-101505392D01*
X125657302Y-101431967D01*
X125735480Y-101377226D01*
X125735483Y-101377224D01*
X125739991Y-101374067D01*
X125901889Y-101212169D01*
X125909864Y-101200780D01*
X126011872Y-101055098D01*
X126067329Y-101010770D01*
X126115085Y-101001369D01*
X126883364Y-101001369D01*
X126894547Y-101001896D01*
X126902040Y-101003571D01*
X126909966Y-101003322D01*
X126909967Y-101003322D01*
X126970117Y-101001431D01*
X126974076Y-101001369D01*
X127001987Y-101001369D01*
X127005922Y-101000872D01*
X127005987Y-101000864D01*
X127017824Y-100999931D01*
X127050082Y-100998917D01*
X127054101Y-100998791D01*
X127062020Y-100998542D01*
X127081474Y-100992890D01*
X127100831Y-100988882D01*
X127113061Y-100987337D01*
X127113062Y-100987337D01*
X127120928Y-100986343D01*
X127128299Y-100983424D01*
X127128301Y-100983424D01*
X127162043Y-100970065D01*
X127173273Y-100966220D01*
X127208114Y-100956098D01*
X127208115Y-100956098D01*
X127215724Y-100953887D01*
X127222543Y-100949854D01*
X127222548Y-100949852D01*
X127233159Y-100943576D01*
X127250907Y-100934881D01*
X127269748Y-100927421D01*
X127305518Y-100901433D01*
X127315438Y-100894917D01*
X127346666Y-100876449D01*
X127346669Y-100876447D01*
X127353493Y-100872411D01*
X127367814Y-100858090D01*
X127382848Y-100845249D01*
X127392825Y-100838000D01*
X127399238Y-100833341D01*
X127427429Y-100799264D01*
X127435419Y-100790485D01*
X130181038Y-98044867D01*
X130243350Y-98010841D01*
X130270133Y-98007962D01*
X131631978Y-98007962D01*
X131700099Y-98027964D01*
X131735191Y-98061691D01*
X131842015Y-98214251D01*
X131845174Y-98218762D01*
X132007072Y-98380660D01*
X132011580Y-98383817D01*
X132011583Y-98383819D01*
X132036176Y-98401039D01*
X132194623Y-98511985D01*
X132199605Y-98514308D01*
X132201399Y-98515344D01*
X132250391Y-98566728D01*
X132263826Y-98636441D01*
X132237438Y-98702352D01*
X132201399Y-98733580D01*
X132199605Y-98734616D01*
X132194623Y-98736939D01*
X132149104Y-98768812D01*
X132011583Y-98865105D01*
X132011580Y-98865107D01*
X132007072Y-98868264D01*
X131845174Y-99030162D01*
X131842017Y-99034670D01*
X131842015Y-99034673D01*
X131814585Y-99073847D01*
X131713849Y-99217713D01*
X131711526Y-99222695D01*
X131711523Y-99222700D01*
X131624572Y-99409169D01*
X131617088Y-99425219D01*
X131615666Y-99430527D01*
X131615665Y-99430529D01*
X131564119Y-99622899D01*
X131557829Y-99646375D01*
X131537874Y-99874462D01*
X131557829Y-100102549D01*
X131559252Y-100107860D01*
X131559253Y-100107864D01*
X131614885Y-100315482D01*
X131617088Y-100323705D01*
X131619411Y-100328686D01*
X131619411Y-100328687D01*
X131711523Y-100526224D01*
X131711526Y-100526229D01*
X131713849Y-100531211D01*
X131845174Y-100718762D01*
X132007072Y-100880660D01*
X132011580Y-100883817D01*
X132011583Y-100883819D01*
X132042163Y-100905231D01*
X132194623Y-101011985D01*
X132199605Y-101014308D01*
X132199610Y-101014311D01*
X132346129Y-101082633D01*
X132402129Y-101108746D01*
X132407437Y-101110168D01*
X132407439Y-101110169D01*
X132617970Y-101166581D01*
X132617972Y-101166581D01*
X132623285Y-101168005D01*
X132851372Y-101187960D01*
X133079459Y-101168005D01*
X133084770Y-101166582D01*
X133084781Y-101166580D01*
X133142913Y-101151003D01*
X133213889Y-101152692D01*
X133264620Y-101183614D01*
X133526911Y-101445905D01*
X133560937Y-101508217D01*
X133555872Y-101579032D01*
X133526911Y-101624095D01*
X132092781Y-103058224D01*
X130720574Y-104430431D01*
X130712288Y-104437971D01*
X130705809Y-104442083D01*
X130700384Y-104447860D01*
X130659184Y-104491734D01*
X130656429Y-104494576D01*
X130636692Y-104514313D01*
X130634212Y-104517510D01*
X130626509Y-104526530D01*
X130596241Y-104558762D01*
X130592422Y-104565708D01*
X130592420Y-104565711D01*
X130586479Y-104576517D01*
X130575628Y-104593036D01*
X130563213Y-104609042D01*
X130560068Y-104616311D01*
X130560065Y-104616315D01*
X130545653Y-104649620D01*
X130540436Y-104660270D01*
X130519132Y-104699023D01*
X130517161Y-104706698D01*
X130517161Y-104706699D01*
X130514094Y-104718645D01*
X130507690Y-104737349D01*
X130499646Y-104755938D01*
X130498407Y-104763761D01*
X130498404Y-104763771D01*
X130492728Y-104799607D01*
X130490322Y-104811227D01*
X130481398Y-104845986D01*
X130479327Y-104854053D01*
X130479327Y-104873041D01*
X130459325Y-104941162D01*
X130425598Y-104976254D01*
X130273038Y-105083078D01*
X130273035Y-105083080D01*
X130268527Y-105086237D01*
X130106629Y-105248135D01*
X130103472Y-105252643D01*
X130103470Y-105252646D01*
X130067154Y-105304511D01*
X129975304Y-105435686D01*
X129972981Y-105440668D01*
X129972978Y-105440673D01*
X129926226Y-105540935D01*
X129878543Y-105643192D01*
X129819284Y-105864348D01*
X129799329Y-106092435D01*
X129819284Y-106320522D01*
X129878543Y-106541678D01*
X129880866Y-106546659D01*
X129880866Y-106546660D01*
X129972978Y-106744197D01*
X129972981Y-106744202D01*
X129975304Y-106749184D01*
X129978461Y-106753692D01*
X130095307Y-106920565D01*
X130106629Y-106936735D01*
X130268527Y-107098633D01*
X130273035Y-107101790D01*
X130273038Y-107101792D01*
X130333869Y-107144386D01*
X130456078Y-107229958D01*
X130461060Y-107232281D01*
X130461065Y-107232284D01*
X130648244Y-107319566D01*
X130663584Y-107326719D01*
X130668892Y-107328141D01*
X130668894Y-107328142D01*
X130879425Y-107384554D01*
X130879427Y-107384554D01*
X130884740Y-107385978D01*
X131112827Y-107405933D01*
X131340914Y-107385978D01*
X131346227Y-107384554D01*
X131346229Y-107384554D01*
X131556760Y-107328142D01*
X131556762Y-107328141D01*
X131562070Y-107326719D01*
X131577410Y-107319566D01*
X131764589Y-107232284D01*
X131764594Y-107232281D01*
X131769576Y-107229958D01*
X131891785Y-107144386D01*
X131952616Y-107101792D01*
X131952619Y-107101790D01*
X131957127Y-107098633D01*
X132119025Y-106936735D01*
X132130348Y-106920565D01*
X132247193Y-106753692D01*
X132250350Y-106749184D01*
X132252673Y-106744202D01*
X132252676Y-106744197D01*
X132344788Y-106546660D01*
X132344788Y-106546659D01*
X132347111Y-106541678D01*
X132406370Y-106320522D01*
X132426325Y-106092435D01*
X132406370Y-105864348D01*
X132347111Y-105643192D01*
X132299428Y-105540935D01*
X132252676Y-105440673D01*
X132252673Y-105440668D01*
X132250350Y-105435686D01*
X132158500Y-105304511D01*
X132122184Y-105252646D01*
X132122182Y-105252643D01*
X132119025Y-105248135D01*
X131995947Y-105125057D01*
X131961921Y-105062745D01*
X131966986Y-104991930D01*
X131995947Y-104946867D01*
X134315350Y-102627464D01*
X134377662Y-102593438D01*
X134448477Y-102598503D01*
X134505313Y-102641050D01*
X134512898Y-102652418D01*
X134580547Y-102766807D01*
X134698193Y-102884453D01*
X134705017Y-102888489D01*
X134705020Y-102888491D01*
X134779116Y-102932311D01*
X134841399Y-102969145D01*
X134849010Y-102971356D01*
X134849012Y-102971357D01*
X134901231Y-102986528D01*
X135001169Y-103015562D01*
X135007574Y-103016066D01*
X135007579Y-103016067D01*
X135036042Y-103018307D01*
X135036050Y-103018307D01*
X135038498Y-103018500D01*
X135471502Y-103018500D01*
X135473950Y-103018307D01*
X135473958Y-103018307D01*
X135502421Y-103016067D01*
X135502426Y-103016066D01*
X135508831Y-103015562D01*
X135608769Y-102986528D01*
X135660988Y-102971357D01*
X135660990Y-102971356D01*
X135668601Y-102969145D01*
X135701363Y-102949769D01*
X135770178Y-102932311D01*
X135837509Y-102954828D01*
X135881978Y-103010173D01*
X135891500Y-103058224D01*
X135891500Y-104700397D01*
X135871498Y-104768518D01*
X135817842Y-104815011D01*
X135798112Y-104822104D01*
X135693587Y-104850112D01*
X135663584Y-104858151D01*
X135658603Y-104860474D01*
X135658602Y-104860474D01*
X135461065Y-104952586D01*
X135461060Y-104952589D01*
X135456078Y-104954912D01*
X135378094Y-105009517D01*
X135273038Y-105083078D01*
X135273035Y-105083080D01*
X135268527Y-105086237D01*
X135106629Y-105248135D01*
X135103472Y-105252643D01*
X135103470Y-105252646D01*
X135067154Y-105304511D01*
X134975304Y-105435686D01*
X134972981Y-105440668D01*
X134972978Y-105440673D01*
X134926226Y-105540935D01*
X134878543Y-105643192D01*
X134819284Y-105864348D01*
X134799329Y-106092435D01*
X134819284Y-106320522D01*
X134878543Y-106541678D01*
X134880866Y-106546659D01*
X134880866Y-106546660D01*
X134972978Y-106744197D01*
X134972981Y-106744202D01*
X134975304Y-106749184D01*
X134978461Y-106753692D01*
X135095307Y-106920565D01*
X135106629Y-106936735D01*
X135268527Y-107098633D01*
X135273035Y-107101790D01*
X135273038Y-107101792D01*
X135333869Y-107144386D01*
X135456078Y-107229958D01*
X135461060Y-107232281D01*
X135461065Y-107232284D01*
X135648244Y-107319566D01*
X135663584Y-107326719D01*
X135668892Y-107328141D01*
X135668894Y-107328142D01*
X135879425Y-107384554D01*
X135879427Y-107384554D01*
X135884740Y-107385978D01*
X136112827Y-107405933D01*
X136340914Y-107385978D01*
X136346227Y-107384554D01*
X136346229Y-107384554D01*
X136556760Y-107328142D01*
X136556762Y-107328141D01*
X136562070Y-107326719D01*
X136577410Y-107319566D01*
X136764589Y-107232284D01*
X136764594Y-107232281D01*
X136769576Y-107229958D01*
X136891785Y-107144386D01*
X136952616Y-107101792D01*
X136952619Y-107101790D01*
X136957127Y-107098633D01*
X137119025Y-106936735D01*
X137130348Y-106920565D01*
X137247193Y-106753692D01*
X137250350Y-106749184D01*
X137252673Y-106744202D01*
X137252676Y-106744197D01*
X137344788Y-106546660D01*
X137344788Y-106546659D01*
X137347111Y-106541678D01*
X137406370Y-106320522D01*
X137426325Y-106092435D01*
X137406370Y-105864348D01*
X137347111Y-105643192D01*
X137299428Y-105540935D01*
X137252676Y-105440673D01*
X137252673Y-105440668D01*
X137250350Y-105435686D01*
X137181287Y-105337054D01*
X137158500Y-105264783D01*
X137158500Y-104068594D01*
X137178502Y-104000473D01*
X137232158Y-103953980D01*
X137302432Y-103943876D01*
X137367012Y-103973370D01*
X137373595Y-103979499D01*
X138627997Y-105233902D01*
X138662023Y-105296214D01*
X138656958Y-105367030D01*
X138611174Y-105426210D01*
X138562714Y-105460142D01*
X138400816Y-105622040D01*
X138397659Y-105626548D01*
X138397657Y-105626551D01*
X138386005Y-105643192D01*
X138269491Y-105809591D01*
X138267168Y-105814573D01*
X138267165Y-105814578D01*
X138241402Y-105869828D01*
X138172730Y-106017097D01*
X138113471Y-106238253D01*
X138093516Y-106466340D01*
X138113471Y-106694427D01*
X138172730Y-106915583D01*
X138175053Y-106920564D01*
X138175053Y-106920565D01*
X138267165Y-107118102D01*
X138267168Y-107118107D01*
X138269491Y-107123089D01*
X138328305Y-107207084D01*
X138394838Y-107302102D01*
X138400816Y-107310640D01*
X138562714Y-107472538D01*
X138567222Y-107475695D01*
X138567225Y-107475697D01*
X138645403Y-107530438D01*
X138750265Y-107603863D01*
X138755247Y-107606186D01*
X138755252Y-107606189D01*
X138952789Y-107698301D01*
X138957771Y-107700624D01*
X138963079Y-107702046D01*
X138963081Y-107702047D01*
X139173612Y-107758459D01*
X139173614Y-107758459D01*
X139178927Y-107759883D01*
X139407014Y-107779838D01*
X139635101Y-107759883D01*
X139640414Y-107758459D01*
X139640416Y-107758459D01*
X139850947Y-107702047D01*
X139850949Y-107702046D01*
X139856257Y-107700624D01*
X139861239Y-107698301D01*
X140058776Y-107606189D01*
X140058781Y-107606186D01*
X140063763Y-107603863D01*
X140168625Y-107530438D01*
X140246803Y-107475697D01*
X140246806Y-107475695D01*
X140251314Y-107472538D01*
X140413212Y-107310640D01*
X140419191Y-107302102D01*
X140485723Y-107207084D01*
X140544537Y-107123089D01*
X140546860Y-107118107D01*
X140546863Y-107118102D01*
X140638975Y-106920565D01*
X140638975Y-106920564D01*
X140641298Y-106915583D01*
X140700557Y-106694427D01*
X140720512Y-106466340D01*
X145713516Y-106466340D01*
X145733471Y-106694427D01*
X145792730Y-106915583D01*
X145795053Y-106920564D01*
X145795053Y-106920565D01*
X145887165Y-107118102D01*
X145887168Y-107118107D01*
X145889491Y-107123089D01*
X145948305Y-107207084D01*
X146014838Y-107302102D01*
X146020816Y-107310640D01*
X146182714Y-107472538D01*
X146187222Y-107475695D01*
X146187225Y-107475697D01*
X146265403Y-107530438D01*
X146370265Y-107603863D01*
X146375247Y-107606186D01*
X146375252Y-107606189D01*
X146572789Y-107698301D01*
X146577771Y-107700624D01*
X146583079Y-107702046D01*
X146583081Y-107702047D01*
X146793612Y-107758459D01*
X146793614Y-107758459D01*
X146798927Y-107759883D01*
X147027014Y-107779838D01*
X147255101Y-107759883D01*
X147260414Y-107758459D01*
X147260416Y-107758459D01*
X147470947Y-107702047D01*
X147470949Y-107702046D01*
X147476257Y-107700624D01*
X147481239Y-107698301D01*
X147678776Y-107606189D01*
X147678781Y-107606186D01*
X147683763Y-107603863D01*
X147788625Y-107530438D01*
X147866803Y-107475697D01*
X147866806Y-107475695D01*
X147871314Y-107472538D01*
X147952107Y-107391745D01*
X148014419Y-107357719D01*
X148041202Y-107354840D01*
X148967773Y-107354840D01*
X148987483Y-107356391D01*
X149000856Y-107358509D01*
X149007444Y-107358164D01*
X149007448Y-107358164D01*
X149067570Y-107355013D01*
X149074164Y-107354840D01*
X149094176Y-107354840D01*
X149097461Y-107354495D01*
X149097474Y-107354494D01*
X149114081Y-107352748D01*
X149120653Y-107352231D01*
X149143585Y-107351029D01*
X149180777Y-107349081D01*
X149180782Y-107349080D01*
X149187371Y-107348735D01*
X149200456Y-107345229D01*
X149219896Y-107341626D01*
X149233360Y-107340211D01*
X149296915Y-107319561D01*
X149303216Y-107317694D01*
X149367777Y-107300395D01*
X149373659Y-107297398D01*
X149379846Y-107294246D01*
X149398107Y-107286682D01*
X149404703Y-107284539D01*
X149404708Y-107284537D01*
X149410989Y-107282496D01*
X149468855Y-107249087D01*
X149474651Y-107245940D01*
X149528309Y-107218600D01*
X149528312Y-107218598D01*
X149534190Y-107215603D01*
X149544709Y-107207084D01*
X149561008Y-107195883D01*
X149567017Y-107192414D01*
X149567021Y-107192411D01*
X149572737Y-107189111D01*
X149622409Y-107144386D01*
X149627425Y-107140102D01*
X149642952Y-107127529D01*
X149657077Y-107113404D01*
X149661861Y-107108863D01*
X149706631Y-107068552D01*
X149706632Y-107068550D01*
X149711534Y-107064137D01*
X149719501Y-107053171D01*
X149732338Y-107038143D01*
X155656590Y-101113892D01*
X155718902Y-101079866D01*
X155750300Y-101077072D01*
X155812217Y-101079342D01*
X155901952Y-101082633D01*
X155901956Y-101082633D01*
X155907116Y-101082822D01*
X155912236Y-101082166D01*
X155912238Y-101082166D01*
X156029617Y-101067129D01*
X156136850Y-101053392D01*
X156141798Y-101051907D01*
X156141805Y-101051906D01*
X156353750Y-100988319D01*
X156358693Y-100986836D01*
X156392927Y-100970065D01*
X156562052Y-100887212D01*
X156562055Y-100887210D01*
X156566687Y-100884941D01*
X156755246Y-100750444D01*
X156919306Y-100586955D01*
X157054461Y-100398867D01*
X157077932Y-100351378D01*
X157154787Y-100195872D01*
X157154788Y-100195870D01*
X157157081Y-100191230D01*
X157224411Y-99969621D01*
X157254643Y-99739991D01*
X157254725Y-99736641D01*
X157256248Y-99674315D01*
X157256248Y-99674311D01*
X157256330Y-99670950D01*
X157248207Y-99572144D01*
X157237776Y-99445268D01*
X157237775Y-99445262D01*
X157237352Y-99440117D01*
X157197917Y-99283120D01*
X157182187Y-99220494D01*
X157182186Y-99220490D01*
X157180928Y-99215483D01*
X157178012Y-99208777D01*
X157090633Y-99007818D01*
X157090631Y-99007815D01*
X157088573Y-99003081D01*
X156962767Y-98808615D01*
X156926549Y-98768812D01*
X156872851Y-98709798D01*
X156841799Y-98645952D01*
X156850195Y-98575454D01*
X156895372Y-98520686D01*
X156921815Y-98507017D01*
X156981300Y-98484717D01*
X156989708Y-98481565D01*
X157106264Y-98394211D01*
X157193618Y-98277655D01*
X157244748Y-98141266D01*
X157251503Y-98079084D01*
X157251503Y-96182816D01*
X157244748Y-96120634D01*
X157193618Y-95984245D01*
X157106264Y-95867689D01*
X156989708Y-95780335D01*
X156853319Y-95729205D01*
X156791137Y-95722450D01*
X154894869Y-95722450D01*
X154832687Y-95729205D01*
X154696298Y-95780335D01*
X154579742Y-95867689D01*
X154492388Y-95984245D01*
X154441258Y-96120634D01*
X154434503Y-96182816D01*
X154434503Y-97974524D01*
X154414501Y-98042645D01*
X154360845Y-98089138D01*
X154290571Y-98099242D01*
X154225991Y-98069748D01*
X154219408Y-98063619D01*
X152055405Y-95899616D01*
X152021379Y-95837304D01*
X152018500Y-95810521D01*
X152018500Y-79240000D01*
X153106540Y-79240000D01*
X153126359Y-79555020D01*
X153185505Y-79865072D01*
X153283044Y-80165266D01*
X153284731Y-80168852D01*
X153284733Y-80168856D01*
X153415750Y-80447283D01*
X153415754Y-80447290D01*
X153417438Y-80450869D01*
X153586568Y-80717375D01*
X153787767Y-80960582D01*
X153790657Y-80963296D01*
X153790658Y-80963297D01*
X153815585Y-80986705D01*
X154017860Y-81176654D01*
X154021062Y-81178981D01*
X154021064Y-81178982D01*
X154037076Y-81190615D01*
X154273221Y-81362184D01*
X154549821Y-81514247D01*
X154553490Y-81515700D01*
X154553495Y-81515702D01*
X154839628Y-81628990D01*
X154843298Y-81630443D01*
X155149025Y-81708940D01*
X155462179Y-81748500D01*
X155777821Y-81748500D01*
X156090975Y-81708940D01*
X156396702Y-81630443D01*
X156400372Y-81628990D01*
X156686505Y-81515702D01*
X156686510Y-81515700D01*
X156690179Y-81514247D01*
X156966779Y-81362184D01*
X157202924Y-81190615D01*
X157218936Y-81178982D01*
X157218938Y-81178981D01*
X157222140Y-81176654D01*
X157424415Y-80986705D01*
X157449342Y-80963297D01*
X157449343Y-80963296D01*
X157452233Y-80960582D01*
X157653432Y-80717375D01*
X157822562Y-80450869D01*
X157824246Y-80447290D01*
X157824250Y-80447283D01*
X157955267Y-80168856D01*
X157955269Y-80168852D01*
X157956956Y-80165266D01*
X158054495Y-79865072D01*
X158113641Y-79555020D01*
X158133460Y-79240000D01*
X161906540Y-79240000D01*
X161926359Y-79555020D01*
X161985505Y-79865072D01*
X162083044Y-80165266D01*
X162084731Y-80168852D01*
X162084733Y-80168856D01*
X162215750Y-80447283D01*
X162215754Y-80447290D01*
X162217438Y-80450869D01*
X162386568Y-80717375D01*
X162587767Y-80960582D01*
X162590657Y-80963296D01*
X162590658Y-80963297D01*
X162615585Y-80986705D01*
X162817860Y-81176654D01*
X162821062Y-81178981D01*
X162821064Y-81178982D01*
X162837076Y-81190615D01*
X163073221Y-81362184D01*
X163349821Y-81514247D01*
X163353490Y-81515700D01*
X163353495Y-81515702D01*
X163639628Y-81628990D01*
X163643298Y-81630443D01*
X163949025Y-81708940D01*
X164262179Y-81748500D01*
X164577821Y-81748500D01*
X164890975Y-81708940D01*
X165196702Y-81630443D01*
X165200372Y-81628990D01*
X165486505Y-81515702D01*
X165486510Y-81515700D01*
X165490179Y-81514247D01*
X165766779Y-81362184D01*
X166002924Y-81190615D01*
X166018936Y-81178982D01*
X166018938Y-81178981D01*
X166022140Y-81176654D01*
X166224415Y-80986705D01*
X166249342Y-80963297D01*
X166249343Y-80963296D01*
X166252233Y-80960582D01*
X166453432Y-80717375D01*
X166622562Y-80450869D01*
X166624246Y-80447290D01*
X166624250Y-80447283D01*
X166755267Y-80168856D01*
X166755269Y-80168852D01*
X166756956Y-80165266D01*
X166854495Y-79865072D01*
X166913641Y-79555020D01*
X166933460Y-79240000D01*
X166913641Y-78924980D01*
X166854495Y-78614928D01*
X166756956Y-78314734D01*
X166755267Y-78311144D01*
X166624250Y-78032717D01*
X166624246Y-78032710D01*
X166622562Y-78029131D01*
X166453432Y-77762625D01*
X166252233Y-77519418D01*
X166022140Y-77303346D01*
X165766779Y-77117816D01*
X165490179Y-76965753D01*
X165486510Y-76964300D01*
X165486505Y-76964298D01*
X165200372Y-76851010D01*
X165200371Y-76851010D01*
X165196702Y-76849557D01*
X164890975Y-76771060D01*
X164577821Y-76731500D01*
X164262179Y-76731500D01*
X163949025Y-76771060D01*
X163643298Y-76849557D01*
X163639629Y-76851010D01*
X163639628Y-76851010D01*
X163353495Y-76964298D01*
X163353490Y-76964300D01*
X163349821Y-76965753D01*
X163073221Y-77117816D01*
X162817860Y-77303346D01*
X162587767Y-77519418D01*
X162386568Y-77762625D01*
X162217438Y-78029131D01*
X162215754Y-78032710D01*
X162215750Y-78032717D01*
X162084733Y-78311144D01*
X162083044Y-78314734D01*
X161985505Y-78614928D01*
X161926359Y-78924980D01*
X161906540Y-79240000D01*
X158133460Y-79240000D01*
X158113641Y-78924980D01*
X158054495Y-78614928D01*
X157956956Y-78314734D01*
X157955267Y-78311144D01*
X157824250Y-78032717D01*
X157824246Y-78032710D01*
X157822562Y-78029131D01*
X157653432Y-77762625D01*
X157452233Y-77519418D01*
X157222140Y-77303346D01*
X156966779Y-77117816D01*
X156690179Y-76965753D01*
X156686510Y-76964300D01*
X156686505Y-76964298D01*
X156400372Y-76851010D01*
X156400371Y-76851010D01*
X156396702Y-76849557D01*
X156090975Y-76771060D01*
X155777821Y-76731500D01*
X155462179Y-76731500D01*
X155149025Y-76771060D01*
X154843298Y-76849557D01*
X154839629Y-76851010D01*
X154839628Y-76851010D01*
X154553495Y-76964298D01*
X154553490Y-76964300D01*
X154549821Y-76965753D01*
X154273221Y-77117816D01*
X154017860Y-77303346D01*
X153787767Y-77519418D01*
X153586568Y-77762625D01*
X153417438Y-78029131D01*
X153415754Y-78032710D01*
X153415750Y-78032717D01*
X153284733Y-78311144D01*
X153283044Y-78314734D01*
X153185505Y-78614928D01*
X153126359Y-78924980D01*
X153106540Y-79240000D01*
X152018500Y-79240000D01*
X152018500Y-72810218D01*
X152038502Y-72742097D01*
X152055405Y-72721123D01*
X155511807Y-69264722D01*
X155526841Y-69251881D01*
X155532458Y-69247800D01*
X155537797Y-69243921D01*
X155582514Y-69194258D01*
X155587055Y-69189474D01*
X155601190Y-69175339D01*
X155603264Y-69172778D01*
X155603272Y-69172769D01*
X155613777Y-69159797D01*
X155618057Y-69154786D01*
X155658349Y-69110036D01*
X155658352Y-69110032D01*
X155662771Y-69105124D01*
X155666075Y-69099402D01*
X155669546Y-69093391D01*
X155680738Y-69077106D01*
X155685110Y-69071707D01*
X155685114Y-69071701D01*
X155689263Y-69066577D01*
X155719600Y-69007038D01*
X155722747Y-69001242D01*
X155724877Y-68997553D01*
X155756156Y-68943376D01*
X155758197Y-68937095D01*
X155758199Y-68937090D01*
X155760342Y-68930494D01*
X155767906Y-68912233D01*
X155771056Y-68906051D01*
X155771058Y-68906047D01*
X155774055Y-68900164D01*
X155775764Y-68893785D01*
X155775767Y-68893778D01*
X155791355Y-68835605D01*
X155793228Y-68829282D01*
X155811830Y-68772029D01*
X155811830Y-68772028D01*
X155813871Y-68765747D01*
X155815286Y-68752284D01*
X155818890Y-68732836D01*
X155820687Y-68726130D01*
X155822395Y-68719757D01*
X155825892Y-68653036D01*
X155826409Y-68646462D01*
X155828156Y-68629837D01*
X155828156Y-68629835D01*
X155828500Y-68626563D01*
X155828500Y-68606562D01*
X155828673Y-68599967D01*
X155831825Y-68539834D01*
X155831825Y-68539830D01*
X155832170Y-68533243D01*
X155830051Y-68519863D01*
X155828500Y-68500154D01*
X155828500Y-62115474D01*
X155848502Y-62047353D01*
X155865560Y-62026223D01*
X155914238Y-61977715D01*
X156016303Y-61876005D01*
X156021695Y-61868502D01*
X156098848Y-61761131D01*
X156151458Y-61687917D01*
X156254078Y-61480280D01*
X156321408Y-61258671D01*
X156351640Y-61029041D01*
X156353327Y-60960000D01*
X156347032Y-60883434D01*
X156334773Y-60734318D01*
X156334772Y-60734312D01*
X156334349Y-60729167D01*
X156277925Y-60504533D01*
X156216038Y-60362203D01*
X156187630Y-60296868D01*
X156187628Y-60296865D01*
X156185570Y-60292131D01*
X156059764Y-60097665D01*
X156051124Y-60088169D01*
X155972058Y-60001277D01*
X155903887Y-59926358D01*
X155899836Y-59923159D01*
X155899832Y-59923155D01*
X155726177Y-59786011D01*
X155726172Y-59786008D01*
X155722123Y-59782810D01*
X155717607Y-59780317D01*
X155717604Y-59780315D01*
X155523879Y-59673373D01*
X155523875Y-59673371D01*
X155519355Y-59670876D01*
X155514486Y-59669152D01*
X155514482Y-59669150D01*
X155305903Y-59595288D01*
X155305899Y-59595287D01*
X155301028Y-59593562D01*
X155295935Y-59592655D01*
X155295932Y-59592654D01*
X155078095Y-59553851D01*
X155078089Y-59553850D01*
X155073006Y-59552945D01*
X155000096Y-59552054D01*
X154846581Y-59550179D01*
X154846579Y-59550179D01*
X154841411Y-59550116D01*
X154612464Y-59585150D01*
X154392314Y-59657106D01*
X154387726Y-59659494D01*
X154387722Y-59659496D01*
X154228632Y-59742313D01*
X154186872Y-59764052D01*
X154182739Y-59767155D01*
X154182736Y-59767157D01*
X154005790Y-59900012D01*
X154001655Y-59903117D01*
X153984170Y-59921414D01*
X153922646Y-59956844D01*
X153851733Y-59953387D01*
X153793947Y-59912141D01*
X153775094Y-59878592D01*
X153753768Y-59821705D01*
X153753767Y-59821703D01*
X153750615Y-59813295D01*
X153663261Y-59696739D01*
X153546705Y-59609385D01*
X153410316Y-59558255D01*
X153348134Y-59551500D01*
X151451866Y-59551500D01*
X151389684Y-59558255D01*
X151253295Y-59609385D01*
X151136739Y-59696739D01*
X151049385Y-59813295D01*
X150998255Y-59949684D01*
X150991500Y-60011866D01*
X150991500Y-61908134D01*
X150998255Y-61970316D01*
X151049385Y-62106705D01*
X151136739Y-62223261D01*
X151253295Y-62310615D01*
X151389684Y-62361745D01*
X151451866Y-62368500D01*
X153348134Y-62368500D01*
X153410316Y-62361745D01*
X153546705Y-62310615D01*
X153663261Y-62223261D01*
X153750615Y-62106705D01*
X153775180Y-62041178D01*
X153817822Y-61984414D01*
X153884383Y-61959714D01*
X153953732Y-61974921D01*
X153973643Y-61988461D01*
X154005986Y-62015312D01*
X154045620Y-62074216D01*
X154051500Y-62112256D01*
X154051500Y-68159781D01*
X154031498Y-68227902D01*
X154014595Y-68248876D01*
X150558197Y-71705275D01*
X150543169Y-71718112D01*
X150532203Y-71726079D01*
X150527790Y-71730981D01*
X150527788Y-71730982D01*
X150487477Y-71775752D01*
X150482936Y-71780536D01*
X150468811Y-71794661D01*
X150456238Y-71810188D01*
X150451954Y-71815204D01*
X150407229Y-71864876D01*
X150403929Y-71870592D01*
X150403926Y-71870596D01*
X150400457Y-71876605D01*
X150389256Y-71892903D01*
X150380737Y-71903423D01*
X150377742Y-71909301D01*
X150377740Y-71909304D01*
X150350400Y-71962962D01*
X150347253Y-71968758D01*
X150313844Y-72026624D01*
X150311803Y-72032905D01*
X150311801Y-72032910D01*
X150309658Y-72039506D01*
X150302094Y-72057767D01*
X150295945Y-72069836D01*
X150294238Y-72076208D01*
X150278648Y-72134390D01*
X150276779Y-72140698D01*
X150256129Y-72204253D01*
X150255439Y-72210818D01*
X150254714Y-72217716D01*
X150251111Y-72237157D01*
X150247605Y-72250242D01*
X150247260Y-72256831D01*
X150247259Y-72256836D01*
X150244110Y-72316949D01*
X150243592Y-72323532D01*
X150241846Y-72340139D01*
X150241845Y-72340152D01*
X150241500Y-72343437D01*
X150241500Y-72363449D01*
X150241327Y-72370043D01*
X150237831Y-72436757D01*
X150238863Y-72443273D01*
X150239949Y-72450129D01*
X150241500Y-72469840D01*
X150241500Y-96150899D01*
X150239949Y-96170609D01*
X150237831Y-96183982D01*
X150238176Y-96190570D01*
X150238176Y-96190574D01*
X150241327Y-96250696D01*
X150241500Y-96257290D01*
X150241500Y-96277302D01*
X150241845Y-96280587D01*
X150241846Y-96280600D01*
X150243592Y-96297207D01*
X150244110Y-96303790D01*
X150247076Y-96360399D01*
X150247605Y-96370497D01*
X150251110Y-96383576D01*
X150254714Y-96403022D01*
X150256129Y-96416486D01*
X150276779Y-96480041D01*
X150278646Y-96486342D01*
X150295945Y-96550903D01*
X150298942Y-96556785D01*
X150302094Y-96562972D01*
X150309658Y-96581233D01*
X150311801Y-96587829D01*
X150311803Y-96587834D01*
X150313844Y-96594115D01*
X150323749Y-96611271D01*
X150347253Y-96651981D01*
X150350400Y-96657777D01*
X150359040Y-96674733D01*
X150380737Y-96717316D01*
X150388847Y-96727330D01*
X150389256Y-96727836D01*
X150400457Y-96744134D01*
X150403926Y-96750143D01*
X150403929Y-96750147D01*
X150407229Y-96755863D01*
X150411644Y-96760767D01*
X150411646Y-96760769D01*
X150451954Y-96805535D01*
X150456233Y-96810545D01*
X150468811Y-96826078D01*
X150482936Y-96840203D01*
X150487477Y-96844987D01*
X150522822Y-96884241D01*
X150532203Y-96894660D01*
X150543169Y-96902627D01*
X150558197Y-96915464D01*
X153860984Y-100218251D01*
X153895010Y-100280563D01*
X153889945Y-100351378D01*
X153860986Y-100396438D01*
X151313815Y-102943610D01*
X148716490Y-105540935D01*
X148654178Y-105574961D01*
X148627395Y-105577840D01*
X148041202Y-105577840D01*
X147973081Y-105557838D01*
X147952107Y-105540935D01*
X147871314Y-105460142D01*
X147866806Y-105456985D01*
X147866803Y-105456983D01*
X147788625Y-105402242D01*
X147683763Y-105328817D01*
X147678781Y-105326494D01*
X147678776Y-105326491D01*
X147481239Y-105234379D01*
X147481238Y-105234379D01*
X147476257Y-105232056D01*
X147470949Y-105230634D01*
X147470947Y-105230633D01*
X147260416Y-105174221D01*
X147260414Y-105174221D01*
X147255101Y-105172797D01*
X147027014Y-105152842D01*
X146798927Y-105172797D01*
X146793614Y-105174221D01*
X146793612Y-105174221D01*
X146583081Y-105230633D01*
X146583079Y-105230634D01*
X146577771Y-105232056D01*
X146572790Y-105234379D01*
X146572789Y-105234379D01*
X146375252Y-105326491D01*
X146375247Y-105326494D01*
X146370265Y-105328817D01*
X146265403Y-105402242D01*
X146187225Y-105456983D01*
X146187222Y-105456985D01*
X146182714Y-105460142D01*
X146020816Y-105622040D01*
X146017659Y-105626548D01*
X146017657Y-105626551D01*
X146006005Y-105643192D01*
X145889491Y-105809591D01*
X145887168Y-105814573D01*
X145887165Y-105814578D01*
X145861402Y-105869828D01*
X145792730Y-106017097D01*
X145733471Y-106238253D01*
X145713516Y-106466340D01*
X140720512Y-106466340D01*
X140700557Y-106238253D01*
X140641298Y-106017097D01*
X140572626Y-105869828D01*
X140546863Y-105814578D01*
X140546860Y-105814573D01*
X140544537Y-105809591D01*
X140428023Y-105643192D01*
X140416371Y-105626551D01*
X140416369Y-105626548D01*
X140413212Y-105622040D01*
X140251314Y-105460142D01*
X140246806Y-105456985D01*
X140246803Y-105456983D01*
X140094243Y-105350159D01*
X140049915Y-105294702D01*
X140040514Y-105246946D01*
X140040514Y-105195781D01*
X140041041Y-105184598D01*
X140042716Y-105177105D01*
X140040576Y-105109028D01*
X140040514Y-105105069D01*
X140040514Y-105077158D01*
X140040009Y-105073158D01*
X140039076Y-105061315D01*
X140037936Y-105025044D01*
X140037687Y-105017125D01*
X140032035Y-104997671D01*
X140028027Y-104978314D01*
X140026482Y-104966084D01*
X140026482Y-104966083D01*
X140025488Y-104958217D01*
X140020994Y-104946867D01*
X140009210Y-104917102D01*
X140005365Y-104905872D01*
X139995243Y-104871031D01*
X139995243Y-104871030D01*
X139993032Y-104863421D01*
X139988999Y-104856602D01*
X139988997Y-104856597D01*
X139982721Y-104845986D01*
X139974026Y-104828238D01*
X139966566Y-104809397D01*
X139958505Y-104798301D01*
X139940578Y-104773627D01*
X139934062Y-104763707D01*
X139915594Y-104732479D01*
X139915592Y-104732476D01*
X139911556Y-104725652D01*
X139897235Y-104711331D01*
X139884394Y-104696297D01*
X139877145Y-104686320D01*
X139872486Y-104679907D01*
X139838409Y-104651716D01*
X139829630Y-104643726D01*
X138465405Y-103279500D01*
X138431379Y-103217188D01*
X138428500Y-103190405D01*
X138428500Y-103058224D01*
X138448502Y-102990103D01*
X138502158Y-102943610D01*
X138572432Y-102933506D01*
X138618636Y-102949769D01*
X138651399Y-102969145D01*
X138659010Y-102971356D01*
X138659012Y-102971357D01*
X138711231Y-102986528D01*
X138811169Y-103015562D01*
X138817574Y-103016066D01*
X138817579Y-103016067D01*
X138846042Y-103018307D01*
X138846050Y-103018307D01*
X138848498Y-103018500D01*
X139281502Y-103018500D01*
X139283950Y-103018307D01*
X139283958Y-103018307D01*
X139312421Y-103016067D01*
X139312426Y-103016066D01*
X139318831Y-103015562D01*
X139418769Y-102986528D01*
X139470988Y-102971357D01*
X139470990Y-102971356D01*
X139478601Y-102969145D01*
X139540884Y-102932311D01*
X139614980Y-102888491D01*
X139614983Y-102888489D01*
X139621807Y-102884453D01*
X139739453Y-102766807D01*
X139743489Y-102759983D01*
X139743491Y-102759980D01*
X139820108Y-102630427D01*
X139824145Y-102623601D01*
X139870562Y-102463831D01*
X139873500Y-102426502D01*
X139873500Y-100643498D01*
X139870562Y-100606169D01*
X139824145Y-100446399D01*
X139780940Y-100373344D01*
X139743491Y-100310020D01*
X139743489Y-100310017D01*
X139739453Y-100303193D01*
X139621807Y-100185547D01*
X139614983Y-100181511D01*
X139614980Y-100181509D01*
X139499675Y-100113318D01*
X139478601Y-100100855D01*
X139470990Y-100098644D01*
X139470988Y-100098643D01*
X139406462Y-100079897D01*
X139318831Y-100054438D01*
X139312426Y-100053934D01*
X139312421Y-100053933D01*
X139283958Y-100051693D01*
X139283950Y-100051693D01*
X139281502Y-100051500D01*
X138848498Y-100051500D01*
X138846050Y-100051693D01*
X138846042Y-100051693D01*
X138817579Y-100053933D01*
X138817574Y-100053934D01*
X138811169Y-100054438D01*
X138723538Y-100079897D01*
X138659012Y-100098643D01*
X138659010Y-100098644D01*
X138651399Y-100100855D01*
X138508193Y-100185547D01*
X138505511Y-100188229D01*
X138441139Y-100213502D01*
X138371516Y-100199600D01*
X138355688Y-100189428D01*
X138351807Y-100185547D01*
X138208601Y-100100855D01*
X138200990Y-100098644D01*
X138200988Y-100098643D01*
X138136462Y-100079897D01*
X138048831Y-100054438D01*
X138042426Y-100053934D01*
X138042421Y-100053933D01*
X138013958Y-100051693D01*
X138013950Y-100051693D01*
X138011502Y-100051500D01*
X137578498Y-100051500D01*
X137576050Y-100051693D01*
X137576042Y-100051693D01*
X137547579Y-100053933D01*
X137547574Y-100053934D01*
X137541169Y-100054438D01*
X137453538Y-100079897D01*
X137389012Y-100098643D01*
X137389010Y-100098644D01*
X137381399Y-100100855D01*
X137348637Y-100120231D01*
X137279822Y-100137689D01*
X137212491Y-100115172D01*
X137168022Y-100059827D01*
X137158500Y-100011776D01*
X137158500Y-100009594D01*
X137178502Y-99941473D01*
X137195405Y-99920499D01*
X138187247Y-98928657D01*
X138195537Y-98921113D01*
X138202018Y-98917000D01*
X138248659Y-98867332D01*
X138251413Y-98864491D01*
X138271134Y-98844770D01*
X138273612Y-98841575D01*
X138281318Y-98832553D01*
X138306158Y-98806101D01*
X138311586Y-98800321D01*
X138321346Y-98782568D01*
X138332199Y-98766045D01*
X138339753Y-98756306D01*
X138344613Y-98750041D01*
X138362176Y-98709457D01*
X138367383Y-98698827D01*
X138388695Y-98660060D01*
X138390666Y-98652383D01*
X138390668Y-98652378D01*
X138393732Y-98640442D01*
X138400138Y-98621730D01*
X138405033Y-98610419D01*
X138408181Y-98603145D01*
X138409421Y-98595317D01*
X138409423Y-98595310D01*
X138415099Y-98559476D01*
X138417505Y-98547856D01*
X138426528Y-98512711D01*
X138426528Y-98512710D01*
X138428500Y-98505030D01*
X138428500Y-98484776D01*
X138430051Y-98465065D01*
X138431980Y-98452886D01*
X138433220Y-98445057D01*
X138429059Y-98401038D01*
X138428500Y-98389181D01*
X138428500Y-98108224D01*
X138448502Y-98040103D01*
X138502158Y-97993610D01*
X138572432Y-97983506D01*
X138618636Y-97999769D01*
X138651399Y-98019145D01*
X138659010Y-98021356D01*
X138659012Y-98021357D01*
X138692931Y-98031211D01*
X138811169Y-98065562D01*
X138817574Y-98066066D01*
X138817579Y-98066067D01*
X138846042Y-98068307D01*
X138846050Y-98068307D01*
X138848498Y-98068500D01*
X139281502Y-98068500D01*
X139283950Y-98068307D01*
X139283958Y-98068307D01*
X139312421Y-98066067D01*
X139312426Y-98066066D01*
X139318831Y-98065562D01*
X139437069Y-98031211D01*
X139470988Y-98021357D01*
X139470990Y-98021356D01*
X139478601Y-98019145D01*
X139554051Y-97974524D01*
X139614980Y-97938491D01*
X139614983Y-97938489D01*
X139621807Y-97934453D01*
X139739453Y-97816807D01*
X139743489Y-97809983D01*
X139743491Y-97809980D01*
X139820108Y-97680427D01*
X139824145Y-97673601D01*
X139870562Y-97513831D01*
X139873500Y-97476502D01*
X139873500Y-95693498D01*
X139870562Y-95656169D01*
X139832182Y-95524062D01*
X139826357Y-95504012D01*
X139826356Y-95504010D01*
X139824145Y-95496399D01*
X139784546Y-95429441D01*
X139743491Y-95360020D01*
X139743489Y-95360017D01*
X139739453Y-95353193D01*
X139621807Y-95235547D01*
X139614983Y-95231511D01*
X139614980Y-95231509D01*
X139485427Y-95154892D01*
X139485428Y-95154892D01*
X139478601Y-95150855D01*
X139470990Y-95148644D01*
X139470988Y-95148643D01*
X139406462Y-95129897D01*
X139318831Y-95104438D01*
X139312426Y-95103934D01*
X139312421Y-95103933D01*
X139283958Y-95101693D01*
X139283950Y-95101693D01*
X139281502Y-95101500D01*
X138848498Y-95101500D01*
X138846050Y-95101693D01*
X138846042Y-95101693D01*
X138817579Y-95103933D01*
X138817574Y-95103934D01*
X138811169Y-95104438D01*
X138723538Y-95129897D01*
X138659012Y-95148643D01*
X138659010Y-95148644D01*
X138651399Y-95150855D01*
X138618637Y-95170231D01*
X138549822Y-95187689D01*
X138482491Y-95165172D01*
X138438022Y-95109827D01*
X138428500Y-95061776D01*
X138428500Y-91119594D01*
X138448502Y-91051473D01*
X138465405Y-91030499D01*
X139457247Y-90038657D01*
X139465537Y-90031113D01*
X139472018Y-90027000D01*
X139518659Y-89977332D01*
X139521413Y-89974491D01*
X139541134Y-89954770D01*
X139543612Y-89951575D01*
X139551318Y-89942553D01*
X139576158Y-89916101D01*
X139581586Y-89910321D01*
X139591346Y-89892568D01*
X139602199Y-89876045D01*
X139609753Y-89866306D01*
X139614613Y-89860041D01*
X139632176Y-89819457D01*
X139637383Y-89808827D01*
X139658695Y-89770060D01*
X139660668Y-89762376D01*
X139662907Y-89753658D01*
X139699222Y-89692652D01*
X139762755Y-89660964D01*
X139833334Y-89668655D01*
X139880185Y-89702496D01*
X139921147Y-89749784D01*
X140099349Y-89897730D01*
X140299322Y-90014584D01*
X140304147Y-90016426D01*
X140304148Y-90016427D01*
X140378665Y-90044883D01*
X140515694Y-90097209D01*
X140520760Y-90098240D01*
X140520761Y-90098240D01*
X140573846Y-90109040D01*
X140742656Y-90143385D01*
X140873324Y-90148176D01*
X140968949Y-90151683D01*
X140968953Y-90151683D01*
X140974113Y-90151872D01*
X140979233Y-90151216D01*
X140979235Y-90151216D01*
X141052270Y-90141860D01*
X141203847Y-90122442D01*
X141208795Y-90120957D01*
X141208802Y-90120956D01*
X141420747Y-90057369D01*
X141425690Y-90055886D01*
X141473613Y-90032409D01*
X141629049Y-89956262D01*
X141629052Y-89956260D01*
X141633684Y-89953991D01*
X141822243Y-89819494D01*
X141986303Y-89656005D01*
X142121458Y-89467917D01*
X142168641Y-89372450D01*
X142221784Y-89264922D01*
X142221785Y-89264920D01*
X142224078Y-89260280D01*
X142291408Y-89038671D01*
X142321640Y-88809041D01*
X142323327Y-88740000D01*
X142317032Y-88663434D01*
X142304773Y-88514318D01*
X142304772Y-88514312D01*
X142304349Y-88509167D01*
X142247925Y-88284533D01*
X142245866Y-88279797D01*
X142157630Y-88076868D01*
X142157628Y-88076865D01*
X142155570Y-88072131D01*
X142029764Y-87877665D01*
X141873887Y-87706358D01*
X141869836Y-87703159D01*
X141869832Y-87703155D01*
X141696177Y-87566011D01*
X141696172Y-87566008D01*
X141692123Y-87562810D01*
X141687607Y-87560317D01*
X141687604Y-87560315D01*
X141493879Y-87453373D01*
X141493875Y-87453371D01*
X141489355Y-87450876D01*
X141484486Y-87449152D01*
X141484482Y-87449150D01*
X141275903Y-87375288D01*
X141275899Y-87375287D01*
X141271028Y-87373562D01*
X141265935Y-87372655D01*
X141265932Y-87372654D01*
X141048095Y-87333851D01*
X141048089Y-87333850D01*
X141043006Y-87332945D01*
X140970096Y-87332054D01*
X140816581Y-87330179D01*
X140816579Y-87330179D01*
X140811411Y-87330116D01*
X140582464Y-87365150D01*
X140362314Y-87437106D01*
X140357726Y-87439494D01*
X140357722Y-87439496D01*
X140209939Y-87516427D01*
X140156872Y-87544052D01*
X140152739Y-87547155D01*
X140152736Y-87547157D01*
X139975790Y-87680012D01*
X139971655Y-87683117D01*
X139915593Y-87741783D01*
X139854069Y-87777211D01*
X139783157Y-87773754D01*
X139725371Y-87732508D01*
X139699057Y-87666567D01*
X139698500Y-87654730D01*
X139698500Y-87066793D01*
X139700732Y-87043184D01*
X139700790Y-87042881D01*
X139700790Y-87042877D01*
X139702275Y-87035094D01*
X139698749Y-86979049D01*
X139698500Y-86971138D01*
X139698500Y-86955144D01*
X139696494Y-86939270D01*
X139695751Y-86931402D01*
X139692723Y-86883263D01*
X139692723Y-86883262D01*
X139692225Y-86875350D01*
X139689679Y-86867513D01*
X139684506Y-86844369D01*
X139684468Y-86844065D01*
X139684467Y-86844060D01*
X139683474Y-86836203D01*
X139680558Y-86828838D01*
X139680557Y-86828834D01*
X139662801Y-86783989D01*
X139660129Y-86776570D01*
X139642764Y-86723125D01*
X139638514Y-86716428D01*
X139638350Y-86716169D01*
X139627585Y-86695042D01*
X139627471Y-86694754D01*
X139627468Y-86694749D01*
X139624552Y-86687383D01*
X139619896Y-86680975D01*
X139619893Y-86680969D01*
X139591542Y-86641948D01*
X139587092Y-86635401D01*
X139557000Y-86587982D01*
X139550993Y-86582341D01*
X139535312Y-86564554D01*
X139535134Y-86564309D01*
X139535132Y-86564307D01*
X139530472Y-86557893D01*
X139513216Y-86543617D01*
X139487204Y-86522097D01*
X139481270Y-86516866D01*
X139446102Y-86483842D01*
X139446099Y-86483840D01*
X139440321Y-86478414D01*
X139433097Y-86474442D01*
X139413494Y-86461119D01*
X139413254Y-86460920D01*
X139413247Y-86460916D01*
X139407144Y-86455867D01*
X139356324Y-86431953D01*
X139349292Y-86428371D01*
X139300060Y-86401305D01*
X139292385Y-86399335D01*
X139292379Y-86399332D01*
X139292081Y-86399256D01*
X139269772Y-86391224D01*
X139269497Y-86391094D01*
X139269489Y-86391091D01*
X139262318Y-86387717D01*
X139207151Y-86377194D01*
X139199442Y-86375471D01*
X139164655Y-86366539D01*
X139152707Y-86363471D01*
X139152706Y-86363471D01*
X139145030Y-86361500D01*
X139136793Y-86361500D01*
X139113184Y-86359268D01*
X139112881Y-86359210D01*
X139112877Y-86359210D01*
X139105094Y-86357725D01*
X139049049Y-86361251D01*
X139041138Y-86361500D01*
X134063768Y-86361500D01*
X134052585Y-86360973D01*
X134045092Y-86359298D01*
X134037166Y-86359547D01*
X134037165Y-86359547D01*
X133977002Y-86361438D01*
X133973044Y-86361500D01*
X133945144Y-86361500D01*
X133941154Y-86362004D01*
X133929320Y-86362936D01*
X133885111Y-86364326D01*
X133877495Y-86366539D01*
X133877493Y-86366539D01*
X133865652Y-86369979D01*
X133846293Y-86373988D01*
X133844983Y-86374154D01*
X133826203Y-86376526D01*
X133818837Y-86379442D01*
X133818831Y-86379444D01*
X133785098Y-86392800D01*
X133773868Y-86396645D01*
X133739017Y-86406770D01*
X133731407Y-86408981D01*
X133724584Y-86413016D01*
X133713966Y-86419295D01*
X133696213Y-86427992D01*
X133695284Y-86428360D01*
X133677383Y-86435448D01*
X133653923Y-86452493D01*
X133641612Y-86461437D01*
X133631695Y-86467951D01*
X133593638Y-86490458D01*
X133579317Y-86504779D01*
X133564284Y-86517619D01*
X133547893Y-86529528D01*
X133524428Y-86557893D01*
X133519712Y-86563593D01*
X133511722Y-86572374D01*
X132957742Y-87126353D01*
X132949463Y-87133887D01*
X132942982Y-87138000D01*
X132922649Y-87159653D01*
X132896357Y-87187651D01*
X132893602Y-87190493D01*
X132873865Y-87210230D01*
X132871385Y-87213427D01*
X132863682Y-87222447D01*
X132833414Y-87254679D01*
X132829595Y-87261625D01*
X132829593Y-87261628D01*
X132823652Y-87272434D01*
X132812801Y-87288953D01*
X132800386Y-87304959D01*
X132797241Y-87312228D01*
X132797238Y-87312232D01*
X132782826Y-87345537D01*
X132777609Y-87356187D01*
X132756305Y-87394940D01*
X132754334Y-87402615D01*
X132754334Y-87402616D01*
X132751267Y-87414562D01*
X132744863Y-87433266D01*
X132736819Y-87451855D01*
X132735648Y-87459247D01*
X132697541Y-87518915D01*
X132672944Y-87535685D01*
X132656872Y-87544052D01*
X132652739Y-87547155D01*
X132652736Y-87547157D01*
X132475790Y-87680012D01*
X132471655Y-87683117D01*
X132311639Y-87850564D01*
X132308725Y-87854836D01*
X132308724Y-87854837D01*
X132293152Y-87877665D01*
X132181119Y-88041899D01*
X132083602Y-88251981D01*
X132021707Y-88475169D01*
X131997095Y-88705469D01*
X131997392Y-88710622D01*
X131997392Y-88710625D01*
X132003067Y-88809041D01*
X132010427Y-88936697D01*
X132011564Y-88941743D01*
X132011565Y-88941749D01*
X132043741Y-89084523D01*
X132061346Y-89162642D01*
X132063288Y-89167424D01*
X132063289Y-89167428D01*
X132146540Y-89372450D01*
X132148484Y-89377237D01*
X132269501Y-89574719D01*
X132421147Y-89749784D01*
X132599349Y-89897730D01*
X132799322Y-90014584D01*
X132804147Y-90016426D01*
X132804148Y-90016427D01*
X132878665Y-90044883D01*
X133015694Y-90097209D01*
X133020760Y-90098240D01*
X133020761Y-90098240D01*
X133073846Y-90109040D01*
X133242656Y-90143385D01*
X133373324Y-90148176D01*
X133468949Y-90151683D01*
X133468953Y-90151683D01*
X133474113Y-90151872D01*
X133479233Y-90151216D01*
X133479235Y-90151216D01*
X133552270Y-90141860D01*
X133703847Y-90122442D01*
X133708795Y-90120957D01*
X133708802Y-90120956D01*
X133920747Y-90057369D01*
X133925690Y-90055886D01*
X133973613Y-90032409D01*
X134129049Y-89956262D01*
X134129052Y-89956260D01*
X134133684Y-89953991D01*
X134322243Y-89819494D01*
X134486303Y-89656005D01*
X134621458Y-89467917D01*
X134668641Y-89372450D01*
X134721784Y-89264922D01*
X134721785Y-89264920D01*
X134724078Y-89260280D01*
X134791408Y-89038671D01*
X134821640Y-88809041D01*
X134823327Y-88740000D01*
X134817032Y-88663434D01*
X134804773Y-88514318D01*
X134804772Y-88514312D01*
X134804349Y-88509167D01*
X134747925Y-88284533D01*
X134745866Y-88279797D01*
X134657630Y-88076868D01*
X134657628Y-88076865D01*
X134655570Y-88072131D01*
X134529764Y-87877665D01*
X134494854Y-87839299D01*
X134463802Y-87775453D01*
X134472198Y-87704955D01*
X134517375Y-87650186D01*
X134588048Y-87628500D01*
X135979158Y-87628500D01*
X136047279Y-87648502D01*
X136093772Y-87702158D01*
X136103876Y-87772432D01*
X136070252Y-87841551D01*
X136061639Y-87850564D01*
X136058725Y-87854836D01*
X136058724Y-87854837D01*
X136043152Y-87877665D01*
X135931119Y-88041899D01*
X135833602Y-88251981D01*
X135771707Y-88475169D01*
X135747095Y-88705469D01*
X135747392Y-88710622D01*
X135747392Y-88710625D01*
X135753067Y-88809041D01*
X135760427Y-88936697D01*
X135761566Y-88941749D01*
X135761566Y-88941752D01*
X135801623Y-89119500D01*
X135797087Y-89190351D01*
X135767801Y-89236295D01*
X132926631Y-92077464D01*
X132864319Y-92111490D01*
X132837536Y-92114369D01*
X126115085Y-92114369D01*
X126046964Y-92094367D01*
X126011872Y-92060640D01*
X125905048Y-91908080D01*
X125905046Y-91908077D01*
X125901889Y-91903569D01*
X125739991Y-91741671D01*
X125735483Y-91738514D01*
X125735480Y-91738512D01*
X125657302Y-91683771D01*
X125552440Y-91610346D01*
X125547458Y-91608023D01*
X125547453Y-91608020D01*
X125349916Y-91515908D01*
X125349915Y-91515908D01*
X125344934Y-91513585D01*
X125339626Y-91512163D01*
X125339624Y-91512162D01*
X125129093Y-91455750D01*
X125129091Y-91455750D01*
X125123778Y-91454326D01*
X124895691Y-91434371D01*
X124667604Y-91454326D01*
X124662291Y-91455750D01*
X124662289Y-91455750D01*
X124451758Y-91512162D01*
X124451756Y-91512163D01*
X124446448Y-91513585D01*
X124441467Y-91515908D01*
X124441466Y-91515908D01*
X124243929Y-91608020D01*
X124243924Y-91608023D01*
X124238942Y-91610346D01*
X124134080Y-91683771D01*
X124055902Y-91738512D01*
X124055899Y-91738514D01*
X124051391Y-91741671D01*
X123889493Y-91903569D01*
X123758168Y-92091120D01*
X123755845Y-92096102D01*
X123755842Y-92096107D01*
X123663730Y-92293644D01*
X123661407Y-92298626D01*
X123602148Y-92519782D01*
X123582193Y-92747869D01*
X123602148Y-92975956D01*
X123603572Y-92981269D01*
X123603572Y-92981271D01*
X123656625Y-93179264D01*
X123661407Y-93197112D01*
X123663730Y-93202093D01*
X123663730Y-93202094D01*
X123755842Y-93399631D01*
X123755845Y-93399636D01*
X123758168Y-93404618D01*
X123889493Y-93592169D01*
X124051391Y-93754067D01*
X124055899Y-93757224D01*
X124055902Y-93757226D01*
X124134080Y-93811967D01*
X124238942Y-93885392D01*
X124243924Y-93887715D01*
X124243929Y-93887718D01*
X124441466Y-93979830D01*
X124446448Y-93982153D01*
X124451756Y-93983575D01*
X124451758Y-93983576D01*
X124662289Y-94039988D01*
X124662291Y-94039988D01*
X124667604Y-94041412D01*
X124895691Y-94061367D01*
X125123778Y-94041412D01*
X125129091Y-94039988D01*
X125129093Y-94039988D01*
X125339624Y-93983576D01*
X125339626Y-93983575D01*
X125344934Y-93982153D01*
X125349916Y-93979830D01*
X125547453Y-93887718D01*
X125547458Y-93887715D01*
X125552440Y-93885392D01*
X125657302Y-93811967D01*
X125735480Y-93757226D01*
X125735483Y-93757224D01*
X125739991Y-93754067D01*
X125901889Y-93592169D01*
X126011872Y-93435098D01*
X126067329Y-93390770D01*
X126115085Y-93381369D01*
X133073364Y-93381369D01*
X133084547Y-93381896D01*
X133092040Y-93383571D01*
X133099966Y-93383322D01*
X133099967Y-93383322D01*
X133160117Y-93381431D01*
X133164076Y-93381369D01*
X133191987Y-93381369D01*
X133195922Y-93380872D01*
X133195987Y-93380864D01*
X133207824Y-93379931D01*
X133240082Y-93378917D01*
X133244101Y-93378791D01*
X133252020Y-93378542D01*
X133271474Y-93372890D01*
X133290831Y-93368882D01*
X133303061Y-93367337D01*
X133303062Y-93367337D01*
X133310928Y-93366343D01*
X133318299Y-93363424D01*
X133318301Y-93363424D01*
X133352043Y-93350065D01*
X133363273Y-93346220D01*
X133398114Y-93336098D01*
X133398115Y-93336098D01*
X133405724Y-93333887D01*
X133412543Y-93329854D01*
X133412548Y-93329852D01*
X133423159Y-93323576D01*
X133440907Y-93314881D01*
X133459748Y-93307421D01*
X133495518Y-93281433D01*
X133505438Y-93274917D01*
X133536666Y-93256449D01*
X133536669Y-93256447D01*
X133543493Y-93252411D01*
X133557814Y-93238090D01*
X133572848Y-93225249D01*
X133582825Y-93218000D01*
X133589238Y-93213341D01*
X133617429Y-93179264D01*
X133625419Y-93170485D01*
X135676405Y-91119499D01*
X135738717Y-91085473D01*
X135809532Y-91090538D01*
X135866368Y-91133085D01*
X135891179Y-91199605D01*
X135891500Y-91208594D01*
X135891500Y-95061776D01*
X135871498Y-95129897D01*
X135817842Y-95176390D01*
X135747568Y-95186494D01*
X135701364Y-95170231D01*
X135668601Y-95150855D01*
X135660990Y-95148644D01*
X135660988Y-95148643D01*
X135596462Y-95129897D01*
X135508831Y-95104438D01*
X135502426Y-95103934D01*
X135502421Y-95103933D01*
X135473958Y-95101693D01*
X135473950Y-95101693D01*
X135471502Y-95101500D01*
X135038498Y-95101500D01*
X135036050Y-95101693D01*
X135036042Y-95101693D01*
X135007579Y-95103933D01*
X135007574Y-95103934D01*
X135001169Y-95104438D01*
X134913538Y-95129897D01*
X134849012Y-95148643D01*
X134849010Y-95148644D01*
X134841399Y-95150855D01*
X134834572Y-95154892D01*
X134834573Y-95154892D01*
X134705020Y-95231509D01*
X134705017Y-95231511D01*
X134698193Y-95235547D01*
X134580547Y-95353193D01*
X134576511Y-95360017D01*
X134576509Y-95360020D01*
X134535454Y-95429441D01*
X134495855Y-95496399D01*
X134493644Y-95504010D01*
X134493643Y-95504012D01*
X134487818Y-95524062D01*
X134449438Y-95656169D01*
X134446500Y-95693498D01*
X134446500Y-95760500D01*
X134426498Y-95828621D01*
X134372842Y-95875114D01*
X134320500Y-95886500D01*
X133784602Y-95886500D01*
X133773419Y-95885973D01*
X133765926Y-95884298D01*
X133758000Y-95884547D01*
X133757999Y-95884547D01*
X133697836Y-95886438D01*
X133693878Y-95886500D01*
X133665978Y-95886500D01*
X133661988Y-95887004D01*
X133650154Y-95887936D01*
X133605945Y-95889326D01*
X133598331Y-95891538D01*
X133598326Y-95891539D01*
X133586493Y-95894977D01*
X133567130Y-95898988D01*
X133547037Y-95901526D01*
X133539670Y-95904443D01*
X133539665Y-95904444D01*
X133505926Y-95917802D01*
X133494699Y-95921646D01*
X133452241Y-95933982D01*
X133445415Y-95938019D01*
X133434806Y-95944293D01*
X133417058Y-95952988D01*
X133398217Y-95960448D01*
X133391801Y-95965110D01*
X133391800Y-95965110D01*
X133362447Y-95986436D01*
X133352527Y-95992952D01*
X133321299Y-96011420D01*
X133321296Y-96011422D01*
X133314472Y-96015458D01*
X133300151Y-96029779D01*
X133285118Y-96042619D01*
X133268727Y-96054528D01*
X133263675Y-96060635D01*
X133257894Y-96066063D01*
X133255662Y-96063686D01*
X133209307Y-96095033D01*
X133138379Y-96096706D01*
X133084781Y-96082344D01*
X133084770Y-96082342D01*
X133079459Y-96080919D01*
X132851372Y-96060964D01*
X132623285Y-96080919D01*
X132617972Y-96082343D01*
X132617970Y-96082343D01*
X132407439Y-96138755D01*
X132407437Y-96138756D01*
X132402129Y-96140178D01*
X132397148Y-96142501D01*
X132397147Y-96142501D01*
X132199610Y-96234613D01*
X132199605Y-96234616D01*
X132194623Y-96236939D01*
X132099150Y-96303790D01*
X132011583Y-96365105D01*
X132011580Y-96365107D01*
X132007072Y-96368264D01*
X131845174Y-96530162D01*
X131842017Y-96534670D01*
X131842015Y-96534673D01*
X131735191Y-96687233D01*
X131679734Y-96731561D01*
X131631978Y-96740962D01*
X130034306Y-96740962D01*
X130023123Y-96740435D01*
X130015630Y-96738760D01*
X130007704Y-96739009D01*
X130007703Y-96739009D01*
X129947540Y-96740900D01*
X129943582Y-96740962D01*
X129915682Y-96740962D01*
X129911692Y-96741466D01*
X129899858Y-96742398D01*
X129855649Y-96743788D01*
X129848035Y-96746000D01*
X129848030Y-96746001D01*
X129836197Y-96749439D01*
X129816834Y-96753450D01*
X129796741Y-96755988D01*
X129789374Y-96758905D01*
X129789369Y-96758906D01*
X129755630Y-96772264D01*
X129744403Y-96776108D01*
X129701945Y-96788444D01*
X129695119Y-96792481D01*
X129684510Y-96798755D01*
X129666762Y-96807450D01*
X129647921Y-96814910D01*
X129641505Y-96819572D01*
X129641504Y-96819572D01*
X129612151Y-96840898D01*
X129602231Y-96847414D01*
X129571003Y-96865882D01*
X129571000Y-96865884D01*
X129564176Y-96869920D01*
X129549855Y-96884241D01*
X129534822Y-96897081D01*
X129518431Y-96908990D01*
X129490240Y-96943067D01*
X129482250Y-96951846D01*
X126736631Y-99697464D01*
X126674319Y-99731490D01*
X126647536Y-99734369D01*
X126115085Y-99734369D01*
X126046964Y-99714367D01*
X126011872Y-99680640D01*
X125905048Y-99528080D01*
X125905046Y-99528077D01*
X125901889Y-99523569D01*
X125739991Y-99361671D01*
X125735483Y-99358514D01*
X125735480Y-99358512D01*
X125612536Y-99272426D01*
X125552440Y-99230346D01*
X125547458Y-99228023D01*
X125547453Y-99228020D01*
X125349916Y-99135908D01*
X125349915Y-99135908D01*
X125344934Y-99133585D01*
X125339626Y-99132163D01*
X125339624Y-99132162D01*
X125129093Y-99075750D01*
X125129091Y-99075750D01*
X125123778Y-99074326D01*
X124895691Y-99054371D01*
X124891120Y-99054771D01*
X124823269Y-99034848D01*
X124802295Y-99017945D01*
X120305405Y-94521055D01*
X120271379Y-94458743D01*
X120268500Y-94431960D01*
X120268500Y-80788134D01*
X129401500Y-80788134D01*
X129408255Y-80850316D01*
X129459385Y-80986705D01*
X129546739Y-81103261D01*
X129663295Y-81190615D01*
X129799684Y-81241745D01*
X129861866Y-81248500D01*
X133458134Y-81248500D01*
X133520316Y-81241745D01*
X133656705Y-81190615D01*
X133773261Y-81103261D01*
X133860615Y-80986705D01*
X133911745Y-80850316D01*
X133918500Y-80788134D01*
X140401500Y-80788134D01*
X140408255Y-80850316D01*
X140459385Y-80986705D01*
X140546739Y-81103261D01*
X140663295Y-81190615D01*
X140799684Y-81241745D01*
X140861866Y-81248500D01*
X144458134Y-81248500D01*
X144520316Y-81241745D01*
X144656705Y-81190615D01*
X144773261Y-81103261D01*
X144860615Y-80986705D01*
X144911745Y-80850316D01*
X144918500Y-80788134D01*
X144918500Y-76691866D01*
X144911745Y-76629684D01*
X144860615Y-76493295D01*
X144773261Y-76376739D01*
X144656705Y-76289385D01*
X144520316Y-76238255D01*
X144458134Y-76231500D01*
X140861866Y-76231500D01*
X140799684Y-76238255D01*
X140663295Y-76289385D01*
X140546739Y-76376739D01*
X140459385Y-76493295D01*
X140408255Y-76629684D01*
X140401500Y-76691866D01*
X140401500Y-80788134D01*
X133918500Y-80788134D01*
X133918500Y-76691866D01*
X133911745Y-76629684D01*
X133860615Y-76493295D01*
X133773261Y-76376739D01*
X133656705Y-76289385D01*
X133520316Y-76238255D01*
X133458134Y-76231500D01*
X129861866Y-76231500D01*
X129799684Y-76238255D01*
X129663295Y-76289385D01*
X129546739Y-76376739D01*
X129459385Y-76493295D01*
X129408255Y-76629684D01*
X129401500Y-76691866D01*
X129401500Y-80788134D01*
X120268500Y-80788134D01*
X120268500Y-72810218D01*
X120288502Y-72742097D01*
X120305405Y-72721123D01*
X128176605Y-64849924D01*
X128238917Y-64815898D01*
X128265173Y-64813076D01*
X128270000Y-64813498D01*
X128498087Y-64793543D01*
X128503400Y-64792119D01*
X128503402Y-64792119D01*
X128713933Y-64735707D01*
X128713935Y-64735706D01*
X128719243Y-64734284D01*
X128724225Y-64731961D01*
X128921762Y-64639849D01*
X128921767Y-64639846D01*
X128926749Y-64637523D01*
X129031611Y-64564098D01*
X129109789Y-64509357D01*
X129109792Y-64509355D01*
X129114300Y-64506198D01*
X129276198Y-64344300D01*
X129407523Y-64156749D01*
X129409846Y-64151767D01*
X129409849Y-64151762D01*
X129501961Y-63954225D01*
X129501961Y-63954224D01*
X129504284Y-63949243D01*
X129563543Y-63728087D01*
X129583498Y-63500000D01*
X134576502Y-63500000D01*
X134596457Y-63728087D01*
X134655716Y-63949243D01*
X134658039Y-63954224D01*
X134658039Y-63954225D01*
X134750151Y-64151762D01*
X134750154Y-64151767D01*
X134752477Y-64156749D01*
X134883802Y-64344300D01*
X135045700Y-64506198D01*
X135050208Y-64509355D01*
X135050211Y-64509357D01*
X135128389Y-64564098D01*
X135233251Y-64637523D01*
X135238233Y-64639846D01*
X135238238Y-64639849D01*
X135435775Y-64731961D01*
X135440757Y-64734284D01*
X135446065Y-64735706D01*
X135446067Y-64735707D01*
X135656598Y-64792119D01*
X135656600Y-64792119D01*
X135661913Y-64793543D01*
X135890000Y-64813498D01*
X136118087Y-64793543D01*
X136123400Y-64792119D01*
X136123402Y-64792119D01*
X136333933Y-64735707D01*
X136333935Y-64735706D01*
X136339243Y-64734284D01*
X136344225Y-64731961D01*
X136541762Y-64639849D01*
X136541767Y-64639846D01*
X136546749Y-64637523D01*
X136651611Y-64564098D01*
X136729789Y-64509357D01*
X136729792Y-64509355D01*
X136734300Y-64506198D01*
X136896198Y-64344300D01*
X137027523Y-64156749D01*
X137029846Y-64151767D01*
X137029849Y-64151762D01*
X137121961Y-63954225D01*
X137121961Y-63954224D01*
X137124284Y-63949243D01*
X137183543Y-63728087D01*
X137203498Y-63500000D01*
X137203098Y-63495429D01*
X137223021Y-63427578D01*
X137239924Y-63406604D01*
X138761124Y-61885405D01*
X138823436Y-61851379D01*
X138850219Y-61848500D01*
X141088533Y-61848500D01*
X141156654Y-61868502D01*
X141183771Y-61892003D01*
X141191359Y-61900763D01*
X141251147Y-61969784D01*
X141351501Y-62053099D01*
X141422756Y-62112256D01*
X141429349Y-62117730D01*
X141629322Y-62234584D01*
X141845694Y-62317209D01*
X141850760Y-62318240D01*
X141850761Y-62318240D01*
X141903846Y-62329040D01*
X142072656Y-62363385D01*
X142202089Y-62368131D01*
X142298949Y-62371683D01*
X142298953Y-62371683D01*
X142304113Y-62371872D01*
X142309233Y-62371216D01*
X142309235Y-62371216D01*
X142387974Y-62361129D01*
X142533847Y-62342442D01*
X142538795Y-62340957D01*
X142538802Y-62340956D01*
X142750747Y-62277369D01*
X142755690Y-62275886D01*
X142776450Y-62265716D01*
X142959049Y-62176262D01*
X142959052Y-62176260D01*
X142963684Y-62173991D01*
X143152243Y-62039494D01*
X143197309Y-61994585D01*
X143259681Y-61960669D01*
X143330487Y-61965857D01*
X143387249Y-62008503D01*
X143404231Y-62039607D01*
X143429385Y-62106705D01*
X143516739Y-62223261D01*
X143633295Y-62310615D01*
X143769684Y-62361745D01*
X143831866Y-62368500D01*
X145728134Y-62368500D01*
X145790316Y-62361745D01*
X145926705Y-62310615D01*
X146043261Y-62223261D01*
X146130615Y-62106705D01*
X146181745Y-61970316D01*
X146188500Y-61908134D01*
X146188500Y-60011866D01*
X146181745Y-59949684D01*
X146130615Y-59813295D01*
X146043261Y-59696739D01*
X145926705Y-59609385D01*
X145790316Y-59558255D01*
X145728134Y-59551500D01*
X143831866Y-59551500D01*
X143769684Y-59558255D01*
X143633295Y-59609385D01*
X143516739Y-59696739D01*
X143429385Y-59813295D01*
X143426233Y-59821703D01*
X143426232Y-59821705D01*
X143405538Y-59876906D01*
X143362897Y-59933671D01*
X143296335Y-59958371D01*
X143226986Y-59943164D01*
X143204167Y-59926666D01*
X143203887Y-59926358D01*
X143141270Y-59876906D01*
X143026177Y-59786011D01*
X143026172Y-59786008D01*
X143022123Y-59782810D01*
X143017607Y-59780317D01*
X143017604Y-59780315D01*
X142823879Y-59673373D01*
X142823875Y-59673371D01*
X142819355Y-59670876D01*
X142814486Y-59669152D01*
X142814482Y-59669150D01*
X142605903Y-59595288D01*
X142605899Y-59595287D01*
X142601028Y-59593562D01*
X142595935Y-59592655D01*
X142595932Y-59592654D01*
X142378095Y-59553851D01*
X142378089Y-59553850D01*
X142373006Y-59552945D01*
X142300096Y-59552054D01*
X142146581Y-59550179D01*
X142146579Y-59550179D01*
X142141411Y-59550116D01*
X141912464Y-59585150D01*
X141692314Y-59657106D01*
X141687726Y-59659494D01*
X141687722Y-59659496D01*
X141528632Y-59742313D01*
X141486872Y-59764052D01*
X141482739Y-59767155D01*
X141482736Y-59767157D01*
X141305790Y-59900012D01*
X141301655Y-59903117D01*
X141284170Y-59921414D01*
X141177965Y-60032551D01*
X141116441Y-60067981D01*
X141086871Y-60071500D01*
X138509839Y-60071500D01*
X138490128Y-60069949D01*
X138483272Y-60068863D01*
X138476756Y-60067831D01*
X138470168Y-60068176D01*
X138470164Y-60068176D01*
X138410043Y-60071327D01*
X138403449Y-60071500D01*
X138383437Y-60071500D01*
X138380152Y-60071845D01*
X138380139Y-60071846D01*
X138363532Y-60073592D01*
X138356960Y-60074109D01*
X138334028Y-60075311D01*
X138296836Y-60077259D01*
X138296831Y-60077260D01*
X138290242Y-60077605D01*
X138277157Y-60081111D01*
X138257717Y-60084714D01*
X138244253Y-60086129D01*
X138180698Y-60106779D01*
X138174397Y-60108646D01*
X138109836Y-60125945D01*
X138103954Y-60128942D01*
X138097767Y-60132094D01*
X138079506Y-60139658D01*
X138072910Y-60141801D01*
X138072905Y-60141803D01*
X138066624Y-60143844D01*
X138013383Y-60174583D01*
X138008758Y-60177253D01*
X138002962Y-60180400D01*
X137976697Y-60193783D01*
X137943423Y-60210737D01*
X137938299Y-60214886D01*
X137938293Y-60214890D01*
X137932894Y-60219262D01*
X137916609Y-60230454D01*
X137911533Y-60233385D01*
X137904876Y-60237229D01*
X137899973Y-60241644D01*
X137899970Y-60241646D01*
X137890229Y-60250417D01*
X137856458Y-60280826D01*
X137855225Y-60281936D01*
X137850204Y-60286224D01*
X137842909Y-60292131D01*
X137834660Y-60298811D01*
X137820526Y-60312945D01*
X137815742Y-60317486D01*
X137766079Y-60362203D01*
X137762200Y-60367542D01*
X137758119Y-60373159D01*
X137745278Y-60388193D01*
X135983396Y-62150076D01*
X135921084Y-62184101D01*
X135894828Y-62186924D01*
X135890000Y-62186502D01*
X135661913Y-62206457D01*
X135656600Y-62207881D01*
X135656598Y-62207881D01*
X135446067Y-62264293D01*
X135446065Y-62264294D01*
X135440757Y-62265716D01*
X135435776Y-62268039D01*
X135435775Y-62268039D01*
X135238238Y-62360151D01*
X135238233Y-62360154D01*
X135233251Y-62362477D01*
X135220104Y-62371683D01*
X135050211Y-62490643D01*
X135050208Y-62490645D01*
X135045700Y-62493802D01*
X134883802Y-62655700D01*
X134752477Y-62843251D01*
X134750154Y-62848233D01*
X134750151Y-62848238D01*
X134658039Y-63045775D01*
X134655716Y-63050757D01*
X134596457Y-63271913D01*
X134576502Y-63500000D01*
X129583498Y-63500000D01*
X129563543Y-63271913D01*
X129504284Y-63050757D01*
X129501961Y-63045775D01*
X129409849Y-62848238D01*
X129409846Y-62848233D01*
X129407523Y-62843251D01*
X129276198Y-62655700D01*
X129114300Y-62493802D01*
X129109792Y-62490645D01*
X129109789Y-62490643D01*
X128939896Y-62371683D01*
X128926749Y-62362477D01*
X128921767Y-62360154D01*
X128921762Y-62360151D01*
X128724225Y-62268039D01*
X128724224Y-62268039D01*
X128719243Y-62265716D01*
X128713935Y-62264294D01*
X128713933Y-62264293D01*
X128503402Y-62207881D01*
X128503400Y-62207881D01*
X128498087Y-62206457D01*
X128270000Y-62186502D01*
X128265429Y-62186902D01*
X128197578Y-62166979D01*
X128176604Y-62150076D01*
X126307354Y-60280826D01*
X126294517Y-60265798D01*
X126286550Y-60254832D01*
X126253972Y-60225498D01*
X126236877Y-60210106D01*
X126232093Y-60205565D01*
X126217968Y-60191440D01*
X126202435Y-60178862D01*
X126197425Y-60174583D01*
X126152659Y-60134275D01*
X126152657Y-60134273D01*
X126147753Y-60129858D01*
X126142037Y-60126558D01*
X126142033Y-60126555D01*
X126136024Y-60123086D01*
X126119726Y-60111885D01*
X126119220Y-60111476D01*
X126109206Y-60103366D01*
X126103328Y-60100371D01*
X126103325Y-60100369D01*
X126049667Y-60073029D01*
X126043871Y-60069882D01*
X126040182Y-60067752D01*
X125986005Y-60036473D01*
X125979724Y-60034432D01*
X125979719Y-60034430D01*
X125973123Y-60032287D01*
X125954862Y-60024723D01*
X125948675Y-60021571D01*
X125942793Y-60018574D01*
X125878232Y-60001275D01*
X125871931Y-59999408D01*
X125808376Y-59978758D01*
X125794912Y-59977343D01*
X125775472Y-59973740D01*
X125762387Y-59970234D01*
X125755798Y-59969889D01*
X125755793Y-59969888D01*
X125718601Y-59967940D01*
X125695669Y-59966738D01*
X125689097Y-59966221D01*
X125672490Y-59964475D01*
X125672477Y-59964474D01*
X125669192Y-59964129D01*
X125649180Y-59964129D01*
X125642586Y-59963956D01*
X125582464Y-59960805D01*
X125582460Y-59960805D01*
X125575872Y-59960460D01*
X125569356Y-59961492D01*
X125562500Y-59962578D01*
X125542789Y-59964129D01*
X121812703Y-59964129D01*
X121744582Y-59944127D01*
X121698089Y-59890471D01*
X121686703Y-59838129D01*
X121686703Y-59804495D01*
X121679948Y-59742313D01*
X121628818Y-59605924D01*
X121541464Y-59489368D01*
X121424908Y-59402014D01*
X121288519Y-59350884D01*
X121226337Y-59344129D01*
X117130069Y-59344129D01*
X117067887Y-59350884D01*
X116931498Y-59402014D01*
X116814942Y-59489368D01*
X116727588Y-59605924D01*
X116676458Y-59742313D01*
X116669703Y-59804495D01*
X116669703Y-61900763D01*
X112268000Y-61900763D01*
X112268000Y-54663630D01*
X113169703Y-54663630D01*
X113169905Y-54666138D01*
X113169905Y-54666143D01*
X113181067Y-54804866D01*
X113184263Y-54844594D01*
X113185469Y-54849502D01*
X113185469Y-54849505D01*
X113216049Y-54974006D01*
X113242166Y-55080335D01*
X113244141Y-55084987D01*
X113244142Y-55084991D01*
X113270287Y-55146585D01*
X113337015Y-55303785D01*
X113466370Y-55509196D01*
X113469715Y-55512990D01*
X113623553Y-55687487D01*
X113623556Y-55687490D01*
X113626901Y-55691284D01*
X113630809Y-55694494D01*
X113630810Y-55694495D01*
X113764871Y-55804613D01*
X113814481Y-55845363D01*
X114024281Y-55967470D01*
X114029004Y-55969283D01*
X114246181Y-56052649D01*
X114246185Y-56052650D01*
X114250905Y-56054462D01*
X114255855Y-56055496D01*
X114255858Y-56055497D01*
X114483572Y-56103069D01*
X114483576Y-56103069D01*
X114488523Y-56104103D01*
X114731020Y-56115115D01*
X114736040Y-56114534D01*
X114736044Y-56114534D01*
X114967132Y-56087796D01*
X114967136Y-56087795D01*
X114972159Y-56087214D01*
X114977023Y-56085838D01*
X114977026Y-56085837D01*
X115200872Y-56022495D01*
X115200871Y-56022495D01*
X115205735Y-56021119D01*
X115210311Y-56018985D01*
X115210317Y-56018983D01*
X115421157Y-55920667D01*
X115421161Y-55920665D01*
X115425739Y-55918530D01*
X115452973Y-55900022D01*
X115622322Y-55784931D01*
X115626510Y-55782085D01*
X115802884Y-55615297D01*
X115882687Y-55510919D01*
X115947250Y-55426475D01*
X115947253Y-55426471D01*
X115950323Y-55422455D01*
X116065034Y-55208520D01*
X116144065Y-54978998D01*
X116156769Y-54905446D01*
X117015717Y-54905446D01*
X117016298Y-54910466D01*
X117016298Y-54910470D01*
X117035953Y-55080335D01*
X117043618Y-55146585D01*
X117044994Y-55151449D01*
X117044995Y-55151452D01*
X117086783Y-55299127D01*
X117109713Y-55380161D01*
X117111847Y-55384737D01*
X117111849Y-55384743D01*
X117210165Y-55595583D01*
X117212302Y-55600165D01*
X117348747Y-55800936D01*
X117515535Y-55977310D01*
X117519561Y-55980388D01*
X117519562Y-55980389D01*
X117704357Y-56121676D01*
X117704361Y-56121679D01*
X117708377Y-56124749D01*
X117922312Y-56239460D01*
X118151834Y-56318491D01*
X118251181Y-56335651D01*
X118387129Y-56359133D01*
X118387135Y-56359134D01*
X118391039Y-56359808D01*
X118395000Y-56359988D01*
X118395001Y-56359988D01*
X118418709Y-56361065D01*
X118418728Y-56361065D01*
X118420128Y-56361129D01*
X119889204Y-56361129D01*
X119891712Y-56360927D01*
X119891717Y-56360927D01*
X120065127Y-56346975D01*
X120065132Y-56346974D01*
X120070168Y-56346569D01*
X120075076Y-56345363D01*
X120075079Y-56345363D01*
X120300995Y-56289873D01*
X120305909Y-56288666D01*
X120310561Y-56286691D01*
X120310565Y-56286690D01*
X120524701Y-56195794D01*
X120529359Y-56193817D01*
X120635240Y-56127140D01*
X120730491Y-56067157D01*
X120730494Y-56067155D01*
X120734770Y-56064462D01*
X120833625Y-55977310D01*
X120913061Y-55907279D01*
X120913064Y-55907276D01*
X120916858Y-55903931D01*
X121070937Y-55716351D01*
X121141226Y-55595583D01*
X121190502Y-55510919D01*
X121190503Y-55510917D01*
X121193044Y-55506551D01*
X121243427Y-55375298D01*
X121278223Y-55284651D01*
X121278224Y-55284647D01*
X121280036Y-55279927D01*
X121294954Y-55208520D01*
X121328643Y-55047260D01*
X121328643Y-55047256D01*
X121329677Y-55042309D01*
X121340689Y-54799812D01*
X121334197Y-54743703D01*
X121324932Y-54663630D01*
X122169703Y-54663630D01*
X122169905Y-54666138D01*
X122169905Y-54666143D01*
X122181067Y-54804866D01*
X122184263Y-54844594D01*
X122185469Y-54849502D01*
X122185469Y-54849505D01*
X122216049Y-54974006D01*
X122242166Y-55080335D01*
X122244141Y-55084987D01*
X122244142Y-55084991D01*
X122270287Y-55146585D01*
X122337015Y-55303785D01*
X122466370Y-55509196D01*
X122469715Y-55512990D01*
X122623553Y-55687487D01*
X122623556Y-55687490D01*
X122626901Y-55691284D01*
X122630809Y-55694494D01*
X122630810Y-55694495D01*
X122764871Y-55804613D01*
X122814481Y-55845363D01*
X123024281Y-55967470D01*
X123029004Y-55969283D01*
X123246181Y-56052649D01*
X123246185Y-56052650D01*
X123250905Y-56054462D01*
X123255855Y-56055496D01*
X123255858Y-56055497D01*
X123483572Y-56103069D01*
X123483576Y-56103069D01*
X123488523Y-56104103D01*
X123731020Y-56115115D01*
X123736040Y-56114534D01*
X123736044Y-56114534D01*
X123967132Y-56087796D01*
X123967136Y-56087795D01*
X123972159Y-56087214D01*
X123977023Y-56085838D01*
X123977026Y-56085837D01*
X124200872Y-56022495D01*
X124200871Y-56022495D01*
X124205735Y-56021119D01*
X124210311Y-56018985D01*
X124210317Y-56018983D01*
X124421157Y-55920667D01*
X124421161Y-55920665D01*
X124425739Y-55918530D01*
X124452973Y-55900022D01*
X124622322Y-55784931D01*
X124626510Y-55782085D01*
X124802884Y-55615297D01*
X124882687Y-55510919D01*
X124947250Y-55426475D01*
X124947253Y-55426471D01*
X124950323Y-55422455D01*
X125065034Y-55208520D01*
X125144065Y-54978998D01*
X125185382Y-54739793D01*
X125186703Y-54710704D01*
X125186703Y-53041628D01*
X125186501Y-53039115D01*
X125172549Y-52865705D01*
X125172548Y-52865700D01*
X125172143Y-52860664D01*
X125114240Y-52624923D01*
X125019391Y-52401473D01*
X124890036Y-52196062D01*
X124849836Y-52150463D01*
X124732853Y-52017771D01*
X124732850Y-52017768D01*
X124729505Y-52013974D01*
X124623196Y-51926651D01*
X124545831Y-51863103D01*
X124545828Y-51863101D01*
X124541925Y-51859895D01*
X124332125Y-51737788D01*
X124197928Y-51686275D01*
X124110225Y-51652609D01*
X124110221Y-51652608D01*
X124105501Y-51650796D01*
X124100551Y-51649762D01*
X124100548Y-51649761D01*
X123872834Y-51602189D01*
X123872830Y-51602189D01*
X123867883Y-51601155D01*
X123625386Y-51590143D01*
X123620366Y-51590724D01*
X123620362Y-51590724D01*
X123389274Y-51617462D01*
X123389270Y-51617463D01*
X123384247Y-51618044D01*
X123379383Y-51619420D01*
X123379380Y-51619421D01*
X123361283Y-51624542D01*
X123150671Y-51684139D01*
X123146095Y-51686273D01*
X123146089Y-51686275D01*
X122935249Y-51784591D01*
X122935245Y-51784593D01*
X122930667Y-51786728D01*
X122729896Y-51923173D01*
X122553522Y-52089961D01*
X122550444Y-52093987D01*
X122550443Y-52093988D01*
X122409156Y-52278783D01*
X122409153Y-52278787D01*
X122406083Y-52282803D01*
X122291372Y-52496738D01*
X122212341Y-52726260D01*
X122211479Y-52731252D01*
X122188898Y-52861986D01*
X122171024Y-52965465D01*
X122169703Y-52994554D01*
X122169703Y-54663630D01*
X121324932Y-54663630D01*
X121313370Y-54563700D01*
X121313369Y-54563696D01*
X121312788Y-54558673D01*
X121273720Y-54420607D01*
X121248069Y-54329960D01*
X121246693Y-54325097D01*
X121244559Y-54320521D01*
X121244557Y-54320515D01*
X121146241Y-54109675D01*
X121146239Y-54109671D01*
X121144104Y-54105093D01*
X121007659Y-53904322D01*
X120840871Y-53727948D01*
X120836844Y-53724869D01*
X120652049Y-53583582D01*
X120652045Y-53583579D01*
X120648029Y-53580509D01*
X120434094Y-53465798D01*
X120204572Y-53386767D01*
X120105225Y-53369607D01*
X119969277Y-53346125D01*
X119969271Y-53346124D01*
X119965367Y-53345450D01*
X119961406Y-53345270D01*
X119961405Y-53345270D01*
X119937697Y-53344193D01*
X119937678Y-53344193D01*
X119936278Y-53344129D01*
X119624569Y-53344129D01*
X119556448Y-53324127D01*
X119509955Y-53270471D01*
X119499851Y-53200197D01*
X119529345Y-53135617D01*
X119591958Y-53096422D01*
X119622136Y-53088336D01*
X119622138Y-53088335D01*
X119627446Y-53086913D01*
X119724561Y-53041628D01*
X119829965Y-52992478D01*
X119829970Y-52992475D01*
X119834952Y-52990152D01*
X119939814Y-52916727D01*
X120017992Y-52861986D01*
X120017995Y-52861984D01*
X120022503Y-52858827D01*
X120184401Y-52696929D01*
X120231380Y-52629837D01*
X120312569Y-52513886D01*
X120315726Y-52509378D01*
X120318049Y-52504396D01*
X120318052Y-52504391D01*
X120410164Y-52306854D01*
X120410164Y-52306853D01*
X120412487Y-52301872D01*
X120439693Y-52200341D01*
X120470322Y-52086031D01*
X120470322Y-52086029D01*
X120471746Y-52080716D01*
X120491701Y-51852629D01*
X120471746Y-51624542D01*
X120469849Y-51617462D01*
X120413910Y-51408696D01*
X120413909Y-51408694D01*
X120412487Y-51403386D01*
X120410164Y-51398404D01*
X120318052Y-51200867D01*
X120318049Y-51200862D01*
X120315726Y-51195880D01*
X120184401Y-51008329D01*
X120022503Y-50846431D01*
X120017995Y-50843274D01*
X120017992Y-50843272D01*
X119939814Y-50788531D01*
X119834952Y-50715106D01*
X119829970Y-50712783D01*
X119829965Y-50712780D01*
X119632428Y-50620668D01*
X119632427Y-50620668D01*
X119627446Y-50618345D01*
X119622138Y-50616923D01*
X119622136Y-50616922D01*
X119411605Y-50560510D01*
X119411603Y-50560510D01*
X119406290Y-50559086D01*
X119306723Y-50550375D01*
X119238054Y-50544367D01*
X119238047Y-50544367D01*
X119235330Y-50544129D01*
X119121076Y-50544129D01*
X119118359Y-50544367D01*
X119118352Y-50544367D01*
X119049683Y-50550375D01*
X118950116Y-50559086D01*
X118944803Y-50560510D01*
X118944801Y-50560510D01*
X118734270Y-50616922D01*
X118734268Y-50616923D01*
X118728960Y-50618345D01*
X118723979Y-50620668D01*
X118723978Y-50620668D01*
X118526441Y-50712780D01*
X118526436Y-50712783D01*
X118521454Y-50715106D01*
X118416592Y-50788531D01*
X118338414Y-50843272D01*
X118338411Y-50843274D01*
X118333903Y-50846431D01*
X118172005Y-51008329D01*
X118040680Y-51195880D01*
X118038357Y-51200862D01*
X118038354Y-51200867D01*
X117946242Y-51398404D01*
X117943919Y-51403386D01*
X117942497Y-51408694D01*
X117942496Y-51408696D01*
X117886557Y-51617462D01*
X117884660Y-51624542D01*
X117864705Y-51852629D01*
X117884660Y-52080716D01*
X117886084Y-52086029D01*
X117886084Y-52086031D01*
X117916714Y-52200341D01*
X117943919Y-52301872D01*
X117946242Y-52306853D01*
X117946242Y-52306854D01*
X118038354Y-52504391D01*
X118038357Y-52504396D01*
X118040680Y-52509378D01*
X118043837Y-52513886D01*
X118125027Y-52629837D01*
X118172005Y-52696929D01*
X118333903Y-52858827D01*
X118338411Y-52861984D01*
X118338414Y-52861986D01*
X118416592Y-52916727D01*
X118521454Y-52990152D01*
X118526436Y-52992475D01*
X118526441Y-52992478D01*
X118631845Y-53041628D01*
X118728960Y-53086913D01*
X118734268Y-53088335D01*
X118734270Y-53088336D01*
X118764448Y-53096422D01*
X118825071Y-53133374D01*
X118856092Y-53197234D01*
X118847664Y-53267729D01*
X118802461Y-53322476D01*
X118731837Y-53344129D01*
X118467202Y-53344129D01*
X118464694Y-53344331D01*
X118464689Y-53344331D01*
X118291279Y-53358283D01*
X118291274Y-53358284D01*
X118286238Y-53358689D01*
X118281330Y-53359895D01*
X118281327Y-53359895D01*
X118165210Y-53388416D01*
X118050497Y-53416592D01*
X118045845Y-53418567D01*
X118045841Y-53418568D01*
X117938455Y-53464151D01*
X117827047Y-53511441D01*
X117822763Y-53514139D01*
X117625915Y-53638101D01*
X117625912Y-53638103D01*
X117621636Y-53640796D01*
X117617842Y-53644141D01*
X117443345Y-53797979D01*
X117443342Y-53797982D01*
X117439548Y-53801327D01*
X117285469Y-53988907D01*
X117163362Y-54198707D01*
X117076370Y-54425331D01*
X117026729Y-54662949D01*
X117015717Y-54905446D01*
X116156769Y-54905446D01*
X116185382Y-54739793D01*
X116186703Y-54710704D01*
X116186703Y-53041628D01*
X116186501Y-53039115D01*
X116172549Y-52865705D01*
X116172548Y-52865700D01*
X116172143Y-52860664D01*
X116114240Y-52624923D01*
X116019391Y-52401473D01*
X115890036Y-52196062D01*
X115849836Y-52150463D01*
X115732853Y-52017771D01*
X115732850Y-52017768D01*
X115729505Y-52013974D01*
X115623196Y-51926651D01*
X115545831Y-51863103D01*
X115545828Y-51863101D01*
X115541925Y-51859895D01*
X115332125Y-51737788D01*
X115197928Y-51686275D01*
X115110225Y-51652609D01*
X115110221Y-51652608D01*
X115105501Y-51650796D01*
X115100551Y-51649762D01*
X115100548Y-51649761D01*
X114872834Y-51602189D01*
X114872830Y-51602189D01*
X114867883Y-51601155D01*
X114625386Y-51590143D01*
X114620366Y-51590724D01*
X114620362Y-51590724D01*
X114389274Y-51617462D01*
X114389270Y-51617463D01*
X114384247Y-51618044D01*
X114379383Y-51619420D01*
X114379380Y-51619421D01*
X114361283Y-51624542D01*
X114150671Y-51684139D01*
X114146095Y-51686273D01*
X114146089Y-51686275D01*
X113935249Y-51784591D01*
X113935245Y-51784593D01*
X113930667Y-51786728D01*
X113729896Y-51923173D01*
X113553522Y-52089961D01*
X113550444Y-52093987D01*
X113550443Y-52093988D01*
X113409156Y-52278783D01*
X113409153Y-52278787D01*
X113406083Y-52282803D01*
X113291372Y-52496738D01*
X113212341Y-52726260D01*
X113211479Y-52731252D01*
X113188898Y-52861986D01*
X113171024Y-52965465D01*
X113169703Y-52994554D01*
X113169703Y-54663630D01*
X112268000Y-54663630D01*
X112268000Y-48894000D01*
X112288002Y-48825879D01*
X112341658Y-48779386D01*
X112394000Y-48768000D01*
X179706000Y-48768000D01*
X179774121Y-48788002D01*
G37*
%TD.AperFunction*%
%TD*%
M02*
